{"glyphs":{"0":{"ha":781,"x_min":84,"x_max":697,"o":"m 392 -11 q 229 46 298 -11 q 122 206 159 104 q 84 445 84 309 l 84 553 q 122 793 84 690 q 229 953 159 896 q 392 1010 298 1010 q 553 954 485 1010 q 660 794 622 897 q 697 553 697 691 l 697 445 q 660 205 697 308 q 553 46 622 103 q 392 -11 485 -11 m 392 30 q 531 82 472 30 q 622 227 589 134 q 654 445 654 321 l 654 553 q 622 772 654 678 q 531 918 589 865 q 392 970 472 970 q 252 918 311 970 q 160 772 193 866 q 127 553 127 679 l 127 445 q 160 227 127 320 q 252 82 193 134 q 392 30 311 30 m 148 243 l 126 281 l 633 757 l 659 724 l 148 243 z "},"1":{"ha":781,"x_min":152,"x_max":642,"o":"m 395 0 l 395 963 l 407 951 l 183 831 l 183 878 l 412 1000 l 438 1000 l 438 0 l 395 0 m 152 0 l 152 38 l 642 38 l 642 0 l 152 0 z "},"2":{"ha":781,"x_min":90,"x_max":693,"o":"m 90 0 l 90 27 l 385 374 q 506 519 454 456 q 587 638 558 583 q 616 753 616 694 q 586 863 616 814 q 505 941 556 912 q 389 970 454 970 q 269 939 323 970 q 182 854 214 908 q 151 734 151 801 l 107 734 q 144 876 107 813 q 246 975 182 939 q 389 1010 310 1010 q 527 976 466 1010 q 624 883 588 942 q 659 750 659 824 q 629 623 659 682 q 546 499 600 564 q 420 353 492 435 l 156 43 l 156 41 l 321 41 l 693 41 l 693 0 l 90 0 z "},"3":{"ha":781,"x_min":84,"x_max":697,"o":"m 389 -11 q 239 25 308 -11 q 127 127 170 62 q 84 278 85 192 l 127 278 q 164 147 127 203 q 260 61 201 92 q 389 30 320 30 q 521 63 461 30 q 617 153 581 96 q 654 278 654 209 q 616 400 654 347 q 508 485 578 454 q 342 515 437 515 l 321 515 l 320 556 l 369 556 q 485 587 432 556 q 570 669 538 618 q 602 779 602 720 q 574 877 602 834 q 499 945 547 920 q 393 970 452 970 q 280 942 331 970 q 199 868 229 914 q 170 766 170 822 l 126 766 q 161 888 126 833 q 257 977 197 944 q 395 1010 318 1010 q 522 981 465 1010 q 612 900 578 952 q 646 780 646 848 q 609 648 646 708 q 512 553 572 588 q 378 522 451 518 l 378 544 q 544 515 472 550 q 656 418 616 481 q 697 275 697 355 q 656 131 697 196 q 545 28 614 66 q 389 -11 475 -11 z "},"4":{"ha":781,"x_min":54,"x_max":738,"o":"m 555 0 l 555 746 l 555 906 l 549 906 l 471 792 l 119 285 l 119 279 l 738 279 l 738 239 l 54 239 l 54 262 l 564 1000 l 598 1000 l 598 0 l 555 0 z "},"5":{"ha":781,"x_min":87,"x_max":696,"o":"m 387 -11 q 264 14 324 -11 q 158 83 205 38 q 87 191 111 129 l 126 209 q 185 118 145 159 q 279 54 225 77 q 393 30 333 30 q 524 66 465 30 q 617 165 583 102 q 652 305 652 227 q 618 447 652 383 q 524 547 584 510 q 387 585 464 585 q 293 569 335 585 q 223 531 252 553 q 180 490 194 509 l 146 495 l 146 1000 l 631 1000 l 631 959 l 191 959 l 191 522 l 176 533 q 261 597 200 569 q 392 625 322 625 q 543 584 474 625 q 654 471 612 543 q 696 308 696 399 q 654 144 696 216 q 542 31 612 72 q 387 -11 472 -11 z "},"6":{"ha":781,"x_min":73,"x_max":708,"o":"m 391 -11 q 228 32 300 -11 q 115 146 156 75 q 73 302 73 218 q 84 387 73 345 q 116 469 95 428 q 170 552 138 510 l 513 1000 l 563 1000 l 235 575 l 212 562 q 307 610 254 597 q 397 623 360 623 q 555 582 484 623 q 667 470 625 541 q 708 308 708 399 q 666 145 708 217 q 552 31 624 73 q 391 -11 480 -11 m 393 30 q 532 67 470 30 q 631 167 594 104 q 667 309 667 230 q 632 449 667 387 q 535 546 597 511 q 395 582 474 582 q 253 546 316 582 q 153 449 190 511 q 117 308 117 387 q 153 166 117 229 q 253 66 190 103 q 393 30 315 30 z "},"7":{"ha":781,"x_min":62,"x_max":720,"o":"m 240 0 l 667 954 l 667 959 l 62 959 l 62 1000 l 720 1000 l 720 972 l 285 0 l 240 0 z "},"8":{"ha":781,"x_min":65,"x_max":716,"o":"m 389 -11 q 225 27 298 -11 q 108 131 151 65 q 65 278 65 196 q 109 425 65 360 q 225 527 152 490 q 389 564 299 564 q 554 527 480 564 q 672 425 629 490 q 716 278 716 360 q 673 131 716 196 q 555 27 629 65 q 389 -11 481 -11 m 389 30 q 533 63 469 30 q 635 153 597 96 q 673 278 673 209 q 635 403 673 347 q 533 491 597 458 q 389 524 469 524 q 247 491 311 524 q 145 403 182 458 q 107 278 107 347 q 145 153 107 209 q 247 63 182 96 q 389 30 311 30 m 389 524 q 256 556 315 524 q 163 643 197 588 q 129 766 129 698 q 163 891 129 836 q 255 979 197 947 q 389 1010 314 1010 q 524 979 465 1010 q 616 891 583 947 q 650 766 650 836 q 616 642 650 697 q 523 555 582 587 q 389 524 464 524 m 389 564 q 501 592 452 564 q 578 666 550 620 q 606 766 606 711 q 577 872 606 825 q 498 947 547 920 q 389 974 449 974 q 281 947 330 974 q 203 873 233 920 q 174 766 174 826 q 202 666 174 711 q 279 592 231 620 q 389 564 328 564 z "},"9":{"ha":781,"x_min":73,"x_max":708,"o":"m 391 1010 q 553 967 481 1010 q 667 853 625 924 q 708 697 708 782 q 697 613 708 654 q 665 531 686 572 q 612 448 644 490 l 269 0 l 218 0 l 547 425 l 570 438 q 474 390 527 403 q 384 377 422 377 q 227 418 297 377 q 115 530 156 458 q 73 692 73 601 q 115 855 73 783 q 229 969 157 927 q 391 1010 301 1010 m 388 970 q 249 933 311 970 q 151 833 187 897 q 114 690 114 770 q 149 551 114 612 q 246 453 184 489 q 387 418 307 418 q 528 453 465 418 q 628 551 591 489 q 665 692 665 613 q 628 833 665 770 q 529 933 591 897 q 388 970 466 970 z "},"A":{"ha":781,"x_min":22,"x_max":760,"o":"m 22 0 l 366 1000 l 415 1000 l 760 0 l 715 0 l 600 336 l 591 351 l 393 940 l 388 940 l 190 351 l 182 336 l 66 0 l 22 0 m 163 323 l 163 363 l 618 363 l 618 323 l 163 323 z "},"Á":{"ha":781,"x_min":22,"x_max":760,"o":"m 22 0 l 366 1000 l 415 1000 l 760 0 l 715 0 l 600 336 l 591 351 l 393 940 l 388 940 l 190 351 l 182 336 l 66 0 l 22 0 m 163 323 l 163 363 l 618 363 l 618 323 l 163 323 m 391 1055 l 362 1089 l 543 1275 l 570 1245 l 391 1055 z "},"Ă":{"ha":781,"x_min":22,"x_max":760,"o":"m 22 0 l 366 1000 l 415 1000 l 760 0 l 715 0 l 600 336 l 591 351 l 393 940 l 388 940 l 190 351 l 182 336 l 66 0 l 22 0 m 163 323 l 163 363 l 618 363 l 618 323 l 163 323 m 391 1055 q 298 1077 339 1055 q 232 1134 256 1098 q 208 1214 208 1170 l 245 1214 q 287 1129 245 1162 q 391 1096 329 1096 q 497 1129 455 1096 q 538 1214 538 1162 l 576 1214 q 553 1134 578 1170 q 486 1077 529 1098 q 391 1055 444 1055 z "},"Ắ":{"ha":781,"x_min":22,"x_max":760,"o":"m 22 0 l 366 1000 l 415 1000 l 760 0 l 715 0 l 600 336 l 591 351 l 393 940 l 388 940 l 190 351 l 182 336 l 66 0 l 22 0 m 163 323 l 163 363 l 618 363 l 618 323 l 163 323 m 372 1161 l 346 1191 l 526 1379 l 553 1350 l 372 1161 m 392 1055 q 296 1077 338 1055 q 230 1138 254 1099 q 206 1225 206 1176 l 247 1225 q 288 1131 247 1168 q 392 1093 329 1093 q 494 1131 454 1093 q 534 1225 534 1168 l 575 1225 q 551 1138 575 1176 q 486 1077 528 1099 q 392 1055 445 1055 z "},"Ặ":{"ha":781,"x_min":22,"x_max":760,"o":"m 22 0 l 366 1000 l 415 1000 l 760 0 l 715 0 l 600 336 l 591 351 l 393 940 l 388 940 l 190 351 l 182 336 l 66 0 l 22 0 m 163 323 l 163 363 l 618 363 l 618 323 l 163 323 m 389 -208 q 348 -191 364 -208 q 331 -149 331 -174 q 348 -107 331 -124 q 389 -91 364 -91 q 431 -107 414 -91 q 448 -149 448 -124 q 431 -191 448 -174 q 389 -208 414 -208 m 391 1055 q 298 1077 339 1055 q 232 1134 256 1098 q 208 1214 208 1170 l 245 1214 q 287 1129 245 1162 q 391 1096 329 1096 q 497 1129 455 1096 q 538 1214 538 1162 l 576 1214 q 553 1134 578 1170 q 486 1077 529 1098 q 391 1055 444 1055 z "},"Ằ":{"ha":781,"x_min":22,"x_max":760,"o":"m 22 0 l 366 1000 l 415 1000 l 760 0 l 715 0 l 600 336 l 591 351 l 393 940 l 388 940 l 190 351 l 182 336 l 66 0 l 22 0 m 163 323 l 163 363 l 618 363 l 618 323 l 163 323 m 410 1161 l 228 1350 l 255 1379 l 435 1191 l 410 1161 m 389 1055 q 295 1077 336 1055 q 230 1138 254 1099 q 206 1225 206 1176 l 247 1225 q 287 1131 247 1168 q 389 1093 328 1093 q 493 1131 452 1093 q 534 1225 534 1168 l 575 1225 q 551 1138 575 1176 q 485 1077 527 1099 q 389 1055 444 1055 z "},"Ẳ":{"ha":781,"x_min":22,"x_max":760,"o":"m 22 0 l 366 1000 l 415 1000 l 760 0 l 715 0 l 600 336 l 591 351 l 393 940 l 388 940 l 190 351 l 182 336 l 66 0 l 22 0 m 163 323 l 163 363 l 618 363 l 618 323 l 163 323 m 389 1053 q 295 1075 336 1053 q 230 1135 254 1097 q 206 1222 206 1173 l 247 1222 q 287 1128 247 1165 q 389 1090 328 1090 q 493 1128 452 1090 q 534 1222 534 1165 l 575 1222 q 551 1135 575 1173 q 485 1075 527 1097 q 389 1053 444 1053 m 404 1164 l 380 1194 q 425 1231 406 1208 q 444 1280 444 1254 q 425 1323 444 1308 q 374 1339 406 1339 q 337 1335 356 1339 q 302 1325 319 1331 l 302 1366 q 340 1376 320 1373 q 373 1378 360 1378 q 451 1352 424 1378 q 479 1283 479 1326 q 458 1215 479 1248 q 404 1164 438 1181 z "},"Ẵ":{"ha":781,"x_min":22,"x_max":760,"o":"m 22 0 l 366 1000 l 415 1000 l 760 0 l 715 0 l 600 336 l 591 351 l 393 940 l 388 940 l 190 351 l 182 336 l 66 0 l 22 0 m 163 323 l 163 363 l 618 363 l 618 323 l 163 323 m 343 1270 q 373 1358 343 1328 q 449 1388 402 1388 q 501 1376 479 1388 q 539 1349 522 1364 q 572 1322 555 1333 q 610 1310 589 1310 q 657 1330 640 1310 q 674 1388 674 1350 l 715 1388 q 703 1324 716 1350 q 665 1283 689 1297 q 609 1270 640 1270 q 561 1282 582 1270 q 523 1310 541 1294 q 487 1337 505 1325 q 446 1350 469 1350 q 401 1331 418 1350 q 384 1270 384 1312 l 343 1270 m 528 1055 q 433 1077 475 1055 q 368 1138 392 1099 q 345 1225 345 1176 l 385 1225 q 426 1131 385 1168 q 528 1093 466 1093 q 632 1131 591 1093 q 673 1225 673 1168 l 713 1225 q 689 1138 713 1176 q 624 1077 665 1099 q 528 1055 582 1055 z "},"Ǎ":{"ha":781,"x_min":22,"x_max":760,"o":"m 22 0 l 366 1000 l 415 1000 l 760 0 l 715 0 l 600 336 l 591 351 l 393 940 l 388 940 l 190 351 l 182 336 l 66 0 l 22 0 m 163 323 l 163 363 l 618 363 l 618 323 l 163 323 m 227 1221 l 388 1086 l 397 1086 l 555 1221 l 582 1187 l 406 1044 l 380 1044 l 199 1187 l 227 1221 z "},"Â":{"ha":781,"x_min":22,"x_max":760,"o":"m 22 0 l 366 1000 l 415 1000 l 760 0 l 715 0 l 600 336 l 591 351 l 393 940 l 388 940 l 190 351 l 182 336 l 66 0 l 22 0 m 163 323 l 163 363 l 618 363 l 618 323 l 163 323 m 229 1055 l 202 1089 l 382 1232 l 408 1232 l 585 1089 l 557 1055 l 400 1190 l 391 1190 l 229 1055 z "},"Ấ":{"ha":781,"x_min":22,"x_max":760,"o":"m 22 0 l 366 1000 l 415 1000 l 760 0 l 715 0 l 600 336 l 591 351 l 393 940 l 388 940 l 190 351 l 182 336 l 66 0 l 22 0 m 163 323 l 163 363 l 618 363 l 618 323 l 163 323 m 552 1175 l 524 1206 l 689 1379 l 722 1347 l 552 1175 m 225 1047 l 198 1078 l 378 1225 l 404 1225 l 581 1078 l 553 1047 l 396 1177 l 387 1177 l 225 1047 z "},"Ậ":{"ha":781,"x_min":22,"x_max":760,"o":"m 22 0 l 366 1000 l 415 1000 l 760 0 l 715 0 l 600 336 l 591 351 l 393 940 l 388 940 l 190 351 l 182 336 l 66 0 l 22 0 m 163 323 l 163 363 l 618 363 l 618 323 l 163 323 m 389 -208 q 348 -191 364 -208 q 331 -149 331 -174 q 348 -107 331 -124 q 389 -91 364 -91 q 431 -107 414 -91 q 448 -149 448 -124 q 431 -191 448 -174 q 389 -208 414 -208 m 229 1055 l 202 1089 l 382 1232 l 408 1232 l 585 1089 l 557 1055 l 400 1190 l 391 1190 l 229 1055 z "},"Ầ":{"ha":781,"x_min":22,"x_max":760,"o":"m 22 0 l 366 1000 l 415 1000 l 760 0 l 715 0 l 600 336 l 591 351 l 393 940 l 388 940 l 190 351 l 182 336 l 66 0 l 22 0 m 163 323 l 163 363 l 618 363 l 618 323 l 163 323 m 229 1175 l 60 1347 l 92 1379 l 258 1206 l 229 1175 m 556 1047 l 395 1177 l 385 1177 l 228 1047 l 201 1078 l 377 1225 l 403 1225 l 583 1078 l 556 1047 z "},"Ẩ":{"ha":781,"x_min":22,"x_max":760,"o":"m 22 0 l 366 1000 l 415 1000 l 760 0 l 715 0 l 600 336 l 591 351 l 393 940 l 388 940 l 190 351 l 182 336 l 66 0 l 22 0 m 163 323 l 163 363 l 618 363 l 618 323 l 163 323 m 537 1169 l 507 1195 q 543 1238 526 1213 q 559 1286 559 1263 q 541 1328 559 1312 q 491 1344 522 1344 q 455 1340 476 1344 q 419 1331 434 1337 l 419 1369 q 454 1378 434 1375 q 492 1382 473 1382 q 570 1357 541 1382 q 600 1289 600 1333 q 590 1245 600 1267 q 566 1202 580 1222 q 537 1169 551 1182 m 224 1047 l 197 1078 l 377 1225 l 403 1225 l 579 1078 l 552 1047 l 395 1177 l 385 1177 l 224 1047 z "},"Ẫ":{"ha":781,"x_min":22,"x_max":760,"o":"m 22 0 l 366 1000 l 415 1000 l 760 0 l 715 0 l 600 336 l 591 351 l 393 940 l 388 940 l 190 351 l 182 336 l 66 0 l 22 0 m 163 323 l 163 363 l 618 363 l 618 323 l 163 323 m 203 1270 q 233 1358 203 1328 q 309 1388 262 1388 q 361 1376 340 1388 q 399 1349 382 1364 q 433 1322 416 1333 q 471 1310 450 1310 q 517 1330 500 1310 q 534 1388 534 1350 l 575 1388 q 563 1323 576 1350 q 524 1283 549 1297 q 469 1270 500 1270 q 421 1282 442 1270 q 382 1310 400 1294 q 346 1337 364 1325 q 305 1350 328 1350 q 262 1331 281 1350 q 244 1270 244 1312 l 203 1270 m 225 1047 l 198 1078 l 378 1225 l 404 1225 l 581 1078 l 553 1047 l 396 1177 l 387 1177 l 225 1047 z "},"Ȁ":{"ha":781,"x_min":22,"x_max":760,"o":"m 22 0 l 366 1000 l 415 1000 l 760 0 l 715 0 l 600 336 l 591 351 l 393 940 l 388 940 l 190 351 l 182 336 l 66 0 l 22 0 m 163 323 l 163 363 l 618 363 l 618 323 l 163 323 m 279 1086 l 149 1299 l 190 1322 l 308 1100 l 279 1086 m 463 1086 l 340 1299 l 381 1322 l 496 1100 l 463 1086 z "},"Ä":{"ha":781,"x_min":22,"x_max":760,"o":"m 22 0 l 366 1000 l 415 1000 l 760 0 l 715 0 l 600 336 l 591 351 l 393 940 l 388 940 l 190 351 l 182 336 l 66 0 l 22 0 m 163 323 l 163 363 l 618 363 l 618 323 l 163 323 m 522 1085 q 482 1102 498 1085 q 465 1142 465 1118 q 482 1182 465 1166 q 522 1199 498 1199 q 563 1182 546 1199 q 579 1142 579 1166 q 563 1102 579 1118 q 522 1085 546 1085 m 264 1085 q 224 1102 241 1085 q 208 1142 208 1118 q 224 1182 208 1166 q 264 1199 241 1199 q 305 1182 288 1199 q 321 1142 321 1166 q 305 1102 321 1118 q 264 1085 288 1085 z "},"Ȧ":{"ha":781,"x_min":22,"x_max":760,"o":"m 22 0 l 366 1000 l 415 1000 l 760 0 l 715 0 l 600 336 l 591 351 l 393 940 l 388 940 l 190 351 l 182 336 l 66 0 l 22 0 m 163 323 l 163 363 l 618 363 l 618 323 l 163 323 m 391 1081 q 349 1098 366 1081 q 332 1139 332 1114 q 349 1181 332 1164 q 391 1198 366 1198 q 432 1181 416 1198 q 449 1139 449 1164 q 432 1098 449 1114 q 391 1081 416 1081 z "},"Ạ":{"ha":781,"x_min":22,"x_max":760,"o":"m 22 0 l 366 1000 l 415 1000 l 760 0 l 715 0 l 600 336 l 591 351 l 393 940 l 388 940 l 190 351 l 182 336 l 66 0 l 22 0 m 163 323 l 163 363 l 618 363 l 618 323 l 163 323 m 389 -208 q 348 -191 364 -208 q 331 -149 331 -174 q 348 -107 331 -124 q 389 -91 364 -91 q 431 -107 414 -91 q 448 -149 448 -124 q 431 -191 448 -174 q 389 -208 414 -208 z "},"À":{"ha":781,"x_min":22,"x_max":760,"o":"m 22 0 l 366 1000 l 415 1000 l 760 0 l 715 0 l 600 336 l 591 351 l 393 940 l 388 940 l 190 351 l 182 336 l 66 0 l 22 0 m 163 323 l 163 363 l 618 363 l 618 323 l 163 323 m 391 1055 l 212 1245 l 239 1275 l 419 1089 l 391 1055 z "},"Ả":{"ha":781,"x_min":22,"x_max":760,"o":"m 22 0 l 366 1000 l 415 1000 l 760 0 l 715 0 l 600 336 l 591 351 l 393 940 l 388 940 l 190 351 l 182 336 l 66 0 l 22 0 m 163 323 l 163 363 l 618 363 l 618 323 l 163 323 m 406 1097 l 381 1127 q 426 1164 407 1141 q 445 1214 445 1187 q 426 1257 445 1242 q 376 1272 408 1272 q 339 1269 357 1272 q 304 1259 320 1265 l 304 1299 q 341 1309 321 1307 q 374 1312 361 1312 q 453 1285 425 1312 q 480 1217 480 1259 q 460 1148 480 1181 q 406 1097 439 1115 z "},"Ȃ":{"ha":781,"x_min":22,"x_max":760,"o":"m 22 0 l 366 1000 l 415 1000 l 760 0 l 715 0 l 600 336 l 591 351 l 393 940 l 388 940 l 190 351 l 182 336 l 66 0 l 22 0 m 163 323 l 163 363 l 618 363 l 618 323 l 163 323 m 389 1222 q 485 1201 442 1222 q 552 1143 528 1179 q 575 1063 576 1107 l 537 1063 q 495 1148 537 1116 q 389 1181 454 1181 q 286 1148 328 1181 q 244 1063 244 1116 l 206 1063 q 231 1143 206 1107 q 296 1201 255 1179 q 389 1222 338 1222 z "},"Ā":{"ha":781,"x_min":22,"x_max":760,"o":"m 22 0 l 366 1000 l 415 1000 l 760 0 l 715 0 l 600 336 l 591 351 l 393 940 l 388 940 l 190 351 l 182 336 l 66 0 l 22 0 m 163 323 l 163 363 l 618 363 l 618 323 l 163 323 m 168 1122 l 168 1164 l 612 1164 l 612 1122 l 168 1122 z "},"Ą":{"ha":781,"x_min":22,"x_max":788,"o":"m 22 0 l 366 1000 l 415 1000 l 760 0 l 715 0 l 600 336 l 591 351 l 393 940 l 388 940 l 190 351 l 182 336 l 66 0 l 22 0 m 163 323 l 163 363 l 618 363 l 618 323 l 163 323 m 703 -264 q 639 -236 664 -264 q 614 -164 614 -208 q 651 -67 614 -110 q 728 16 688 -25 l 760 0 q 711 -55 736 -29 q 668 -108 686 -81 q 650 -164 650 -134 q 668 -209 650 -193 q 709 -225 686 -225 q 753 -215 733 -225 q 788 -194 774 -204 l 788 -236 q 749 -256 774 -248 q 703 -264 725 -264 z "},"Å":{"ha":781,"x_min":22,"x_max":760,"o":"m 22 0 l 366 1000 l 415 1000 l 760 0 l 715 0 l 600 336 l 591 351 l 393 940 l 388 940 l 190 351 l 182 336 l 66 0 l 22 0 m 163 323 l 163 363 l 618 363 l 618 323 l 163 323 m 391 1044 q 329 1061 357 1044 q 284 1107 300 1078 q 267 1172 267 1136 q 284 1239 267 1209 q 329 1285 300 1268 q 391 1302 357 1302 q 453 1285 425 1302 q 498 1239 481 1268 q 514 1172 514 1209 q 498 1107 514 1136 q 453 1061 481 1078 q 391 1044 425 1044 m 391 1086 q 452 1112 429 1086 q 475 1172 475 1137 q 451 1237 475 1212 q 391 1261 427 1261 q 330 1237 355 1261 q 304 1172 304 1212 q 330 1112 304 1137 q 391 1086 355 1086 z "},"Ǻ":{"ha":781,"x_min":22,"x_max":760,"o":"m 22 0 l 366 1000 l 415 1000 l 760 0 l 715 0 l 600 336 l 591 351 l 393 940 l 388 940 l 190 351 l 182 336 l 66 0 l 22 0 m 163 323 l 163 363 l 618 363 l 618 323 l 163 323 m 411 1034 q 325 1069 360 1034 q 289 1156 289 1105 q 325 1242 289 1206 q 411 1278 360 1278 q 497 1242 462 1278 q 533 1156 533 1206 q 497 1069 533 1105 q 411 1034 462 1034 m 411 1072 q 471 1096 447 1072 q 495 1156 495 1121 q 471 1216 495 1192 q 411 1240 447 1240 q 352 1216 376 1240 q 327 1156 327 1192 q 352 1096 327 1121 q 411 1072 376 1072 m 464 1305 l 435 1339 l 616 1525 l 643 1495 l 464 1305 z "},"Ã":{"ha":781,"x_min":22,"x_max":760,"o":"m 22 0 l 366 1000 l 415 1000 l 760 0 l 715 0 l 600 336 l 591 351 l 393 940 l 388 940 l 190 351 l 182 336 l 66 0 l 22 0 m 163 323 l 163 363 l 618 363 l 618 323 l 163 323 m 202 1084 q 234 1178 204 1142 q 308 1214 264 1214 q 361 1200 339 1214 q 400 1168 382 1186 q 434 1136 417 1149 q 472 1122 451 1122 q 519 1149 503 1122 q 536 1214 536 1177 l 575 1214 q 548 1120 576 1157 q 472 1084 519 1084 q 422 1097 444 1084 q 383 1128 401 1110 q 347 1159 365 1145 q 305 1172 328 1172 q 261 1148 279 1172 q 244 1084 244 1124 l 202 1084 z "},"Æ":{"ha":781,"x_min":7,"x_max":768,"o":"m 7 0 l 368 1000 l 411 1000 l 411 943 l 391 943 l 180 350 l 175 336 l 52 0 l 7 0 m 159 323 l 159 363 l 446 363 l 446 323 l 159 323 m 444 0 l 426 339 l 425 353 l 389 1000 l 768 1000 l 768 959 l 435 959 l 486 41 l 768 41 l 768 0 l 444 0 m 452 492 l 446 533 l 724 533 l 724 492 l 452 492 z "},"Ǽ":{"ha":781,"x_min":7,"x_max":768,"o":"m 7 0 l 368 1000 l 411 1000 l 411 943 l 391 943 l 180 350 l 175 336 l 52 0 l 7 0 m 159 323 l 159 363 l 446 363 l 446 323 l 159 323 m 444 0 l 426 339 l 425 353 l 389 1000 l 768 1000 l 768 959 l 435 959 l 486 41 l 768 41 l 768 0 l 444 0 m 452 492 l 446 533 l 724 533 l 724 492 l 452 492 m 514 1055 l 486 1089 l 666 1275 l 693 1245 l 514 1055 z "},"B":{"ha":781,"x_min":117,"x_max":686,"o":"m 149 0 l 149 41 l 396 41 q 576 102 509 41 q 643 267 643 163 q 575 432 643 371 q 396 492 508 492 l 126 492 l 126 533 l 369 533 q 471 560 425 533 q 544 634 517 587 q 571 745 571 682 q 513 901 571 842 q 370 959 456 959 l 126 959 l 126 1000 l 370 1000 q 496 968 441 1000 q 583 879 551 936 q 614 745 614 821 q 598 652 614 696 q 551 573 582 608 q 477 517 521 538 l 477 525 q 589 477 543 513 q 661 388 636 441 q 686 267 686 334 q 650 126 686 186 q 549 33 614 66 q 396 0 484 0 l 149 0 m 117 0 l 117 1000 l 160 1000 l 160 0 l 117 0 z "},"C":{"ha":781,"x_min":73,"x_max":722,"o":"m 465 -11 q 261 54 349 -11 q 123 234 172 119 q 73 500 73 349 q 123 767 73 652 q 263 946 174 882 q 471 1010 353 1010 q 605 981 536 1010 q 719 906 673 952 l 700 863 q 600 940 663 911 q 472 970 536 970 q 287 910 367 970 q 161 745 206 850 q 117 499 117 639 q 161 254 117 360 q 284 89 205 149 q 467 30 363 30 q 602 63 536 30 q 703 149 667 96 l 722 106 q 605 22 676 54 q 465 -11 534 -11 z "},"Ć":{"ha":781,"x_min":73,"x_max":722,"o":"m 465 -11 q 261 54 349 -11 q 123 234 172 119 q 73 500 73 349 q 123 767 73 652 q 263 946 174 882 q 471 1010 353 1010 q 605 981 536 1010 q 719 906 673 952 l 700 863 q 600 940 663 911 q 472 970 536 970 q 287 910 367 970 q 161 745 206 850 q 117 499 117 639 q 161 254 117 360 q 284 89 205 149 q 467 30 363 30 q 602 63 536 30 q 703 149 667 96 l 722 106 q 605 22 676 54 q 465 -11 534 -11 m 465 1055 l 437 1089 l 617 1275 l 644 1245 l 465 1055 z "},"Č":{"ha":781,"x_min":73,"x_max":722,"o":"m 465 -11 q 261 54 349 -11 q 123 234 172 119 q 73 500 73 349 q 123 767 73 652 q 263 946 174 882 q 471 1010 353 1010 q 605 981 536 1010 q 719 906 673 952 l 700 863 q 600 940 663 911 q 472 970 536 970 q 287 910 367 970 q 161 745 206 850 q 117 499 117 639 q 161 254 117 360 q 284 89 205 149 q 467 30 363 30 q 602 63 536 30 q 703 149 667 96 l 722 106 q 605 22 676 54 q 465 -11 534 -11 m 301 1221 l 463 1086 l 472 1086 l 629 1221 l 656 1187 l 480 1044 l 454 1044 l 274 1187 l 301 1221 z "},"Ç":{"ha":781,"x_min":73,"x_max":722,"o":"m 465 -11 q 261 54 349 -11 q 123 234 172 119 q 73 500 73 349 q 123 767 73 652 q 263 946 174 882 q 471 1010 353 1010 q 605 981 536 1010 q 719 906 673 952 l 700 863 q 600 940 663 911 q 472 970 536 970 q 287 910 367 970 q 161 745 206 850 q 117 499 117 639 q 161 254 117 360 q 284 89 205 149 q 467 30 363 30 q 602 63 536 30 q 703 149 667 96 l 722 106 q 605 22 676 54 q 465 -11 534 -11 m 374 -292 l 374 -250 q 476 -237 437 -252 q 515 -180 515 -222 q 487 -133 515 -152 q 414 -114 458 -114 l 446 0 l 487 0 l 456 -109 l 445 -80 q 524 -118 497 -89 q 551 -183 551 -146 q 504 -265 551 -238 q 374 -292 458 -292 z "},"Ḉ":{"ha":781,"x_min":73,"x_max":722,"o":"m 465 -11 q 261 54 349 -11 q 123 234 172 119 q 73 500 73 349 q 123 767 73 652 q 263 946 174 882 q 471 1010 353 1010 q 605 981 536 1010 q 719 906 673 952 l 700 863 q 600 940 663 911 q 472 970 536 970 q 287 910 367 970 q 161 745 206 850 q 117 499 117 639 q 161 254 117 360 q 284 89 205 149 q 467 30 363 30 q 602 63 536 30 q 703 149 667 96 l 722 106 q 605 22 676 54 q 465 -11 534 -11 m 374 -292 l 374 -250 q 476 -237 437 -252 q 515 -180 515 -222 q 487 -133 515 -152 q 414 -114 458 -114 l 446 0 l 487 0 l 456 -109 l 445 -80 q 524 -118 497 -89 q 551 -183 551 -146 q 504 -265 551 -238 q 374 -292 458 -292 m 465 1055 l 437 1089 l 617 1275 l 644 1245 l 465 1055 z "},"Ĉ":{"ha":781,"x_min":73,"x_max":722,"o":"m 465 -11 q 261 54 349 -11 q 123 234 172 119 q 73 500 73 349 q 123 767 73 652 q 263 946 174 882 q 471 1010 353 1010 q 605 981 536 1010 q 719 906 673 952 l 700 863 q 600 940 663 911 q 472 970 536 970 q 287 910 367 970 q 161 745 206 850 q 117 499 117 639 q 161 254 117 360 q 284 89 205 149 q 467 30 363 30 q 602 63 536 30 q 703 149 667 96 l 722 106 q 605 22 676 54 q 465 -11 534 -11 m 304 1055 l 277 1089 l 457 1232 l 483 1232 l 659 1089 l 632 1055 l 475 1190 l 465 1190 l 304 1055 z "},"Ċ":{"ha":781,"x_min":73,"x_max":722,"o":"m 465 -11 q 261 54 349 -11 q 123 234 172 119 q 73 500 73 349 q 123 767 73 652 q 263 946 174 882 q 471 1010 353 1010 q 605 981 536 1010 q 719 906 673 952 l 700 863 q 600 940 663 911 q 472 970 536 970 q 287 910 367 970 q 161 745 206 850 q 117 499 117 639 q 161 254 117 360 q 284 89 205 149 q 467 30 363 30 q 602 63 536 30 q 703 149 667 96 l 722 106 q 605 22 676 54 q 465 -11 534 -11 m 465 1081 q 424 1098 440 1081 q 407 1139 407 1114 q 424 1181 407 1164 q 465 1198 440 1198 q 507 1181 490 1198 q 524 1139 524 1164 q 507 1098 524 1114 q 465 1081 490 1081 z "},"D":{"ha":781,"x_min":109,"x_max":730,"o":"m 109 0 l 109 1000 l 349 1000 q 543 938 456 1000 q 679 765 629 876 q 730 510 730 655 q 679 244 730 359 q 542 64 629 129 q 347 0 456 0 l 109 0 m 152 41 l 345 41 q 519 100 441 41 q 641 265 596 159 q 686 510 686 371 q 641 744 686 643 q 519 902 596 845 q 345 959 441 959 l 152 959 l 152 41 z "},"Ǆ":{"ha":781,"x_min":65,"x_max":741,"o":"m 65 0 l 65 1000 l 176 1000 q 340 871 278 1000 q 403 510 403 743 q 341 134 403 267 q 178 0 279 0 l 65 0 m 109 41 l 168 41 q 306 163 253 41 q 359 510 359 286 q 306 842 359 724 q 168 959 253 959 l 109 959 l 109 41 m 430 0 l 430 24 l 688 956 l 688 959 l 444 959 l 444 1000 l 735 1000 l 735 975 l 479 43 l 479 41 l 738 41 l 738 0 l 430 0 m 594 1044 l 469 1187 l 496 1213 l 602 1086 l 606 1086 l 711 1213 l 741 1187 l 614 1044 l 594 1044 z "},"Ď":{"ha":781,"x_min":109,"x_max":730,"o":"m 109 0 l 109 1000 l 349 1000 q 543 938 456 1000 q 679 765 629 876 q 730 510 730 655 q 679 244 730 359 q 542 64 629 129 q 347 0 456 0 l 109 0 m 152 41 l 345 41 q 519 100 441 41 q 641 265 596 159 q 686 510 686 371 q 641 744 686 643 q 519 902 596 845 q 345 959 441 959 l 152 959 l 152 41 m 220 1221 l 381 1086 l 391 1086 l 548 1221 l 575 1187 l 399 1044 l 373 1044 l 193 1187 l 220 1221 z "},"Đ":{"ha":781,"x_min":20,"x_max":754,"o":"m 133 0 l 133 1000 l 373 1000 q 567 938 481 1000 q 704 765 654 876 q 754 510 754 655 q 704 244 754 359 q 567 64 653 129 q 372 0 480 0 l 133 0 m 176 41 l 369 41 q 543 100 466 41 q 666 265 621 159 q 711 510 711 371 q 666 744 711 643 q 543 902 621 845 q 369 959 466 959 l 176 959 l 176 41 m 20 495 l 20 533 l 292 533 l 292 495 l 20 495 z "},"Ḍ":{"ha":781,"x_min":109,"x_max":730,"o":"m 109 0 l 109 1000 l 349 1000 q 543 938 456 1000 q 679 765 629 876 q 730 510 730 655 q 679 244 730 359 q 542 64 629 129 q 347 0 456 0 l 109 0 m 152 41 l 345 41 q 519 100 441 41 q 641 265 596 159 q 686 510 686 371 q 641 744 686 643 q 519 902 596 845 q 345 959 441 959 l 152 959 l 152 41 m 387 -208 q 345 -191 361 -208 q 328 -149 328 -174 q 345 -107 328 -124 q 387 -91 361 -91 q 428 -107 412 -91 q 445 -149 445 -124 q 428 -191 445 -174 q 387 -208 412 -208 z "},"Ḏ":{"ha":781,"x_min":109,"x_max":730,"o":"m 109 0 l 109 1000 l 349 1000 q 543 938 456 1000 q 679 765 629 876 q 730 510 730 655 q 679 244 730 359 q 542 64 629 129 q 347 0 456 0 l 109 0 m 152 41 l 345 41 q 519 100 441 41 q 641 265 596 159 q 686 510 686 371 q 641 744 686 643 q 519 902 596 845 q 345 959 441 959 l 152 959 l 152 41 m 184 -256 l 184 -217 l 589 -217 l 589 -256 l 184 -256 z "},"ǅ":{"ha":781,"x_min":65,"x_max":738,"o":"m 65 0 l 65 1000 l 176 1000 q 340 871 278 1000 q 403 510 403 743 q 341 134 403 267 q 178 0 279 0 l 65 0 m 109 41 l 168 41 q 306 163 253 41 q 359 510 359 286 q 306 842 359 724 q 168 959 253 959 l 109 959 l 109 41 m 433 0 l 433 20 l 686 670 l 686 673 l 444 673 l 444 711 l 731 711 l 731 688 l 479 41 l 479 38 l 738 38 l 738 0 l 433 0 m 581 857 l 445 1000 l 469 1025 l 589 899 l 593 899 l 711 1025 l 738 1000 l 601 857 l 581 857 z "},"Ð":{"ha":781,"x_min":20,"x_max":754,"o":"m 133 0 l 133 1000 l 373 1000 q 567 938 481 1000 q 704 765 654 876 q 754 510 754 655 q 704 244 754 359 q 567 64 653 129 q 372 0 480 0 l 133 0 m 176 41 l 369 41 q 543 100 466 41 q 666 265 621 159 q 711 510 711 371 q 666 744 711 643 q 543 902 621 845 q 369 959 466 959 l 176 959 l 176 41 m 20 495 l 20 533 l 292 533 l 292 495 l 20 495 z "},"E":{"ha":781,"x_min":156,"x_max":670,"o":"m 156 0 l 156 1000 l 670 1000 l 670 959 l 199 959 l 199 533 l 604 533 l 604 492 l 199 492 l 199 41 l 670 41 l 670 0 l 156 0 z "},"É":{"ha":781,"x_min":156,"x_max":670,"o":"m 156 0 l 156 1000 l 670 1000 l 670 959 l 199 959 l 199 533 l 604 533 l 604 492 l 199 492 l 199 41 l 670 41 l 670 0 l 156 0 m 414 1055 l 385 1089 l 566 1275 l 593 1245 l 414 1055 z "},"Ĕ":{"ha":781,"x_min":156,"x_max":670,"o":"m 156 0 l 156 1000 l 670 1000 l 670 959 l 199 959 l 199 533 l 604 533 l 604 492 l 199 492 l 199 41 l 670 41 l 670 0 l 156 0 m 414 1055 q 321 1077 362 1055 q 255 1134 279 1098 q 231 1214 231 1170 l 269 1214 q 310 1129 269 1162 q 414 1096 352 1096 q 520 1129 478 1096 q 562 1214 562 1162 l 600 1214 q 576 1134 601 1170 q 509 1077 552 1098 q 414 1055 467 1055 z "},"Ě":{"ha":781,"x_min":156,"x_max":670,"o":"m 156 0 l 156 1000 l 670 1000 l 670 959 l 199 959 l 199 533 l 604 533 l 604 492 l 199 492 l 199 41 l 670 41 l 670 0 l 156 0 m 250 1221 l 411 1086 l 420 1086 l 578 1221 l 605 1187 l 429 1044 l 403 1044 l 222 1187 l 250 1221 z "},"Ḝ":{"ha":781,"x_min":156,"x_max":670,"o":"m 156 0 l 156 1000 l 670 1000 l 670 959 l 199 959 l 199 533 l 604 533 l 604 492 l 199 492 l 199 41 l 670 41 l 670 0 l 156 0 m 321 -292 l 321 -250 q 424 -237 385 -252 q 463 -180 463 -222 q 434 -133 463 -152 q 361 -114 406 -114 l 393 0 l 434 0 l 403 -109 l 392 -80 q 471 -118 444 -89 q 498 -183 498 -146 q 451 -265 498 -238 q 321 -292 405 -292 m 414 1055 q 321 1077 362 1055 q 255 1134 279 1098 q 231 1214 231 1170 l 269 1214 q 310 1129 269 1162 q 414 1096 352 1096 q 520 1129 478 1096 q 562 1214 562 1162 l 600 1214 q 576 1134 601 1170 q 509 1077 552 1098 q 414 1055 467 1055 z "},"Ê":{"ha":781,"x_min":156,"x_max":670,"o":"m 156 0 l 156 1000 l 670 1000 l 670 959 l 199 959 l 199 533 l 604 533 l 604 492 l 199 492 l 199 41 l 670 41 l 670 0 l 156 0 m 252 1055 l 225 1089 l 406 1232 l 431 1232 l 608 1089 l 581 1055 l 423 1190 l 414 1190 l 252 1055 z "},"Ế":{"ha":781,"x_min":156,"x_max":745,"o":"m 156 0 l 156 1000 l 670 1000 l 670 959 l 199 959 l 199 533 l 604 533 l 604 492 l 199 492 l 199 41 l 670 41 l 670 0 l 156 0 m 575 1175 l 547 1206 l 712 1379 l 745 1347 l 575 1175 m 248 1047 l 221 1078 l 401 1225 l 427 1225 l 604 1078 l 576 1047 l 419 1177 l 410 1177 l 248 1047 z "},"Ệ":{"ha":781,"x_min":156,"x_max":670,"o":"m 156 0 l 156 1000 l 670 1000 l 670 959 l 199 959 l 199 533 l 604 533 l 604 492 l 199 492 l 199 41 l 670 41 l 670 0 l 156 0 m 419 -208 q 377 -191 394 -208 q 361 -149 361 -174 q 377 -107 361 -124 q 419 -91 394 -91 q 461 -107 444 -91 q 477 -149 477 -124 q 461 -191 477 -174 q 419 -208 444 -208 m 259 1055 l 232 1089 l 412 1232 l 438 1232 l 614 1089 l 587 1055 l 430 1190 l 420 1190 l 259 1055 z "},"Ề":{"ha":781,"x_min":83,"x_max":670,"o":"m 156 0 l 156 1000 l 670 1000 l 670 959 l 199 959 l 199 533 l 604 533 l 604 492 l 199 492 l 199 41 l 670 41 l 670 0 l 156 0 m 252 1175 l 83 1347 l 115 1379 l 281 1206 l 252 1175 m 579 1047 l 418 1177 l 408 1177 l 251 1047 l 224 1078 l 400 1225 l 426 1225 l 606 1078 l 579 1047 z "},"Ể":{"ha":781,"x_min":156,"x_max":670,"o":"m 156 0 l 156 1000 l 670 1000 l 670 959 l 199 959 l 199 533 l 604 533 l 604 492 l 199 492 l 199 41 l 670 41 l 670 0 l 156 0 m 560 1169 l 530 1195 q 566 1238 549 1213 q 582 1286 582 1263 q 564 1328 582 1312 q 514 1344 545 1344 q 478 1340 499 1344 q 442 1331 457 1337 l 442 1369 q 477 1378 457 1375 q 515 1382 496 1382 q 593 1357 564 1382 q 623 1289 623 1333 q 613 1245 623 1267 q 589 1202 603 1222 q 560 1169 574 1182 m 247 1047 l 220 1078 l 400 1225 l 426 1225 l 602 1078 l 575 1047 l 418 1177 l 408 1177 l 247 1047 z "},"Ễ":{"ha":781,"x_min":156,"x_max":670,"o":"m 156 0 l 156 1000 l 670 1000 l 670 959 l 199 959 l 199 533 l 604 533 l 604 492 l 199 492 l 199 41 l 670 41 l 670 0 l 156 0 m 227 1270 q 256 1358 227 1328 q 332 1388 286 1388 q 384 1376 363 1388 q 422 1349 406 1364 q 456 1322 439 1333 q 494 1310 473 1310 q 541 1330 524 1310 q 557 1388 557 1350 l 598 1388 q 586 1323 600 1350 q 547 1283 572 1297 q 492 1270 523 1270 q 444 1282 465 1270 q 405 1310 423 1294 q 369 1337 387 1325 q 328 1350 351 1350 q 286 1331 304 1350 q 267 1270 267 1312 l 227 1270 m 248 1047 l 221 1078 l 401 1225 l 427 1225 l 604 1078 l 576 1047 l 419 1177 l 410 1177 l 248 1047 z "},"Ȅ":{"ha":781,"x_min":156,"x_max":670,"o":"m 156 0 l 156 1000 l 670 1000 l 670 959 l 199 959 l 199 533 l 604 533 l 604 492 l 199 492 l 199 41 l 670 41 l 670 0 l 156 0 m 302 1086 l 172 1299 l 213 1322 l 331 1100 l 302 1086 m 486 1086 l 363 1299 l 404 1322 l 519 1100 l 486 1086 z "},"Ë":{"ha":781,"x_min":156,"x_max":670,"o":"m 156 0 l 156 1000 l 670 1000 l 670 959 l 199 959 l 199 533 l 604 533 l 604 492 l 199 492 l 199 41 l 670 41 l 670 0 l 156 0 m 545 1085 q 505 1102 522 1085 q 488 1142 488 1118 q 505 1182 488 1166 q 545 1199 522 1199 q 586 1182 569 1199 q 602 1142 602 1166 q 586 1102 602 1118 q 545 1085 569 1085 m 288 1085 q 247 1102 264 1085 q 231 1142 231 1118 q 247 1182 231 1166 q 288 1199 264 1199 q 328 1182 311 1199 q 345 1142 345 1166 q 328 1102 345 1118 q 288 1085 311 1085 z "},"Ė":{"ha":781,"x_min":156,"x_max":670,"o":"m 156 0 l 156 1000 l 670 1000 l 670 959 l 199 959 l 199 533 l 604 533 l 604 492 l 199 492 l 199 41 l 670 41 l 670 0 l 156 0 m 414 1081 q 372 1098 389 1081 q 355 1139 355 1114 q 372 1181 355 1164 q 414 1198 389 1198 q 455 1181 439 1198 q 472 1139 472 1164 q 455 1098 472 1114 q 414 1081 439 1081 z "},"Ẹ":{"ha":781,"x_min":156,"x_max":670,"o":"m 156 0 l 156 1000 l 670 1000 l 670 959 l 199 959 l 199 533 l 604 533 l 604 492 l 199 492 l 199 41 l 670 41 l 670 0 l 156 0 m 420 -208 q 379 -191 395 -208 q 362 -149 362 -174 q 379 -107 362 -124 q 420 -91 395 -91 q 462 -107 446 -91 q 479 -149 479 -124 q 462 -191 479 -174 q 420 -208 446 -208 z "},"È":{"ha":781,"x_min":156,"x_max":670,"o":"m 156 0 l 156 1000 l 670 1000 l 670 959 l 199 959 l 199 533 l 604 533 l 604 492 l 199 492 l 199 41 l 670 41 l 670 0 l 156 0 m 414 1055 l 235 1245 l 262 1275 l 442 1089 l 414 1055 z "},"Ẻ":{"ha":781,"x_min":156,"x_max":670,"o":"m 156 0 l 156 1000 l 670 1000 l 670 959 l 199 959 l 199 533 l 604 533 l 604 492 l 199 492 l 199 41 l 670 41 l 670 0 l 156 0 m 429 1097 l 404 1127 q 449 1164 430 1141 q 468 1214 468 1187 q 449 1257 468 1242 q 399 1272 431 1272 q 362 1269 380 1272 q 327 1259 343 1265 l 327 1299 q 365 1309 345 1307 q 397 1312 385 1312 q 476 1285 448 1312 q 503 1217 503 1259 q 483 1148 503 1181 q 429 1097 463 1115 z "},"Ȇ":{"ha":781,"x_min":156,"x_max":670,"o":"m 156 0 l 156 1000 l 670 1000 l 670 959 l 199 959 l 199 533 l 604 533 l 604 492 l 199 492 l 199 41 l 670 41 l 670 0 l 156 0 m 412 1222 q 508 1201 465 1222 q 575 1143 551 1179 q 598 1063 600 1107 l 560 1063 q 518 1148 560 1116 q 412 1181 477 1181 q 309 1148 351 1181 q 267 1063 267 1116 l 229 1063 q 254 1143 229 1107 q 319 1201 278 1179 q 412 1222 361 1222 z "},"Ē":{"ha":781,"x_min":156,"x_max":670,"o":"m 156 0 l 156 1000 l 670 1000 l 670 959 l 199 959 l 199 533 l 604 533 l 604 492 l 199 492 l 199 41 l 670 41 l 670 0 l 156 0 m 191 1122 l 191 1164 l 635 1164 l 635 1122 l 191 1122 z "},"Ḗ":{"ha":781,"x_min":156,"x_max":670,"o":"m 156 0 l 156 1000 l 670 1000 l 670 959 l 199 959 l 199 533 l 604 533 l 604 492 l 199 492 l 199 41 l 670 41 l 670 0 l 156 0 m 191 1122 l 191 1164 l 635 1164 l 635 1122 l 191 1122 m 414 1219 l 385 1253 l 566 1439 l 593 1409 l 414 1219 z "},"Ḕ":{"ha":781,"x_min":156,"x_max":670,"o":"m 156 0 l 156 1000 l 670 1000 l 670 959 l 199 959 l 199 533 l 604 533 l 604 492 l 199 492 l 199 41 l 670 41 l 670 0 l 156 0 m 191 1122 l 191 1164 l 635 1164 l 635 1122 l 191 1122 m 414 1219 l 235 1409 l 262 1439 l 442 1253 l 414 1219 z "},"Ę":{"ha":781,"x_min":156,"x_max":699,"o":"m 156 0 l 156 1000 l 670 1000 l 670 959 l 199 959 l 199 533 l 604 533 l 604 492 l 199 492 l 199 41 l 670 41 l 670 0 l 156 0 m 613 -264 q 550 -236 574 -264 q 525 -164 525 -208 q 562 -67 525 -110 q 639 16 598 -25 l 670 0 q 622 -55 647 -29 q 578 -108 596 -81 q 560 -164 560 -134 q 578 -209 560 -193 q 620 -225 597 -225 q 664 -215 644 -225 q 699 -194 684 -204 l 699 -236 q 660 -256 684 -248 q 613 -264 635 -264 z "},"Ẽ":{"ha":781,"x_min":156,"x_max":670,"o":"m 156 0 l 156 1000 l 670 1000 l 670 959 l 199 959 l 199 533 l 604 533 l 604 492 l 199 492 l 199 41 l 670 41 l 670 0 l 156 0 m 225 1084 q 257 1178 227 1142 q 331 1214 288 1214 q 384 1200 362 1214 q 423 1168 406 1186 q 457 1136 440 1149 q 495 1122 474 1122 q 542 1149 526 1122 q 559 1214 559 1177 l 598 1214 q 571 1120 600 1157 q 495 1084 542 1084 q 445 1097 467 1084 q 406 1128 424 1110 q 370 1159 388 1145 q 328 1172 351 1172 q 284 1148 302 1172 q 267 1084 267 1124 l 225 1084 z "},"Ə":{"ha":781,"x_min":57,"x_max":724,"o":"m 368 -11 q 202 51 271 -11 q 95 223 132 113 q 57 477 57 333 l 57 514 l 704 514 l 704 473 l 100 473 q 131 252 100 353 q 220 91 161 151 q 368 30 279 30 q 490 64 433 30 q 590 162 547 99 q 658 311 633 224 q 682 499 682 397 q 641 738 682 631 q 526 907 599 844 q 361 970 454 970 q 233 939 295 970 q 137 863 172 907 l 118 906 q 232 982 164 953 q 368 1010 300 1010 q 510 972 445 1010 q 623 865 575 934 q 698 704 671 796 q 724 503 724 612 q 697 300 724 394 q 622 137 671 207 q 509 28 574 67 q 368 -11 444 -11 z "},"F":{"ha":781,"x_min":172,"x_max":703,"o":"m 172 0 l 172 1000 l 703 1000 l 703 959 l 216 959 l 216 533 l 646 533 l 646 492 l 216 492 l 216 0 l 172 0 z "},"G":{"ha":781,"x_min":60,"x_max":708,"o":"m 452 -11 q 247 54 335 -11 q 109 234 159 119 q 60 500 60 349 q 110 767 60 652 q 250 946 160 882 q 457 1010 340 1010 q 591 981 522 1010 q 705 906 660 952 l 686 863 q 586 940 649 911 q 458 970 523 970 q 273 910 353 970 q 148 745 193 850 q 103 499 103 639 q 148 254 103 360 q 271 89 192 149 q 453 30 349 30 q 588 68 526 30 q 674 164 649 106 l 665 137 l 665 473 l 389 473 l 389 514 l 708 514 l 708 133 q 602 29 673 69 q 452 -11 530 -11 z "},"Ğ":{"ha":781,"x_min":60,"x_max":708,"o":"m 452 -11 q 247 54 335 -11 q 109 234 159 119 q 60 500 60 349 q 110 767 60 652 q 250 946 160 882 q 457 1010 340 1010 q 591 981 522 1010 q 705 906 660 952 l 686 863 q 586 940 649 911 q 458 970 523 970 q 273 910 353 970 q 148 745 193 850 q 103 499 103 639 q 148 254 103 360 q 271 89 192 149 q 453 30 349 30 q 588 68 526 30 q 674 164 649 106 l 665 137 l 665 473 l 389 473 l 389 514 l 708 514 l 708 133 q 602 29 673 69 q 452 -11 530 -11 m 434 1055 q 341 1077 382 1055 q 275 1134 300 1098 q 251 1214 251 1170 l 289 1214 q 331 1129 289 1162 q 434 1096 372 1096 q 540 1129 498 1096 q 582 1214 582 1162 l 620 1214 q 597 1134 621 1170 q 530 1077 572 1098 q 434 1055 487 1055 z "},"Ǧ":{"ha":781,"x_min":60,"x_max":708,"o":"m 452 -11 q 247 54 335 -11 q 109 234 159 119 q 60 500 60 349 q 110 767 60 652 q 250 946 160 882 q 457 1010 340 1010 q 591 981 522 1010 q 705 906 660 952 l 686 863 q 586 940 649 911 q 458 970 523 970 q 273 910 353 970 q 148 745 193 850 q 103 499 103 639 q 148 254 103 360 q 271 89 192 149 q 453 30 349 30 q 588 68 526 30 q 674 164 649 106 l 665 137 l 665 473 l 389 473 l 389 514 l 708 514 l 708 133 q 602 29 673 69 q 452 -11 530 -11 m 270 1221 l 431 1086 l 441 1086 l 598 1221 l 625 1187 l 449 1044 l 423 1044 l 243 1187 l 270 1221 z "},"Ĝ":{"ha":781,"x_min":60,"x_max":708,"o":"m 452 -11 q 247 54 335 -11 q 109 234 159 119 q 60 500 60 349 q 110 767 60 652 q 250 946 160 882 q 457 1010 340 1010 q 591 981 522 1010 q 705 906 660 952 l 686 863 q 586 940 649 911 q 458 970 523 970 q 273 910 353 970 q 148 745 193 850 q 103 499 103 639 q 148 254 103 360 q 271 89 192 149 q 453 30 349 30 q 588 68 526 30 q 674 164 649 106 l 665 137 l 665 473 l 389 473 l 389 514 l 708 514 l 708 133 q 602 29 673 69 q 452 -11 530 -11 m 273 1055 l 245 1089 l 426 1232 l 452 1232 l 628 1089 l 601 1055 l 444 1190 l 434 1190 l 273 1055 z "},"Ģ":{"ha":781,"x_min":60,"x_max":708,"o":"m 452 -11 q 247 54 335 -11 q 109 234 159 119 q 60 500 60 349 q 110 767 60 652 q 250 946 160 882 q 457 1010 340 1010 q 591 981 522 1010 q 705 906 660 952 l 686 863 q 586 940 649 911 q 458 970 523 970 q 273 910 353 970 q 148 745 193 850 q 103 499 103 639 q 148 254 103 360 q 271 89 192 149 q 453 30 349 30 q 588 68 526 30 q 674 164 649 106 l 665 137 l 665 473 l 389 473 l 389 514 l 708 514 l 708 133 q 602 29 673 69 q 452 -11 530 -11 m 400 -330 l 377 -308 l 422 -252 q 445 -222 436 -235 q 456 -199 453 -210 q 458 -178 460 -189 l 476 -175 q 464 -195 471 -187 q 446 -202 456 -202 q 415 -187 430 -202 q 400 -149 400 -172 q 415 -114 400 -127 q 446 -100 430 -100 q 483 -117 470 -100 q 495 -160 495 -134 q 487 -202 495 -181 q 467 -241 478 -224 q 449 -269 456 -259 l 400 -330 z "},"Ġ":{"ha":781,"x_min":60,"x_max":708,"o":"m 452 -11 q 247 54 335 -11 q 109 234 159 119 q 60 500 60 349 q 110 767 60 652 q 250 946 160 882 q 457 1010 340 1010 q 591 981 522 1010 q 705 906 660 952 l 686 863 q 586 940 649 911 q 458 970 523 970 q 273 910 353 970 q 148 745 193 850 q 103 499 103 639 q 148 254 103 360 q 271 89 192 149 q 453 30 349 30 q 588 68 526 30 q 674 164 649 106 l 665 137 l 665 473 l 389 473 l 389 514 l 708 514 l 708 133 q 602 29 673 69 q 452 -11 530 -11 m 434 1081 q 392 1098 409 1081 q 376 1139 376 1114 q 392 1181 376 1164 q 434 1198 409 1198 q 476 1181 459 1198 q 492 1139 492 1164 q 476 1098 492 1114 q 434 1081 459 1081 z "},"Ḡ":{"ha":781,"x_min":60,"x_max":708,"o":"m 452 -11 q 247 54 335 -11 q 109 234 159 119 q 60 500 60 349 q 110 767 60 652 q 250 946 160 882 q 457 1010 340 1010 q 591 981 522 1010 q 705 906 660 952 l 686 863 q 586 940 649 911 q 458 970 523 970 q 273 910 353 970 q 148 745 193 850 q 103 499 103 639 q 148 254 103 360 q 271 89 192 149 q 453 30 349 30 q 588 68 526 30 q 674 164 649 106 l 665 137 l 665 473 l 389 473 l 389 514 l 708 514 l 708 133 q 602 29 673 69 q 452 -11 530 -11 m 212 1122 l 212 1164 l 655 1164 l 655 1122 l 212 1122 z "},"H":{"ha":781,"x_min":109,"x_max":673,"o":"m 109 0 l 109 1000 l 152 1000 l 152 533 l 629 533 l 629 1000 l 673 1000 l 673 0 l 629 0 l 629 492 l 152 492 l 152 0 l 109 0 z "},"Ħ":{"ha":781,"x_min":41,"x_max":735,"o":"m 41 718 l 41 755 l 735 755 l 735 718 l 41 718 m 109 0 l 109 1000 l 152 1000 l 152 533 l 629 533 l 629 1000 l 673 1000 l 673 0 l 629 0 l 629 492 l 152 492 l 152 0 l 109 0 z "},"Ḫ":{"ha":781,"x_min":109,"x_max":673,"o":"m 109 0 l 109 1000 l 152 1000 l 152 533 l 629 533 l 629 1000 l 673 1000 l 673 0 l 629 0 l 629 492 l 152 492 l 152 0 l 109 0 m 388 -270 q 294 -245 336 -270 q 227 -177 252 -220 q 202 -80 202 -134 l 240 -80 q 283 -187 240 -144 q 388 -231 326 -231 q 493 -187 450 -231 q 536 -80 536 -144 l 574 -80 q 549 -177 574 -134 q 481 -245 524 -220 q 388 -270 439 -270 z "},"Ĥ":{"ha":781,"x_min":109,"x_max":673,"o":"m 109 0 l 109 1000 l 152 1000 l 152 533 l 629 533 l 629 1000 l 673 1000 l 673 0 l 629 0 l 629 492 l 152 492 l 152 0 l 109 0 m 227 1055 l 199 1089 l 380 1232 l 406 1232 l 582 1089 l 555 1055 l 397 1190 l 388 1190 l 227 1055 z "},"Ḥ":{"ha":781,"x_min":109,"x_max":673,"o":"m 109 0 l 109 1000 l 152 1000 l 152 533 l 629 533 l 629 1000 l 673 1000 l 673 0 l 629 0 l 629 492 l 152 492 l 152 0 l 109 0 m 388 -208 q 346 -191 363 -208 q 330 -149 330 -174 q 346 -107 330 -124 q 388 -91 363 -91 q 430 -107 413 -91 q 446 -149 446 -124 q 430 -191 446 -174 q 388 -208 413 -208 z "},"I":{"ha":781,"x_min":125,"x_max":656,"o":"m 369 0 l 369 1000 l 412 1000 l 412 0 l 369 0 m 125 0 l 125 41 l 656 41 l 656 0 l 125 0 m 125 960 l 125 1000 l 656 1000 l 656 960 l 125 960 z "},"Í":{"ha":781,"x_min":125,"x_max":656,"o":"m 369 0 l 369 1000 l 412 1000 l 412 0 l 369 0 m 125 0 l 125 41 l 656 41 l 656 0 l 125 0 m 125 960 l 125 1000 l 656 1000 l 656 960 l 125 960 m 387 1055 l 358 1089 l 538 1275 l 566 1245 l 387 1055 z "},"Ĭ":{"ha":781,"x_min":125,"x_max":656,"o":"m 369 0 l 369 1000 l 412 1000 l 412 0 l 369 0 m 125 0 l 125 41 l 656 41 l 656 0 l 125 0 m 125 960 l 125 1000 l 656 1000 l 656 960 l 125 960 m 387 1055 q 294 1077 335 1055 q 228 1134 252 1098 q 203 1214 203 1170 l 241 1214 q 283 1129 241 1162 q 387 1096 325 1096 q 493 1129 451 1096 q 534 1214 534 1162 l 572 1214 q 549 1134 574 1170 q 482 1077 525 1098 q 387 1055 439 1055 z "},"Ǐ":{"ha":781,"x_min":125,"x_max":656,"o":"m 369 0 l 369 1000 l 412 1000 l 412 0 l 369 0 m 125 0 l 125 41 l 656 41 l 656 0 l 125 0 m 125 960 l 125 1000 l 656 1000 l 656 960 l 125 960 m 222 1221 l 384 1086 l 393 1086 l 551 1221 l 578 1187 l 401 1044 l 376 1044 l 195 1187 l 222 1221 z "},"Î":{"ha":781,"x_min":125,"x_max":656,"o":"m 369 0 l 369 1000 l 412 1000 l 412 0 l 369 0 m 125 0 l 125 41 l 656 41 l 656 0 l 125 0 m 125 960 l 125 1000 l 656 1000 l 656 960 l 125 960 m 225 1055 l 198 1089 l 378 1232 l 404 1232 l 581 1089 l 553 1055 l 396 1190 l 387 1190 l 225 1055 z "},"Ȉ":{"ha":781,"x_min":125,"x_max":656,"o":"m 369 0 l 369 1000 l 412 1000 l 412 0 l 369 0 m 125 0 l 125 41 l 656 41 l 656 0 l 125 0 m 125 960 l 125 1000 l 656 1000 l 656 960 l 125 960 m 275 1086 l 145 1299 l 186 1322 l 304 1100 l 275 1086 m 458 1086 l 336 1299 l 377 1322 l 492 1100 l 458 1086 z "},"Ï":{"ha":781,"x_min":125,"x_max":656,"o":"m 369 0 l 369 1000 l 412 1000 l 412 0 l 369 0 m 125 0 l 125 41 l 656 41 l 656 0 l 125 0 m 125 960 l 125 1000 l 656 1000 l 656 960 l 125 960 m 518 1085 q 478 1102 494 1085 q 461 1142 461 1118 q 478 1182 461 1166 q 518 1199 494 1199 q 558 1182 542 1199 q 575 1142 575 1166 q 558 1102 575 1118 q 518 1085 542 1085 m 260 1085 q 220 1102 237 1085 q 203 1142 203 1118 q 220 1182 203 1166 q 260 1199 237 1199 q 301 1182 284 1199 q 317 1142 317 1166 q 301 1102 317 1118 q 260 1085 284 1085 z "},"Ḯ":{"ha":781,"x_min":125,"x_max":656,"o":"m 369 0 l 369 1000 l 412 1000 l 412 0 l 369 0 m 125 0 l 125 41 l 656 41 l 656 0 l 125 0 m 125 960 l 125 1000 l 656 1000 l 656 960 l 125 960 m 518 1085 q 478 1102 494 1085 q 461 1142 461 1118 q 478 1182 461 1166 q 518 1199 494 1199 q 558 1182 542 1199 q 575 1142 575 1166 q 558 1102 575 1118 q 518 1085 542 1085 m 260 1085 q 220 1102 237 1085 q 203 1142 203 1118 q 220 1182 203 1166 q 260 1199 237 1199 q 301 1182 284 1199 q 317 1142 317 1166 q 301 1102 317 1118 q 260 1085 284 1085 m 387 1203 l 358 1237 l 538 1423 l 566 1393 l 387 1203 z "},"İ":{"ha":781,"x_min":125,"x_max":656,"o":"m 369 0 l 369 1000 l 412 1000 l 412 0 l 369 0 m 125 0 l 125 41 l 656 41 l 656 0 l 125 0 m 125 960 l 125 1000 l 656 1000 l 656 960 l 125 960 m 387 1081 q 345 1098 361 1081 q 328 1139 328 1114 q 345 1181 328 1164 q 387 1198 361 1198 q 428 1181 412 1198 q 445 1139 445 1164 q 428 1098 445 1114 q 387 1081 412 1081 z "},"Ị":{"ha":781,"x_min":125,"x_max":656,"o":"m 369 0 l 369 1000 l 412 1000 l 412 0 l 369 0 m 125 0 l 125 41 l 656 41 l 656 0 l 125 0 m 125 960 l 125 1000 l 656 1000 l 656 960 l 125 960 m 387 -208 q 345 -191 361 -208 q 328 -149 328 -174 q 345 -107 328 -124 q 387 -91 361 -91 q 428 -107 412 -91 q 445 -149 445 -124 q 428 -191 445 -174 q 387 -208 412 -208 z "},"Ì":{"ha":781,"x_min":125,"x_max":656,"o":"m 369 0 l 369 1000 l 412 1000 l 412 0 l 369 0 m 125 0 l 125 41 l 656 41 l 656 0 l 125 0 m 125 960 l 125 1000 l 656 1000 l 656 960 l 125 960 m 387 1055 l 208 1245 l 235 1275 l 415 1089 l 387 1055 z "},"Ỉ":{"ha":781,"x_min":125,"x_max":656,"o":"m 369 0 l 369 1000 l 412 1000 l 412 0 l 369 0 m 125 0 l 125 41 l 656 41 l 656 0 l 125 0 m 125 960 l 125 1000 l 656 1000 l 656 960 l 125 960 m 401 1097 l 377 1127 q 422 1164 403 1141 q 441 1214 441 1187 q 422 1257 441 1242 q 372 1272 404 1272 q 335 1269 353 1272 q 300 1259 316 1265 l 300 1299 q 337 1309 317 1307 q 370 1312 357 1312 q 449 1285 421 1312 q 476 1217 476 1259 q 456 1148 476 1181 q 401 1097 435 1115 z "},"Ȋ":{"ha":781,"x_min":125,"x_max":656,"o":"m 369 0 l 369 1000 l 412 1000 l 412 0 l 369 0 m 125 0 l 125 41 l 656 41 l 656 0 l 125 0 m 125 960 l 125 1000 l 656 1000 l 656 960 l 125 960 m 385 1222 q 481 1201 438 1222 q 548 1143 524 1179 q 571 1063 572 1107 l 533 1063 q 491 1148 533 1116 q 385 1181 450 1181 q 282 1148 323 1181 q 240 1063 240 1116 l 202 1063 q 227 1143 202 1107 q 292 1201 251 1179 q 385 1222 334 1222 z "},"Ī":{"ha":781,"x_min":125,"x_max":656,"o":"m 369 0 l 369 1000 l 412 1000 l 412 0 l 369 0 m 125 0 l 125 41 l 656 41 l 656 0 l 125 0 m 125 960 l 125 1000 l 656 1000 l 656 960 l 125 960 m 191 1122 l 191 1164 l 582 1164 l 582 1122 l 191 1122 z "},"Į":{"ha":781,"x_min":125,"x_max":685,"o":"m 369 0 l 369 1000 l 412 1000 l 412 0 l 369 0 m 125 0 l 125 41 l 656 41 l 656 0 l 125 0 m 125 960 l 125 1000 l 656 1000 l 656 960 l 125 960 m 600 -264 q 536 -236 561 -264 q 511 -164 511 -208 q 548 -67 511 -110 q 625 16 585 -25 l 656 0 q 608 -55 633 -29 q 565 -108 583 -81 q 547 -164 547 -134 q 565 -209 547 -193 q 606 -225 583 -225 q 650 -215 630 -225 q 685 -194 671 -204 l 685 -236 q 646 -256 671 -248 q 600 -264 622 -264 z "},"Ĩ":{"ha":781,"x_min":125,"x_max":656,"o":"m 369 0 l 369 1000 l 412 1000 l 412 0 l 369 0 m 125 0 l 125 41 l 656 41 l 656 0 l 125 0 m 125 960 l 125 1000 l 656 1000 l 656 960 l 125 960 m 198 1084 q 230 1178 200 1142 q 304 1214 260 1214 q 357 1200 335 1214 q 396 1168 378 1186 q 430 1136 413 1149 q 468 1122 447 1122 q 515 1149 498 1122 q 532 1214 532 1177 l 571 1214 q 544 1120 572 1157 q 468 1084 515 1084 q 418 1097 439 1084 q 379 1128 397 1110 q 342 1159 361 1145 q 301 1172 324 1172 q 257 1148 275 1172 q 240 1084 240 1124 l 198 1084 z "},"J":{"ha":781,"x_min":58,"x_max":587,"o":"m 317 -11 q 181 22 239 -11 q 92 110 123 54 q 58 235 60 165 l 100 235 q 161 86 102 143 q 317 30 221 30 q 430 56 378 30 q 513 140 481 82 q 544 292 544 197 l 544 1000 l 587 1000 l 587 294 q 551 122 587 189 q 453 22 515 54 q 317 -11 392 -11 z "},"Ĵ":{"ha":781,"x_min":58,"x_max":747,"o":"m 317 -11 q 181 22 239 -11 q 92 110 123 54 q 58 235 60 165 l 100 235 q 161 86 102 143 q 317 30 221 30 q 430 56 378 30 q 513 140 481 82 q 544 292 544 197 l 544 1000 l 587 1000 l 587 294 q 551 122 587 189 q 453 22 515 54 q 317 -11 392 -11 m 392 1055 l 365 1089 l 545 1232 l 571 1232 l 747 1089 l 720 1055 l 563 1190 l 553 1190 l 392 1055 z "},"K":{"ha":781,"x_min":140,"x_max":727,"o":"m 140 0 l 140 1000 l 183 1000 l 183 519 l 206 519 l 180 503 l 635 1000 l 696 1000 l 221 486 l 221 517 l 727 0 l 666 0 l 180 498 l 206 480 l 183 480 l 183 0 l 140 0 z "},"Ķ":{"ha":781,"x_min":140,"x_max":727,"o":"m 140 0 l 140 1000 l 183 1000 l 183 519 l 206 519 l 180 503 l 635 1000 l 696 1000 l 221 486 l 221 517 l 727 0 l 666 0 l 180 498 l 206 480 l 183 480 l 183 0 l 140 0 m 372 -330 l 349 -308 l 393 -252 q 416 -222 408 -235 q 428 -199 425 -210 q 430 -178 431 -189 l 448 -175 q 435 -195 443 -187 q 418 -202 428 -202 q 387 -187 401 -202 q 372 -149 372 -172 q 387 -114 372 -127 q 418 -100 401 -100 q 454 -117 441 -100 q 467 -160 467 -134 q 458 -202 467 -181 q 439 -241 450 -224 q 420 -269 428 -259 l 372 -330 z "},"L":{"ha":781,"x_min":176,"x_max":705,"o":"m 176 0 l 176 1000 l 220 1000 l 220 41 l 705 41 l 705 0 l 176 0 z "},"Ǉ":{"ha":781,"x_min":90,"x_max":724,"o":"m 566 -11 q 448 52 489 -11 q 406 235 407 115 l 449 235 q 480 82 450 135 q 566 30 510 30 q 651 85 621 30 q 681 247 681 141 l 681 1000 l 724 1000 l 724 250 q 684 56 724 123 q 566 -11 643 -11 m 90 0 l 90 1000 l 133 1000 l 133 41 l 353 41 l 353 0 l 90 0 z "},"Ĺ":{"ha":781,"x_min":170,"x_max":705,"o":"m 176 0 l 176 1000 l 220 1000 l 220 41 l 705 41 l 705 0 l 176 0 m 198 1055 l 170 1089 l 350 1275 l 377 1245 l 198 1055 z "},"Ľ":{"ha":781,"x_min":176,"x_max":705,"o":"m 176 0 l 176 1000 l 220 1000 l 220 41 l 705 41 l 705 0 l 176 0 m 628 724 l 629 1000 l 666 1000 l 661 724 l 628 724 z "},"Ļ":{"ha":781,"x_min":176,"x_max":705,"o":"m 176 0 l 176 1000 l 220 1000 l 220 41 l 705 41 l 705 0 l 176 0 m 425 -330 l 401 -308 l 446 -252 q 469 -222 460 -235 q 481 -199 477 -210 q 483 -178 484 -189 l 500 -175 q 488 -195 496 -187 q 471 -202 481 -202 q 439 -187 454 -202 q 425 -149 425 -172 q 439 -114 425 -127 q 471 -100 454 -100 q 507 -117 494 -100 q 519 -160 519 -134 q 511 -202 519 -181 q 492 -241 503 -224 q 473 -269 481 -259 l 425 -330 z "},"Ŀ":{"ha":781,"x_min":176,"x_max":705,"o":"m 176 0 l 176 1000 l 220 1000 l 220 41 l 705 41 l 705 0 l 176 0 m 590 457 q 543 476 563 457 q 524 524 524 495 q 543 571 524 551 q 590 590 562 590 q 637 571 618 590 q 656 524 656 551 q 637 476 656 495 q 590 457 618 457 z "},"Ḷ":{"ha":781,"x_min":176,"x_max":705,"o":"m 176 0 l 176 1000 l 220 1000 l 220 41 l 705 41 l 705 0 l 176 0 m 460 -208 q 418 -191 435 -208 q 401 -149 401 -174 q 418 -107 401 -124 q 460 -91 435 -91 q 502 -107 485 -91 q 518 -149 518 -124 q 502 -191 518 -174 q 460 -208 485 -208 z "},"ǈ":{"ha":781,"x_min":117,"x_max":686,"o":"m 484 -296 q 400 -281 444 -296 q 328 -244 356 -267 l 345 -206 q 413 -243 374 -229 q 487 -258 452 -258 q 573 -223 538 -258 q 608 -115 608 -189 l 608 711 l 648 711 l 648 -111 q 627 -215 648 -174 q 568 -276 605 -256 q 484 -296 530 -296 m 117 0 l 117 1000 l 160 1000 l 160 41 l 407 41 l 407 0 l 117 0 m 418 673 l 418 711 l 648 711 l 648 673 l 418 673 m 628 853 q 586 870 603 853 q 570 911 570 886 q 586 954 570 937 q 628 970 603 970 q 670 954 654 970 q 686 911 686 937 q 670 870 686 886 q 628 853 654 853 z "},"Ḻ":{"ha":781,"x_min":176,"x_max":705,"o":"m 176 0 l 176 1000 l 220 1000 l 220 41 l 705 41 l 705 0 l 176 0 m 258 -256 l 258 -217 l 662 -217 l 662 -256 l 258 -256 z "},"Ł":{"ha":781,"x_min":64,"x_max":705,"o":"m 79 411 l 64 446 l 194 522 l 212 528 l 324 597 l 339 562 l 212 484 l 194 479 l 79 411 m 176 0 l 176 1000 l 220 1000 l 220 41 l 705 41 l 705 0 l 176 0 z "},"M":{"ha":781,"x_min":91,"x_max":688,"o":"m 91 0 l 91 1000 l 140 1000 l 387 392 l 392 392 l 639 1000 l 688 1000 l 688 0 l 644 0 l 644 753 l 644 890 l 639 890 l 400 305 l 378 305 l 140 890 l 134 890 l 134 753 l 134 0 l 91 0 z "},"Ṃ":{"ha":781,"x_min":91,"x_max":688,"o":"m 91 0 l 91 1000 l 140 1000 l 387 392 l 392 392 l 639 1000 l 688 1000 l 688 0 l 644 0 l 644 753 l 644 890 l 639 890 l 400 305 l 378 305 l 140 890 l 134 890 l 134 753 l 134 0 l 91 0 m 388 -208 q 346 -191 363 -208 q 330 -149 330 -174 q 346 -107 330 -124 q 388 -91 363 -91 q 430 -107 413 -91 q 446 -149 446 -124 q 430 -191 446 -174 q 388 -208 413 -208 z "},"N":{"ha":781,"x_min":109,"x_max":673,"o":"m 109 0 l 109 1000 l 151 1000 l 533 277 l 627 100 l 629 100 l 629 355 l 629 1000 l 673 1000 l 673 0 l 633 0 l 247 731 l 155 903 l 152 903 l 152 659 l 152 0 l 109 0 z "},"Ǌ":{"ha":781,"x_min":35,"x_max":738,"o":"m 35 0 l 35 1000 l 71 1000 l 271 328 l 316 163 l 319 163 l 319 389 l 319 1000 l 362 1000 l 362 0 l 328 0 l 125 678 l 80 841 l 77 841 l 79 623 l 79 0 l 35 0 m 583 -11 q 475 50 515 -11 q 433 235 435 110 l 476 235 q 506 82 477 135 q 585 30 535 30 q 665 85 635 30 q 694 247 694 140 l 694 1000 l 738 1000 l 738 250 q 698 56 738 123 q 583 -11 658 -11 z "},"Ń":{"ha":781,"x_min":109,"x_max":673,"o":"m 109 0 l 109 1000 l 151 1000 l 533 277 l 627 100 l 629 100 l 629 355 l 629 1000 l 673 1000 l 673 0 l 633 0 l 247 731 l 155 903 l 152 903 l 152 659 l 152 0 l 109 0 m 391 1055 l 362 1089 l 543 1275 l 570 1245 l 391 1055 z "},"Ň":{"ha":781,"x_min":109,"x_max":673,"o":"m 109 0 l 109 1000 l 151 1000 l 533 277 l 627 100 l 629 100 l 629 355 l 629 1000 l 673 1000 l 673 0 l 633 0 l 247 731 l 155 903 l 152 903 l 152 659 l 152 0 l 109 0 m 227 1221 l 388 1086 l 397 1086 l 555 1221 l 582 1187 l 406 1044 l 380 1044 l 199 1187 l 227 1221 z "},"Ņ":{"ha":781,"x_min":109,"x_max":673,"o":"m 109 0 l 109 1000 l 151 1000 l 533 277 l 627 100 l 629 100 l 629 355 l 629 1000 l 673 1000 l 673 0 l 633 0 l 247 731 l 155 903 l 152 903 l 152 659 l 152 0 l 109 0 m 346 -330 l 323 -308 l 368 -252 q 390 -222 382 -235 q 402 -199 399 -210 q 404 -178 406 -189 l 422 -175 q 410 -195 417 -187 q 392 -202 402 -202 q 361 -187 376 -202 q 346 -149 346 -172 q 361 -114 346 -127 q 392 -100 376 -100 q 428 -117 416 -100 q 441 -160 441 -134 q 432 -202 441 -181 q 413 -241 424 -224 q 395 -269 402 -259 l 346 -330 z "},"Ṅ":{"ha":781,"x_min":109,"x_max":673,"o":"m 109 0 l 109 1000 l 151 1000 l 533 277 l 627 100 l 629 100 l 629 355 l 629 1000 l 673 1000 l 673 0 l 633 0 l 247 731 l 155 903 l 152 903 l 152 659 l 152 0 l 109 0 m 391 1081 q 349 1098 366 1081 q 332 1139 332 1114 q 349 1181 332 1164 q 391 1198 366 1198 q 432 1181 416 1198 q 449 1139 449 1164 q 432 1098 449 1114 q 391 1081 416 1081 z "},"Ṇ":{"ha":781,"x_min":109,"x_max":673,"o":"m 109 0 l 109 1000 l 151 1000 l 533 277 l 627 100 l 629 100 l 629 355 l 629 1000 l 673 1000 l 673 0 l 633 0 l 247 731 l 155 903 l 152 903 l 152 659 l 152 0 l 109 0 m 381 -208 q 339 -191 356 -208 q 323 -149 323 -174 q 339 -107 323 -124 q 381 -91 356 -91 q 423 -107 406 -91 q 439 -149 439 -124 q 423 -191 439 -174 q 381 -208 406 -208 z "},"ǋ":{"ha":781,"x_min":106,"x_max":716,"o":"m 106 0 l 106 1000 l 149 1000 l 382 316 l 445 136 l 448 136 l 448 376 l 448 1000 l 490 1000 l 490 0 l 448 0 l 212 690 l 149 871 l 146 871 l 148 637 l 148 0 l 106 0 m 521 -296 q 439 -281 482 -296 q 369 -244 395 -267 l 385 -206 q 452 -243 414 -229 q 522 -258 490 -258 q 605 -223 571 -258 q 639 -115 639 -189 l 639 711 l 680 711 l 680 -111 q 658 -215 680 -174 q 601 -276 637 -256 q 521 -296 565 -296 m 659 853 q 618 870 635 853 q 602 911 602 886 q 618 954 602 937 q 659 970 635 970 q 700 954 684 970 q 716 911 716 937 q 700 870 716 886 q 659 853 684 853 z "},"Ṉ":{"ha":781,"x_min":109,"x_max":673,"o":"m 109 0 l 109 1000 l 151 1000 l 533 277 l 627 100 l 629 100 l 629 355 l 629 1000 l 673 1000 l 673 0 l 633 0 l 247 731 l 155 903 l 152 903 l 152 659 l 152 0 l 109 0 m 179 -256 l 179 -217 l 583 -217 l 583 -256 l 179 -256 z "},"Ñ":{"ha":781,"x_min":109,"x_max":673,"o":"m 109 0 l 109 1000 l 151 1000 l 533 277 l 627 100 l 629 100 l 629 355 l 629 1000 l 673 1000 l 673 0 l 633 0 l 247 731 l 155 903 l 152 903 l 152 659 l 152 0 l 109 0 m 202 1084 q 234 1178 204 1142 q 308 1214 264 1214 q 361 1200 339 1214 q 400 1168 382 1186 q 434 1136 417 1149 q 472 1122 451 1122 q 519 1149 503 1122 q 536 1214 536 1177 l 575 1214 q 548 1120 576 1157 q 472 1084 519 1084 q 422 1097 444 1084 q 383 1128 401 1110 q 347 1159 365 1145 q 305 1172 328 1172 q 261 1148 279 1172 q 244 1084 244 1124 l 202 1084 z "},"Ŋ":{"ha":781,"x_min":109,"x_max":673,"o":"m 109 0 l 109 1000 l 151 1000 l 533 277 l 627 100 l 629 100 l 629 355 l 629 1000 l 673 1000 l 673 0 l 633 0 l 247 731 l 155 903 l 152 903 l 152 659 l 152 0 l 109 0 m 530 -297 q 488 -291 513 -297 q 438 -273 462 -286 l 438 -229 q 487 -251 468 -248 q 526 -256 506 -255 q 586 -236 564 -258 q 618 -178 608 -214 q 628 -103 628 -142 l 628 41 l 671 41 l 671 -95 q 654 -202 671 -157 q 606 -272 637 -248 q 530 -297 574 -297 z "},"O":{"ha":781,"x_min":52,"x_max":730,"o":"m 388 -11 q 210 53 286 -11 q 93 232 134 117 q 52 500 52 347 q 93 769 52 654 q 210 947 134 884 q 388 1010 286 1010 q 569 947 492 1010 q 688 768 646 883 q 730 500 730 654 q 688 232 730 347 q 569 53 646 117 q 388 -11 492 -11 m 388 30 q 546 89 479 30 q 650 254 613 148 q 686 500 686 359 q 650 747 686 642 q 546 911 613 852 q 388 970 479 970 q 233 911 298 970 q 131 747 167 852 q 95 500 95 641 q 131 254 95 359 q 233 89 167 148 q 388 30 298 30 z "},"Ó":{"ha":781,"x_min":52,"x_max":730,"o":"m 388 -11 q 210 53 286 -11 q 93 232 134 117 q 52 500 52 347 q 93 769 52 654 q 210 947 134 884 q 388 1010 286 1010 q 569 947 492 1010 q 688 768 646 883 q 730 500 730 654 q 688 232 730 347 q 569 53 646 117 q 388 -11 492 -11 m 388 30 q 546 89 479 30 q 650 254 613 148 q 686 500 686 359 q 650 747 686 642 q 546 911 613 852 q 388 970 479 970 q 233 911 298 970 q 131 747 167 852 q 95 500 95 641 q 131 254 95 359 q 233 89 167 148 q 388 30 298 30 m 388 1055 l 359 1089 l 540 1275 l 567 1245 l 388 1055 z "},"Ŏ":{"ha":781,"x_min":52,"x_max":730,"o":"m 388 -11 q 210 53 286 -11 q 93 232 134 117 q 52 500 52 347 q 93 769 52 654 q 210 947 134 884 q 388 1010 286 1010 q 569 947 492 1010 q 688 768 646 883 q 730 500 730 654 q 688 232 730 347 q 569 53 646 117 q 388 -11 492 -11 m 388 30 q 546 89 479 30 q 650 254 613 148 q 686 500 686 359 q 650 747 686 642 q 546 911 613 852 q 388 970 479 970 q 233 911 298 970 q 131 747 167 852 q 95 500 95 641 q 131 254 95 359 q 233 89 167 148 q 388 30 298 30 m 388 1055 q 295 1077 336 1055 q 229 1134 254 1098 q 205 1214 205 1170 l 243 1214 q 284 1129 243 1162 q 388 1096 326 1096 q 494 1129 452 1096 q 536 1214 536 1162 l 574 1214 q 551 1134 575 1170 q 484 1077 526 1098 q 388 1055 441 1055 z "},"Ô":{"ha":781,"x_min":52,"x_max":730,"o":"m 388 -11 q 210 53 286 -11 q 93 232 134 117 q 52 500 52 347 q 93 769 52 654 q 210 947 134 884 q 388 1010 286 1010 q 569 947 492 1010 q 688 768 646 883 q 730 500 730 654 q 688 232 730 347 q 569 53 646 117 q 388 -11 492 -11 m 388 30 q 546 89 479 30 q 650 254 613 148 q 686 500 686 359 q 650 747 686 642 q 546 911 613 852 q 388 970 479 970 q 233 911 298 970 q 131 747 167 852 q 95 500 95 641 q 131 254 95 359 q 233 89 167 148 q 388 30 298 30 m 227 1055 l 199 1089 l 380 1232 l 406 1232 l 582 1089 l 555 1055 l 397 1190 l 388 1190 l 227 1055 z "},"Ố":{"ha":781,"x_min":52,"x_max":730,"o":"m 388 -11 q 210 53 286 -11 q 93 232 134 117 q 52 500 52 347 q 93 769 52 654 q 210 947 134 884 q 388 1010 286 1010 q 569 947 492 1010 q 688 768 646 883 q 730 500 730 654 q 688 232 730 347 q 569 53 646 117 q 388 -11 492 -11 m 388 30 q 546 89 479 30 q 650 254 613 148 q 686 500 686 359 q 650 747 686 642 q 546 911 613 852 q 388 970 479 970 q 233 911 298 970 q 131 747 167 852 q 95 500 95 641 q 131 254 95 359 q 233 89 167 148 q 388 30 298 30 m 549 1175 l 521 1206 l 686 1379 l 719 1347 l 549 1175 m 222 1047 l 195 1078 l 376 1225 l 401 1225 l 578 1078 l 551 1047 l 393 1177 l 384 1177 l 222 1047 z "},"Ộ":{"ha":781,"x_min":52,"x_max":730,"o":"m 388 -11 q 210 53 286 -11 q 93 232 134 117 q 52 500 52 347 q 93 769 52 654 q 210 947 134 884 q 388 1010 286 1010 q 569 947 492 1010 q 688 768 646 883 q 730 500 730 654 q 688 232 730 347 q 569 53 646 117 q 388 -11 492 -11 m 388 30 q 546 89 479 30 q 650 254 613 148 q 686 500 686 359 q 650 747 686 642 q 546 911 613 852 q 388 970 479 970 q 233 911 298 970 q 131 747 167 852 q 95 500 95 641 q 131 254 95 359 q 233 89 167 148 q 388 30 298 30 m 387 -208 q 345 -191 361 -208 q 328 -149 328 -174 q 345 -107 328 -124 q 387 -91 361 -91 q 428 -107 412 -91 q 445 -149 445 -124 q 428 -191 445 -174 q 387 -208 412 -208 m 227 1055 l 199 1089 l 380 1232 l 406 1232 l 582 1089 l 555 1055 l 397 1190 l 388 1190 l 227 1055 z "},"Ồ":{"ha":781,"x_min":52,"x_max":730,"o":"m 388 -11 q 210 53 286 -11 q 93 232 134 117 q 52 500 52 347 q 93 769 52 654 q 210 947 134 884 q 388 1010 286 1010 q 569 947 492 1010 q 688 768 646 883 q 730 500 730 654 q 688 232 730 347 q 569 53 646 117 q 388 -11 492 -11 m 388 30 q 546 89 479 30 q 650 254 613 148 q 686 500 686 359 q 650 747 686 642 q 546 911 613 852 q 388 970 479 970 q 233 911 298 970 q 131 747 167 852 q 95 500 95 641 q 131 254 95 359 q 233 89 167 148 q 388 30 298 30 m 227 1175 l 57 1347 l 90 1379 l 255 1206 l 227 1175 m 553 1047 l 392 1177 l 382 1177 l 225 1047 l 198 1078 l 374 1225 l 400 1225 l 581 1078 l 553 1047 z "},"Ổ":{"ha":781,"x_min":52,"x_max":730,"o":"m 388 -11 q 210 53 286 -11 q 93 232 134 117 q 52 500 52 347 q 93 769 52 654 q 210 947 134 884 q 388 1010 286 1010 q 569 947 492 1010 q 688 768 646 883 q 730 500 730 654 q 688 232 730 347 q 569 53 646 117 q 388 -11 492 -11 m 388 30 q 546 89 479 30 q 650 254 613 148 q 686 500 686 359 q 650 747 686 642 q 546 911 613 852 q 388 970 479 970 q 233 911 298 970 q 131 747 167 852 q 95 500 95 641 q 131 254 95 359 q 233 89 167 148 q 388 30 298 30 m 534 1169 l 505 1195 q 540 1238 524 1213 q 556 1286 556 1263 q 538 1328 556 1312 q 488 1344 519 1344 q 452 1340 473 1344 q 416 1331 431 1337 l 416 1369 q 451 1378 431 1375 q 490 1382 471 1382 q 567 1357 538 1382 q 597 1289 597 1333 q 587 1245 597 1267 q 563 1202 577 1222 q 534 1169 549 1182 m 221 1047 l 194 1078 l 374 1225 l 400 1225 l 576 1078 l 549 1047 l 392 1177 l 382 1177 l 221 1047 z "},"Ỗ":{"ha":781,"x_min":52,"x_max":730,"o":"m 388 -11 q 210 53 286 -11 q 93 232 134 117 q 52 500 52 347 q 93 769 52 654 q 210 947 134 884 q 388 1010 286 1010 q 569 947 492 1010 q 688 768 646 883 q 730 500 730 654 q 688 232 730 347 q 569 53 646 117 q 388 -11 492 -11 m 388 30 q 546 89 479 30 q 650 254 613 148 q 686 500 686 359 q 650 747 686 642 q 546 911 613 852 q 388 970 479 970 q 233 911 298 970 q 131 747 167 852 q 95 500 95 641 q 131 254 95 359 q 233 89 167 148 q 388 30 298 30 m 201 1270 q 230 1358 201 1328 q 307 1388 260 1388 q 358 1376 337 1388 q 396 1349 380 1364 q 430 1322 413 1333 q 468 1310 447 1310 q 515 1330 498 1310 q 532 1388 532 1350 l 572 1388 q 560 1323 574 1350 q 522 1283 546 1297 q 467 1270 497 1270 q 418 1282 439 1270 q 379 1310 397 1294 q 343 1337 361 1325 q 302 1350 325 1350 q 260 1331 278 1350 q 241 1270 241 1312 l 201 1270 m 222 1047 l 195 1078 l 376 1225 l 401 1225 l 578 1078 l 551 1047 l 393 1177 l 384 1177 l 222 1047 z "},"Ȍ":{"ha":781,"x_min":52,"x_max":730,"o":"m 388 -11 q 210 53 286 -11 q 93 232 134 117 q 52 500 52 347 q 93 769 52 654 q 210 947 134 884 q 388 1010 286 1010 q 569 947 492 1010 q 688 768 646 883 q 730 500 730 654 q 688 232 730 347 q 569 53 646 117 q 388 -11 492 -11 m 388 30 q 546 89 479 30 q 650 254 613 148 q 686 500 686 359 q 650 747 686 642 q 546 911 613 852 q 388 970 479 970 q 233 911 298 970 q 131 747 167 852 q 95 500 95 641 q 131 254 95 359 q 233 89 167 148 q 388 30 298 30 m 277 1086 l 146 1299 l 187 1322 l 305 1100 l 277 1086 m 460 1086 l 338 1299 l 378 1322 l 494 1100 l 460 1086 z "},"Ö":{"ha":781,"x_min":52,"x_max":730,"o":"m 388 -11 q 210 53 286 -11 q 93 232 134 117 q 52 500 52 347 q 93 769 52 654 q 210 947 134 884 q 388 1010 286 1010 q 569 947 492 1010 q 688 768 646 883 q 730 500 730 654 q 688 232 730 347 q 569 53 646 117 q 388 -11 492 -11 m 388 30 q 546 89 479 30 q 650 254 613 148 q 686 500 686 359 q 650 747 686 642 q 546 911 613 852 q 388 970 479 970 q 233 911 298 970 q 131 747 167 852 q 95 500 95 641 q 131 254 95 359 q 233 89 167 148 q 388 30 298 30 m 519 1085 q 479 1102 496 1085 q 463 1142 463 1118 q 479 1182 463 1166 q 519 1199 496 1199 q 560 1182 543 1199 q 576 1142 576 1166 q 560 1102 576 1118 q 519 1085 543 1085 m 262 1085 q 221 1102 238 1085 q 205 1142 205 1118 q 221 1182 205 1166 q 262 1199 238 1199 q 302 1182 286 1199 q 319 1142 319 1166 q 302 1102 319 1118 q 262 1085 286 1085 z "},"Ȫ":{"ha":781,"x_min":52,"x_max":730,"o":"m 388 -11 q 210 53 286 -11 q 93 232 134 117 q 52 500 52 347 q 93 769 52 654 q 210 947 134 884 q 388 1010 286 1010 q 569 947 492 1010 q 688 768 646 883 q 730 500 730 654 q 688 232 730 347 q 569 53 646 117 q 388 -11 492 -11 m 388 30 q 546 89 479 30 q 650 254 613 148 q 686 500 686 359 q 650 747 686 642 q 546 911 613 852 q 388 970 479 970 q 233 911 298 970 q 131 747 167 852 q 95 500 95 641 q 131 254 95 359 q 233 89 167 148 q 388 30 298 30 m 519 1085 q 479 1102 496 1085 q 463 1142 463 1118 q 479 1182 463 1166 q 519 1199 496 1199 q 560 1182 543 1199 q 576 1142 576 1166 q 560 1102 576 1118 q 519 1085 543 1085 m 262 1085 q 221 1102 238 1085 q 205 1142 205 1118 q 221 1182 205 1166 q 262 1199 238 1199 q 302 1182 286 1199 q 319 1142 319 1166 q 302 1102 319 1118 q 262 1085 286 1085 m 165 1270 l 165 1312 l 609 1312 l 609 1270 l 165 1270 z "},"Ȱ":{"ha":781,"x_min":52,"x_max":730,"o":"m 388 -11 q 210 53 286 -11 q 93 232 134 117 q 52 500 52 347 q 93 769 52 654 q 210 947 134 884 q 388 1010 286 1010 q 569 947 492 1010 q 688 768 646 883 q 730 500 730 654 q 688 232 730 347 q 569 53 646 117 q 388 -11 492 -11 m 388 30 q 546 89 479 30 q 650 254 613 148 q 686 500 686 359 q 650 747 686 642 q 546 911 613 852 q 388 970 479 970 q 233 911 298 970 q 131 747 167 852 q 95 500 95 641 q 131 254 95 359 q 233 89 167 148 q 388 30 298 30 m 388 1081 q 346 1098 363 1081 q 330 1139 330 1114 q 346 1181 330 1164 q 388 1198 363 1198 q 430 1181 413 1198 q 446 1139 446 1164 q 430 1098 446 1114 q 388 1081 413 1081 m 165 1263 l 165 1305 l 609 1305 l 609 1263 l 165 1263 z "},"Ọ":{"ha":781,"x_min":52,"x_max":730,"o":"m 388 -11 q 210 53 286 -11 q 93 232 134 117 q 52 500 52 347 q 93 769 52 654 q 210 947 134 884 q 388 1010 286 1010 q 569 947 492 1010 q 688 768 646 883 q 730 500 730 654 q 688 232 730 347 q 569 53 646 117 q 388 -11 492 -11 m 388 30 q 546 89 479 30 q 650 254 613 148 q 686 500 686 359 q 650 747 686 642 q 546 911 613 852 q 388 970 479 970 q 233 911 298 970 q 131 747 167 852 q 95 500 95 641 q 131 254 95 359 q 233 89 167 148 q 388 30 298 30 m 388 -208 q 346 -191 363 -208 q 330 -149 330 -174 q 346 -107 330 -124 q 388 -91 363 -91 q 430 -107 413 -91 q 446 -149 446 -124 q 430 -191 446 -174 q 388 -208 413 -208 z "},"Ò":{"ha":781,"x_min":52,"x_max":730,"o":"m 388 -11 q 210 53 286 -11 q 93 232 134 117 q 52 500 52 347 q 93 769 52 654 q 210 947 134 884 q 388 1010 286 1010 q 569 947 492 1010 q 688 768 646 883 q 730 500 730 654 q 688 232 730 347 q 569 53 646 117 q 388 -11 492 -11 m 388 30 q 546 89 479 30 q 650 254 613 148 q 686 500 686 359 q 650 747 686 642 q 546 911 613 852 q 388 970 479 970 q 233 911 298 970 q 131 747 167 852 q 95 500 95 641 q 131 254 95 359 q 233 89 167 148 q 388 30 298 30 m 388 1055 l 209 1245 l 236 1275 l 416 1089 l 388 1055 z "},"Ỏ":{"ha":781,"x_min":52,"x_max":730,"o":"m 388 -11 q 210 53 286 -11 q 93 232 134 117 q 52 500 52 347 q 93 769 52 654 q 210 947 134 884 q 388 1010 286 1010 q 569 947 492 1010 q 688 768 646 883 q 730 500 730 654 q 688 232 730 347 q 569 53 646 117 q 388 -11 492 -11 m 388 30 q 546 89 479 30 q 650 254 613 148 q 686 500 686 359 q 650 747 686 642 q 546 911 613 852 q 388 970 479 970 q 233 911 298 970 q 131 747 167 852 q 95 500 95 641 q 131 254 95 359 q 233 89 167 148 q 388 30 298 30 m 403 1097 l 378 1127 q 423 1164 404 1141 q 442 1214 442 1187 q 424 1257 442 1242 q 373 1272 405 1272 q 336 1269 355 1272 q 301 1259 317 1265 l 301 1299 q 339 1309 319 1307 q 372 1312 359 1312 q 450 1285 422 1312 q 477 1217 477 1259 q 457 1148 477 1181 q 403 1097 437 1115 z "},"Ơ":{"ha":781,"x_min":52,"x_max":743,"o":"m 388 -11 q 210 53 286 -11 q 93 232 134 117 q 52 500 52 347 q 93 769 52 654 q 210 947 134 884 q 388 1010 286 1010 q 569 947 492 1010 q 688 768 646 883 q 730 500 730 654 q 688 232 730 347 q 569 53 646 117 q 388 -11 492 -11 m 388 30 q 546 89 479 30 q 650 254 613 148 q 686 500 686 359 q 650 747 686 642 q 546 911 613 852 q 388 970 479 970 q 233 911 298 970 q 131 747 167 852 q 95 500 95 641 q 131 254 95 359 q 233 89 167 148 q 388 30 298 30 m 544 922 l 544 956 q 654 997 610 958 q 699 1109 699 1036 q 696 1146 699 1127 q 693 1173 694 1164 l 736 1179 q 741 1146 739 1168 q 743 1104 743 1124 q 716 1002 743 1043 q 645 941 690 961 q 544 922 600 921 z "},"Ớ":{"ha":781,"x_min":52,"x_max":743,"o":"m 388 -11 q 210 53 286 -11 q 93 232 134 117 q 52 500 52 347 q 93 769 52 654 q 210 947 134 884 q 388 1010 286 1010 q 569 947 492 1010 q 688 768 646 883 q 730 500 730 654 q 688 232 730 347 q 569 53 646 117 q 388 -11 492 -11 m 388 30 q 546 89 479 30 q 650 254 613 148 q 686 500 686 359 q 650 747 686 642 q 546 911 613 852 q 388 970 479 970 q 233 911 298 970 q 131 747 167 852 q 95 500 95 641 q 131 254 95 359 q 233 89 167 148 q 388 30 298 30 m 544 922 l 544 956 q 654 997 610 958 q 699 1109 699 1036 q 696 1146 699 1127 q 693 1173 694 1164 l 736 1179 q 741 1146 739 1168 q 743 1104 743 1124 q 716 1002 743 1043 q 645 941 690 961 q 544 922 600 921 m 388 1055 l 359 1089 l 540 1275 l 567 1245 l 388 1055 z "},"Ợ":{"ha":781,"x_min":52,"x_max":743,"o":"m 388 -11 q 210 53 286 -11 q 93 232 134 117 q 52 500 52 347 q 93 769 52 654 q 210 947 134 884 q 388 1010 286 1010 q 569 947 492 1010 q 688 768 646 883 q 730 500 730 654 q 688 232 730 347 q 569 53 646 117 q 388 -11 492 -11 m 388 30 q 546 89 479 30 q 650 254 613 148 q 686 500 686 359 q 650 747 686 642 q 546 911 613 852 q 388 970 479 970 q 233 911 298 970 q 131 747 167 852 q 95 500 95 641 q 131 254 95 359 q 233 89 167 148 q 388 30 298 30 m 544 922 l 544 956 q 654 997 610 958 q 699 1109 699 1036 q 696 1146 699 1127 q 693 1173 694 1164 l 736 1179 q 741 1146 739 1168 q 743 1104 743 1124 q 716 1002 743 1043 q 645 941 690 961 q 544 922 600 921 m 387 -208 q 345 -191 361 -208 q 328 -149 328 -174 q 345 -107 328 -124 q 387 -91 361 -91 q 428 -107 412 -91 q 445 -149 445 -124 q 428 -191 445 -174 q 387 -208 412 -208 z "},"Ờ":{"ha":781,"x_min":52,"x_max":743,"o":"m 388 -11 q 210 53 286 -11 q 93 232 134 117 q 52 500 52 347 q 93 769 52 654 q 210 947 134 884 q 388 1010 286 1010 q 569 947 492 1010 q 688 768 646 883 q 730 500 730 654 q 688 232 730 347 q 569 53 646 117 q 388 -11 492 -11 m 388 30 q 546 89 479 30 q 650 254 613 148 q 686 500 686 359 q 650 747 686 642 q 546 911 613 852 q 388 970 479 970 q 233 911 298 970 q 131 747 167 852 q 95 500 95 641 q 131 254 95 359 q 233 89 167 148 q 388 30 298 30 m 544 922 l 544 956 q 654 997 610 958 q 699 1109 699 1036 q 696 1146 699 1127 q 693 1173 694 1164 l 736 1179 q 741 1146 739 1168 q 743 1104 743 1124 q 716 1002 743 1043 q 645 941 690 961 q 544 922 600 921 m 388 1055 l 209 1245 l 236 1275 l 416 1089 l 388 1055 z "},"Ở":{"ha":781,"x_min":52,"x_max":743,"o":"m 388 -11 q 210 53 286 -11 q 93 232 134 117 q 52 500 52 347 q 93 769 52 654 q 210 947 134 884 q 388 1010 286 1010 q 569 947 492 1010 q 688 768 646 883 q 730 500 730 654 q 688 232 730 347 q 569 53 646 117 q 388 -11 492 -11 m 388 30 q 546 89 479 30 q 650 254 613 148 q 686 500 686 359 q 650 747 686 642 q 546 911 613 852 q 388 970 479 970 q 233 911 298 970 q 131 747 167 852 q 95 500 95 641 q 131 254 95 359 q 233 89 167 148 q 388 30 298 30 m 544 922 l 544 956 q 654 997 610 958 q 699 1109 699 1036 q 696 1146 699 1127 q 693 1173 694 1164 l 736 1179 q 741 1146 739 1168 q 743 1104 743 1124 q 716 1002 743 1043 q 645 941 690 961 q 544 922 600 921 m 403 1097 l 378 1127 q 423 1164 404 1141 q 442 1214 442 1187 q 424 1257 442 1242 q 373 1272 405 1272 q 336 1269 355 1272 q 301 1259 317 1265 l 301 1299 q 339 1309 319 1307 q 372 1312 359 1312 q 450 1285 422 1312 q 477 1217 477 1259 q 457 1148 477 1181 q 403 1097 437 1115 z "},"Ỡ":{"ha":781,"x_min":52,"x_max":743,"o":"m 388 -11 q 210 53 286 -11 q 93 232 134 117 q 52 500 52 347 q 93 769 52 654 q 210 947 134 884 q 388 1010 286 1010 q 569 947 492 1010 q 688 768 646 883 q 730 500 730 654 q 688 232 730 347 q 569 53 646 117 q 388 -11 492 -11 m 388 30 q 546 89 479 30 q 650 254 613 148 q 686 500 686 359 q 650 747 686 642 q 546 911 613 852 q 388 970 479 970 q 233 911 298 970 q 131 747 167 852 q 95 500 95 641 q 131 254 95 359 q 233 89 167 148 q 388 30 298 30 m 544 922 l 544 956 q 654 997 610 958 q 699 1109 699 1036 q 696 1146 699 1127 q 693 1173 694 1164 l 736 1179 q 741 1146 739 1168 q 743 1104 743 1124 q 716 1002 743 1043 q 645 941 690 961 q 544 922 600 921 m 199 1084 q 232 1178 201 1142 q 305 1214 262 1214 q 358 1200 336 1214 q 397 1168 380 1186 q 431 1136 414 1149 q 469 1122 448 1122 q 516 1149 500 1122 q 533 1214 533 1177 l 572 1214 q 545 1120 574 1157 q 469 1084 516 1084 q 419 1097 441 1084 q 380 1128 398 1110 q 344 1159 362 1145 q 302 1172 326 1172 q 259 1148 276 1172 q 241 1084 241 1124 l 199 1084 z "},"Ő":{"ha":781,"x_min":52,"x_max":730,"o":"m 388 -11 q 210 53 286 -11 q 93 232 134 117 q 52 500 52 347 q 93 769 52 654 q 210 947 134 884 q 388 1010 286 1010 q 569 947 492 1010 q 688 768 646 883 q 730 500 730 654 q 688 232 730 347 q 569 53 646 117 q 388 -11 492 -11 m 388 30 q 546 89 479 30 q 650 254 613 148 q 686 500 686 359 q 650 747 686 642 q 546 911 613 852 q 388 970 479 970 q 233 911 298 970 q 131 747 167 852 q 95 500 95 641 q 131 254 95 359 q 233 89 167 148 q 388 30 298 30 m 315 1086 l 283 1100 l 403 1322 l 439 1299 l 315 1086 m 500 1086 l 475 1100 l 589 1322 l 628 1299 l 500 1086 z "},"Ȏ":{"ha":781,"x_min":52,"x_max":730,"o":"m 388 -11 q 210 53 286 -11 q 93 232 134 117 q 52 500 52 347 q 93 769 52 654 q 210 947 134 884 q 388 1010 286 1010 q 569 947 492 1010 q 688 768 646 883 q 730 500 730 654 q 688 232 730 347 q 569 53 646 117 q 388 -11 492 -11 m 388 30 q 546 89 479 30 q 650 254 613 148 q 686 500 686 359 q 650 747 686 642 q 546 911 613 852 q 388 970 479 970 q 233 911 298 970 q 131 747 167 852 q 95 500 95 641 q 131 254 95 359 q 233 89 167 148 q 388 30 298 30 m 387 1222 q 482 1201 439 1222 q 549 1143 525 1179 q 572 1063 574 1107 l 534 1063 q 493 1148 534 1116 q 387 1181 451 1181 q 283 1148 325 1181 q 241 1063 241 1116 l 203 1063 q 228 1143 203 1107 q 294 1201 252 1179 q 387 1222 335 1222 z "},"Ō":{"ha":781,"x_min":52,"x_max":730,"o":"m 388 -11 q 210 53 286 -11 q 93 232 134 117 q 52 500 52 347 q 93 769 52 654 q 210 947 134 884 q 388 1010 286 1010 q 569 947 492 1010 q 688 768 646 883 q 730 500 730 654 q 688 232 730 347 q 569 53 646 117 q 388 -11 492 -11 m 388 30 q 546 89 479 30 q 650 254 613 148 q 686 500 686 359 q 650 747 686 642 q 546 911 613 852 q 388 970 479 970 q 233 911 298 970 q 131 747 167 852 q 95 500 95 641 q 131 254 95 359 q 233 89 167 148 q 388 30 298 30 m 165 1122 l 165 1164 l 609 1164 l 609 1122 l 165 1122 z "},"Ṓ":{"ha":781,"x_min":52,"x_max":730,"o":"m 165 1122 l 165 1164 l 609 1164 l 609 1122 l 165 1122 m 388 1219 l 359 1253 l 540 1439 l 567 1409 l 388 1219 m 388 -11 q 210 53 286 -11 q 93 232 134 117 q 52 500 52 347 q 93 769 52 654 q 210 947 134 884 q 388 1010 286 1010 q 569 947 492 1010 q 688 768 646 883 q 730 500 730 654 q 688 232 730 347 q 569 53 646 117 q 388 -11 492 -11 m 388 30 q 546 89 479 30 q 650 254 613 148 q 686 500 686 359 q 650 747 686 642 q 546 911 613 852 q 388 970 479 970 q 233 911 298 970 q 131 747 167 852 q 95 500 95 641 q 131 254 95 359 q 233 89 167 148 q 388 30 298 30 z "},"Ṑ":{"ha":781,"x_min":52,"x_max":730,"o":"m 388 -11 q 210 53 286 -11 q 93 232 134 117 q 52 500 52 347 q 93 769 52 654 q 210 947 134 884 q 388 1010 286 1010 q 569 947 492 1010 q 688 768 646 883 q 730 500 730 654 q 688 232 730 347 q 569 53 646 117 q 388 -11 492 -11 m 388 30 q 546 89 479 30 q 650 254 613 148 q 686 500 686 359 q 650 747 686 642 q 546 911 613 852 q 388 970 479 970 q 233 911 298 970 q 131 747 167 852 q 95 500 95 641 q 131 254 95 359 q 233 89 167 148 q 388 30 298 30 m 165 1122 l 165 1164 l 609 1164 l 609 1122 l 165 1122 m 388 1219 l 209 1409 l 236 1439 l 416 1253 l 388 1219 z "},"Ǫ":{"ha":781,"x_min":52,"x_max":730,"o":"m 388 -11 q 210 53 286 -11 q 93 232 134 117 q 52 500 52 347 q 93 769 52 654 q 210 947 134 884 q 388 1010 286 1010 q 569 947 492 1010 q 688 768 646 883 q 730 500 730 654 q 688 232 730 347 q 569 53 646 117 q 388 -11 492 -11 m 388 30 q 546 89 479 30 q 650 254 613 148 q 686 500 686 359 q 650 747 686 642 q 546 911 613 852 q 388 970 479 970 q 233 911 298 970 q 131 747 167 852 q 95 500 95 641 q 131 254 95 359 q 233 89 167 148 q 388 30 298 30 m 396 -264 q 333 -236 357 -264 q 308 -164 308 -208 q 345 -67 308 -110 q 422 16 381 -25 l 453 0 q 405 -55 430 -29 q 361 -108 379 -81 q 343 -164 343 -134 q 361 -209 343 -193 q 403 -225 380 -225 q 447 -215 427 -225 q 481 -194 467 -204 l 481 -236 q 443 -256 467 -248 q 396 -264 418 -264 z "},"Ø":{"ha":781,"x_min":41,"x_max":741,"o":"m 388 -11 q 210 53 286 -11 q 93 232 134 117 q 52 500 52 347 q 93 769 52 654 q 210 947 134 884 q 388 1010 286 1010 q 569 947 492 1010 q 688 768 646 883 q 730 500 730 654 q 688 232 730 347 q 569 53 646 117 q 388 -11 492 -11 m 388 30 q 546 89 479 30 q 650 254 613 148 q 686 500 686 359 q 650 747 686 642 q 546 911 613 852 q 388 970 479 970 q 233 911 298 970 q 131 747 167 852 q 95 500 95 641 q 131 254 95 359 q 233 89 167 148 q 388 30 298 30 m 41 0 l 692 1000 l 741 1000 l 90 0 l 41 0 z "},"Ǿ":{"ha":781,"x_min":41,"x_max":741,"o":"m 388 -11 q 210 53 286 -11 q 93 232 134 117 q 52 500 52 347 q 93 769 52 654 q 210 947 134 884 q 388 1010 286 1010 q 569 947 492 1010 q 688 768 646 883 q 730 500 730 654 q 688 232 730 347 q 569 53 646 117 q 388 -11 492 -11 m 388 30 q 546 89 479 30 q 650 254 613 148 q 686 500 686 359 q 650 747 686 642 q 546 911 613 852 q 388 970 479 970 q 233 911 298 970 q 131 747 167 852 q 95 500 95 641 q 131 254 95 359 q 233 89 167 148 q 388 30 298 30 m 41 0 l 692 1000 l 741 1000 l 90 0 l 41 0 m 388 1055 l 359 1089 l 540 1275 l 567 1245 l 388 1055 z "},"Õ":{"ha":781,"x_min":52,"x_max":730,"o":"m 388 -11 q 210 53 286 -11 q 93 232 134 117 q 52 500 52 347 q 93 769 52 654 q 210 947 134 884 q 388 1010 286 1010 q 569 947 492 1010 q 688 768 646 883 q 730 500 730 654 q 688 232 730 347 q 569 53 646 117 q 388 -11 492 -11 m 388 30 q 546 89 479 30 q 650 254 613 148 q 686 500 686 359 q 650 747 686 642 q 546 911 613 852 q 388 970 479 970 q 233 911 298 970 q 131 747 167 852 q 95 500 95 641 q 131 254 95 359 q 233 89 167 148 q 388 30 298 30 m 199 1084 q 232 1178 201 1142 q 305 1214 262 1214 q 358 1200 336 1214 q 397 1168 380 1186 q 431 1136 414 1149 q 469 1122 448 1122 q 516 1149 500 1122 q 533 1214 533 1177 l 572 1214 q 545 1120 574 1157 q 469 1084 516 1084 q 419 1097 441 1084 q 380 1128 398 1110 q 344 1159 362 1145 q 302 1172 326 1172 q 259 1148 276 1172 q 241 1084 241 1124 l 199 1084 z "},"Ṍ":{"ha":781,"x_min":52,"x_max":730,"o":"m 388 -11 q 210 53 286 -11 q 93 232 134 117 q 52 500 52 347 q 93 769 52 654 q 210 947 134 884 q 388 1010 286 1010 q 569 947 492 1010 q 688 768 646 883 q 730 500 730 654 q 688 232 730 347 q 569 53 646 117 q 388 -11 492 -11 m 388 30 q 546 89 479 30 q 650 254 613 148 q 686 500 686 359 q 650 747 686 642 q 546 911 613 852 q 388 970 479 970 q 233 911 298 970 q 131 747 167 852 q 95 500 95 641 q 131 254 95 359 q 233 89 167 148 q 388 30 298 30 m 199 1084 q 232 1178 201 1142 q 305 1214 262 1214 q 358 1200 336 1214 q 397 1168 380 1186 q 431 1136 414 1149 q 469 1122 448 1122 q 516 1149 500 1122 q 533 1214 533 1177 l 572 1214 q 545 1120 574 1157 q 469 1084 516 1084 q 419 1097 441 1084 q 380 1128 398 1110 q 344 1159 362 1145 q 302 1172 326 1172 q 259 1148 276 1172 q 241 1084 241 1124 l 199 1084 m 388 1245 l 359 1279 l 540 1465 l 567 1435 l 388 1245 z "},"Ṏ":{"ha":781,"x_min":52,"x_max":730,"o":"m 388 -11 q 210 53 286 -11 q 93 232 134 117 q 52 500 52 347 q 93 769 52 654 q 210 947 134 884 q 388 1010 286 1010 q 569 947 492 1010 q 688 768 646 883 q 730 500 730 654 q 688 232 730 347 q 569 53 646 117 q 388 -11 492 -11 m 388 30 q 546 89 479 30 q 650 254 613 148 q 686 500 686 359 q 650 747 686 642 q 546 911 613 852 q 388 970 479 970 q 233 911 298 970 q 131 747 167 852 q 95 500 95 641 q 131 254 95 359 q 233 89 167 148 q 388 30 298 30 m 199 1084 q 232 1178 201 1142 q 305 1214 262 1214 q 358 1200 336 1214 q 397 1168 380 1186 q 431 1136 414 1149 q 469 1122 448 1122 q 516 1149 500 1122 q 533 1214 533 1177 l 572 1214 q 545 1120 574 1157 q 469 1084 516 1084 q 419 1097 441 1084 q 380 1128 398 1110 q 344 1159 362 1145 q 302 1172 326 1172 q 259 1148 276 1172 q 241 1084 241 1124 l 199 1084 m 519 1275 q 479 1292 496 1275 q 463 1332 463 1308 q 479 1372 463 1356 q 519 1389 496 1389 q 560 1372 543 1389 q 576 1332 576 1356 q 560 1292 576 1308 q 519 1275 543 1275 m 262 1275 q 221 1292 238 1275 q 205 1332 205 1308 q 221 1372 205 1356 q 262 1389 238 1389 q 302 1372 286 1389 q 319 1332 319 1356 q 302 1292 319 1308 q 262 1275 286 1275 z "},"Ȭ":{"ha":781,"x_min":52,"x_max":730,"o":"m 388 -11 q 210 53 286 -11 q 93 232 134 117 q 52 500 52 347 q 93 769 52 654 q 210 947 134 884 q 388 1010 286 1010 q 569 947 492 1010 q 688 768 646 883 q 730 500 730 654 q 688 232 730 347 q 569 53 646 117 q 388 -11 492 -11 m 388 30 q 546 89 479 30 q 650 254 613 148 q 686 500 686 359 q 650 747 686 642 q 546 911 613 852 q 388 970 479 970 q 233 911 298 970 q 131 747 167 852 q 95 500 95 641 q 131 254 95 359 q 233 89 167 148 q 388 30 298 30 m 199 1084 q 232 1178 201 1142 q 305 1214 262 1214 q 358 1200 336 1214 q 397 1168 380 1186 q 431 1136 414 1149 q 469 1122 448 1122 q 516 1149 500 1122 q 533 1214 533 1177 l 572 1214 q 545 1120 574 1157 q 469 1084 516 1084 q 419 1097 441 1084 q 380 1128 398 1110 q 344 1159 362 1145 q 302 1172 326 1172 q 259 1148 276 1172 q 241 1084 241 1124 l 199 1084 m 165 1312 l 165 1354 l 609 1354 l 609 1312 l 165 1312 z "},"Œ":{"ha":781,"x_min":46,"x_max":764,"o":"m 267 -11 q 143 49 193 -11 q 70 224 94 109 q 46 500 46 338 q 70 777 46 663 q 143 950 94 890 q 267 1010 193 1010 q 374 973 329 1010 q 445 864 418 935 q 477 690 471 792 l 460 690 l 460 1000 l 764 1000 l 764 959 l 503 959 l 503 533 l 728 533 l 728 492 l 503 492 l 503 41 l 764 41 l 764 0 l 460 0 l 460 309 l 477 309 q 445 136 471 208 q 374 27 418 64 q 267 -11 329 -11 m 267 30 q 412 154 363 30 q 461 503 461 277 q 412 848 461 726 q 267 970 363 970 q 132 847 175 970 q 90 502 90 725 q 132 154 90 277 q 267 30 175 30 z "},"P":{"ha":781,"x_min":155,"x_max":692,"o":"m 178 452 l 178 492 l 401 492 q 529 523 473 492 q 616 607 585 553 q 648 731 648 661 q 577 898 648 837 q 395 959 507 959 l 178 959 l 178 1000 l 403 1000 q 550 967 484 1000 q 653 873 615 934 q 692 731 692 813 q 656 592 692 656 q 558 490 621 528 q 410 452 494 452 l 178 452 m 155 0 l 155 1000 l 198 1000 l 198 0 l 155 0 z "},"Þ":{"ha":781,"x_min":155,"x_max":694,"o":"m 184 222 l 184 263 l 429 263 q 542 294 492 263 q 622 378 592 324 q 651 503 651 432 q 587 670 651 609 q 429 731 524 731 l 184 731 l 184 772 l 423 772 q 563 739 501 772 q 659 646 624 706 q 694 503 694 585 q 659 358 694 421 q 563 258 624 294 q 423 222 501 222 l 184 222 m 155 0 l 155 1000 l 198 1000 l 198 0 l 155 0 z "},"Q":{"ha":781,"x_min":52,"x_max":727,"o":"m 387 -11 q 210 53 285 -11 q 93 231 134 116 q 52 500 52 346 q 93 770 52 655 q 210 947 134 884 q 387 1010 285 1010 q 567 947 490 1010 q 685 769 644 884 q 727 500 727 654 q 696 266 727 370 q 610 96 666 163 l 604 88 q 506 15 561 41 q 387 -11 452 -11 m 636 0 l 585 88 l 575 96 l 430 353 l 477 353 l 606 119 l 618 110 l 685 0 l 636 0 m 387 30 q 544 89 477 30 q 647 253 610 147 q 684 500 684 359 q 647 747 684 642 q 544 911 610 852 q 387 970 477 970 q 232 911 298 970 q 131 747 167 852 q 95 500 95 642 q 131 253 95 359 q 232 89 167 147 q 387 30 298 30 z "},"R":{"ha":781,"x_min":142,"x_max":700,"o":"m 164 452 l 164 492 l 373 492 q 492 523 439 492 q 574 606 544 553 q 604 731 604 660 q 537 898 604 837 q 368 959 471 959 l 164 959 l 164 1000 l 374 1000 q 512 967 450 1000 q 610 873 574 934 q 647 731 647 813 q 614 592 647 655 q 520 490 581 528 q 381 452 460 452 l 164 452 m 142 0 l 142 1000 l 186 1000 l 186 0 l 142 0 m 651 0 l 369 456 l 399 486 l 700 0 l 651 0 z "},"Ŕ":{"ha":781,"x_min":142,"x_max":700,"o":"m 164 452 l 164 492 l 373 492 q 492 523 439 492 q 574 606 544 553 q 604 731 604 660 q 537 898 604 837 q 368 959 471 959 l 164 959 l 164 1000 l 374 1000 q 512 967 450 1000 q 610 873 574 934 q 647 731 647 813 q 614 592 647 655 q 520 490 581 528 q 381 452 460 452 l 164 452 m 142 0 l 142 1000 l 186 1000 l 186 0 l 142 0 m 651 0 l 369 456 l 399 486 l 700 0 l 651 0 m 376 1055 l 347 1089 l 528 1275 l 555 1245 l 376 1055 z "},"Ř":{"ha":781,"x_min":142,"x_max":700,"o":"m 164 452 l 164 492 l 373 492 q 492 523 439 492 q 574 606 544 553 q 604 731 604 660 q 537 898 604 837 q 368 959 471 959 l 164 959 l 164 1000 l 374 1000 q 512 967 450 1000 q 610 873 574 934 q 647 731 647 813 q 614 592 647 655 q 520 490 581 528 q 381 452 460 452 l 164 452 m 142 0 l 142 1000 l 186 1000 l 186 0 l 142 0 m 651 0 l 369 456 l 399 486 l 700 0 l 651 0 m 212 1221 l 373 1086 l 382 1086 l 540 1221 l 567 1187 l 391 1044 l 365 1044 l 184 1187 l 212 1221 z "},"Ŗ":{"ha":781,"x_min":142,"x_max":700,"o":"m 164 452 l 164 492 l 373 492 q 492 523 439 492 q 574 606 544 553 q 604 731 604 660 q 537 898 604 837 q 368 959 471 959 l 164 959 l 164 1000 l 374 1000 q 512 967 450 1000 q 610 873 574 934 q 647 731 647 813 q 614 592 647 655 q 520 490 581 528 q 381 452 460 452 l 164 452 m 142 0 l 142 1000 l 186 1000 l 186 0 l 142 0 m 651 0 l 369 456 l 399 486 l 700 0 l 651 0 m 387 -330 l 363 -308 l 408 -252 q 431 -222 422 -235 q 443 -199 439 -210 q 445 -178 446 -189 l 463 -175 q 450 -195 458 -187 q 433 -202 443 -202 q 401 -187 416 -202 q 387 -149 387 -172 q 401 -114 387 -127 q 433 -100 416 -100 q 469 -117 456 -100 q 481 -160 481 -134 q 473 -202 481 -181 q 454 -241 465 -224 q 435 -269 443 -259 l 387 -330 z "},"Ȑ":{"ha":781,"x_min":134,"x_max":700,"o":"m 164 452 l 164 492 l 373 492 q 492 523 439 492 q 574 606 544 553 q 604 731 604 660 q 537 898 604 837 q 368 959 471 959 l 164 959 l 164 1000 l 374 1000 q 512 967 450 1000 q 610 873 574 934 q 647 731 647 813 q 614 592 647 655 q 520 490 581 528 q 381 452 460 452 l 164 452 m 142 0 l 142 1000 l 186 1000 l 186 0 l 142 0 m 651 0 l 369 456 l 399 486 l 700 0 l 651 0 m 264 1086 l 134 1299 l 175 1322 l 293 1100 l 264 1086 m 448 1086 l 326 1299 l 366 1322 l 481 1100 l 448 1086 z "},"Ṛ":{"ha":781,"x_min":142,"x_max":700,"o":"m 164 452 l 164 492 l 373 492 q 492 523 439 492 q 574 606 544 553 q 604 731 604 660 q 537 898 604 837 q 368 959 471 959 l 164 959 l 164 1000 l 374 1000 q 512 967 450 1000 q 610 873 574 934 q 647 731 647 813 q 614 592 647 655 q 520 490 581 528 q 381 452 460 452 l 164 452 m 142 0 l 142 1000 l 186 1000 l 186 0 l 142 0 m 651 0 l 369 456 l 399 486 l 700 0 l 651 0 m 422 -208 q 380 -191 397 -208 q 363 -149 363 -174 q 380 -107 363 -124 q 422 -91 397 -91 q 464 -107 447 -91 q 480 -149 480 -124 q 464 -191 480 -174 q 422 -208 447 -208 z "},"Ȓ":{"ha":781,"x_min":142,"x_max":700,"o":"m 164 452 l 164 492 l 373 492 q 492 523 439 492 q 574 606 544 553 q 604 731 604 660 q 537 898 604 837 q 368 959 471 959 l 164 959 l 164 1000 l 374 1000 q 512 967 450 1000 q 610 873 574 934 q 647 731 647 813 q 614 592 647 655 q 520 490 581 528 q 381 452 460 452 l 164 452 m 142 0 l 142 1000 l 186 1000 l 186 0 l 142 0 m 651 0 l 369 456 l 399 486 l 700 0 l 651 0 m 374 1222 q 470 1201 427 1222 q 537 1143 513 1179 q 560 1063 562 1107 l 522 1063 q 480 1148 522 1116 q 374 1181 439 1181 q 271 1148 313 1181 q 229 1063 229 1116 l 191 1063 q 216 1143 191 1107 q 281 1201 240 1179 q 374 1222 323 1222 z "},"Ṟ":{"ha":781,"x_min":142,"x_max":700,"o":"m 164 452 l 164 492 l 373 492 q 492 523 439 492 q 574 606 544 553 q 604 731 604 660 q 537 898 604 837 q 368 959 471 959 l 164 959 l 164 1000 l 374 1000 q 512 967 450 1000 q 610 873 574 934 q 647 731 647 813 q 614 592 647 655 q 520 490 581 528 q 381 452 460 452 l 164 452 m 142 0 l 142 1000 l 186 1000 l 186 0 l 142 0 m 651 0 l 369 456 l 399 486 l 700 0 l 651 0 m 220 -256 l 220 -217 l 624 -217 l 624 -256 l 220 -256 z "},"S":{"ha":781,"x_min":88,"x_max":667,"o":"m 380 -11 q 245 17 302 -11 q 148 89 187 45 q 88 178 109 132 l 132 195 q 190 107 151 144 q 280 50 229 71 q 387 30 331 30 q 504 57 450 30 q 591 132 558 83 q 624 248 624 181 q 596 355 624 312 q 524 426 569 397 q 425 478 479 455 q 316 524 370 500 q 217 579 262 547 q 144 657 172 610 q 117 773 117 703 q 149 897 117 844 q 237 981 180 951 q 369 1010 294 1010 q 491 986 439 1010 q 576 925 543 962 q 627 853 610 889 l 589 837 q 546 898 574 867 q 474 949 517 928 q 369 970 430 970 q 216 915 273 970 q 160 776 160 859 q 188 668 160 711 q 260 597 215 626 q 359 547 305 569 q 468 503 414 526 q 567 448 522 479 q 640 369 612 416 q 667 248 667 321 q 627 110 667 168 q 521 20 587 52 q 380 -11 456 -11 z "},"Ś":{"ha":781,"x_min":88,"x_max":667,"o":"m 380 -11 q 245 17 302 -11 q 148 89 187 45 q 88 178 109 132 l 132 195 q 190 107 151 144 q 280 50 229 71 q 387 30 331 30 q 504 57 450 30 q 591 132 558 83 q 624 248 624 181 q 596 355 624 312 q 524 426 569 397 q 425 478 479 455 q 316 524 370 500 q 217 579 262 547 q 144 657 172 610 q 117 773 117 703 q 149 897 117 844 q 237 981 180 951 q 369 1010 294 1010 q 491 986 439 1010 q 576 925 543 962 q 627 853 610 889 l 589 837 q 546 898 574 867 q 474 949 517 928 q 369 970 430 970 q 216 915 273 970 q 160 776 160 859 q 188 668 160 711 q 260 597 215 626 q 359 547 305 569 q 468 503 414 526 q 567 448 522 479 q 640 369 612 416 q 667 248 667 321 q 627 110 667 168 q 521 20 587 52 q 380 -11 456 -11 m 381 1055 l 353 1089 l 533 1275 l 560 1245 l 381 1055 z "},"Ṥ":{"ha":781,"x_min":88,"x_max":667,"o":"m 380 -11 q 245 17 302 -11 q 148 89 187 45 q 88 178 109 132 l 132 195 q 190 107 151 144 q 280 50 229 71 q 387 30 331 30 q 504 57 450 30 q 591 132 558 83 q 624 248 624 181 q 596 355 624 312 q 524 426 569 397 q 425 478 479 455 q 316 524 370 500 q 217 579 262 547 q 144 657 172 610 q 117 773 117 703 q 149 897 117 844 q 237 981 180 951 q 369 1010 294 1010 q 491 986 439 1010 q 576 925 543 962 q 627 853 610 889 l 589 837 q 546 898 574 867 q 474 949 517 928 q 369 970 430 970 q 216 915 273 970 q 160 776 160 859 q 188 668 160 711 q 260 597 215 626 q 359 547 305 569 q 468 503 414 526 q 567 448 522 479 q 640 369 612 416 q 667 248 667 321 q 627 110 667 168 q 521 20 587 52 q 380 -11 456 -11 m 449 1097 l 418 1122 l 582 1335 l 612 1312 l 449 1097 m 290 1142 q 249 1159 265 1142 q 232 1200 232 1175 q 249 1242 232 1225 q 290 1259 265 1259 q 332 1242 315 1259 q 349 1200 349 1225 q 332 1159 349 1175 q 290 1142 315 1142 z "},"Š":{"ha":781,"x_min":88,"x_max":667,"o":"m 380 -11 q 245 17 302 -11 q 148 89 187 45 q 88 178 109 132 l 132 195 q 190 107 151 144 q 280 50 229 71 q 387 30 331 30 q 504 57 450 30 q 591 132 558 83 q 624 248 624 181 q 596 355 624 312 q 524 426 569 397 q 425 478 479 455 q 316 524 370 500 q 217 579 262 547 q 144 657 172 610 q 117 773 117 703 q 149 897 117 844 q 237 981 180 951 q 369 1010 294 1010 q 491 986 439 1010 q 576 925 543 962 q 627 853 610 889 l 589 837 q 546 898 574 867 q 474 949 517 928 q 369 970 430 970 q 216 915 273 970 q 160 776 160 859 q 188 668 160 711 q 260 597 215 626 q 359 547 305 569 q 468 503 414 526 q 567 448 522 479 q 640 369 612 416 q 667 248 667 321 q 627 110 667 168 q 521 20 587 52 q 380 -11 456 -11 m 217 1221 l 378 1086 l 388 1086 l 545 1221 l 572 1187 l 396 1044 l 370 1044 l 190 1187 l 217 1221 z "},"Ṧ":{"ha":781,"x_min":88,"x_max":667,"o":"m 380 -11 q 245 17 302 -11 q 148 89 187 45 q 88 178 109 132 l 132 195 q 190 107 151 144 q 280 50 229 71 q 387 30 331 30 q 504 57 450 30 q 591 132 558 83 q 624 248 624 181 q 596 355 624 312 q 524 426 569 397 q 425 478 479 455 q 316 524 370 500 q 217 579 262 547 q 144 657 172 610 q 117 773 117 703 q 149 897 117 844 q 237 981 180 951 q 369 1010 294 1010 q 491 986 439 1010 q 576 925 543 962 q 627 853 610 889 l 589 837 q 546 898 574 867 q 474 949 517 928 q 369 970 430 970 q 216 915 273 970 q 160 776 160 859 q 188 668 160 711 q 260 597 215 626 q 359 547 305 569 q 468 503 414 526 q 567 448 522 479 q 640 369 612 416 q 667 248 667 321 q 627 110 667 168 q 521 20 587 52 q 380 -11 456 -11 m 217 1221 l 378 1086 l 388 1086 l 545 1221 l 572 1187 l 396 1044 l 370 1044 l 190 1187 l 217 1221 m 381 1222 q 339 1239 356 1222 q 323 1280 323 1255 q 339 1322 323 1305 q 381 1339 356 1339 q 423 1322 406 1339 q 439 1280 439 1305 q 423 1239 439 1255 q 381 1222 406 1222 z "},"Ş":{"ha":781,"x_min":88,"x_max":667,"o":"m 380 -11 q 245 17 302 -11 q 148 89 187 45 q 88 178 109 132 l 132 195 q 190 107 151 144 q 280 50 229 71 q 387 30 331 30 q 504 57 450 30 q 591 132 558 83 q 624 248 624 181 q 596 355 624 312 q 524 426 569 397 q 425 478 479 455 q 316 524 370 500 q 217 579 262 547 q 144 657 172 610 q 117 773 117 703 q 149 897 117 844 q 237 981 180 951 q 369 1010 294 1010 q 491 986 439 1010 q 576 925 543 962 q 627 853 610 889 l 589 837 q 546 898 574 867 q 474 949 517 928 q 369 970 430 970 q 216 915 273 970 q 160 776 160 859 q 188 668 160 711 q 260 597 215 626 q 359 547 305 569 q 468 503 414 526 q 567 448 522 479 q 640 369 612 416 q 667 248 667 321 q 627 110 667 168 q 521 20 587 52 q 380 -11 456 -11 m 297 -292 l 297 -250 q 399 -237 360 -252 q 438 -180 438 -222 q 410 -133 438 -152 q 336 -114 381 -114 l 369 0 l 410 0 l 378 -109 l 368 -80 q 447 -118 420 -89 q 473 -183 473 -146 q 427 -265 473 -238 q 297 -292 380 -292 z "},"Ŝ":{"ha":781,"x_min":88,"x_max":667,"o":"m 380 -11 q 245 17 302 -11 q 148 89 187 45 q 88 178 109 132 l 132 195 q 190 107 151 144 q 280 50 229 71 q 387 30 331 30 q 504 57 450 30 q 591 132 558 83 q 624 248 624 181 q 596 355 624 312 q 524 426 569 397 q 425 478 479 455 q 316 524 370 500 q 217 579 262 547 q 144 657 172 610 q 117 773 117 703 q 149 897 117 844 q 237 981 180 951 q 369 1010 294 1010 q 491 986 439 1010 q 576 925 543 962 q 627 853 610 889 l 589 837 q 546 898 574 867 q 474 949 517 928 q 369 970 430 970 q 216 915 273 970 q 160 776 160 859 q 188 668 160 711 q 260 597 215 626 q 359 547 305 569 q 468 503 414 526 q 567 448 522 479 q 640 369 612 416 q 667 248 667 321 q 627 110 667 168 q 521 20 587 52 q 380 -11 456 -11 m 220 1055 l 193 1089 l 373 1232 l 399 1232 l 575 1089 l 548 1055 l 391 1190 l 381 1190 l 220 1055 z "},"Ș":{"ha":781,"x_min":88,"x_max":667,"o":"m 380 -11 q 245 17 302 -11 q 148 89 187 45 q 88 178 109 132 l 132 195 q 190 107 151 144 q 280 50 229 71 q 387 30 331 30 q 504 57 450 30 q 591 132 558 83 q 624 248 624 181 q 596 355 624 312 q 524 426 569 397 q 425 478 479 455 q 316 524 370 500 q 217 579 262 547 q 144 657 172 610 q 117 773 117 703 q 149 897 117 844 q 237 981 180 951 q 369 1010 294 1010 q 491 986 439 1010 q 576 925 543 962 q 627 853 610 889 l 589 837 q 546 898 574 867 q 474 949 517 928 q 369 970 430 970 q 216 915 273 970 q 160 776 160 859 q 188 668 160 711 q 260 597 215 626 q 359 547 305 569 q 468 503 414 526 q 567 448 522 479 q 640 369 612 416 q 667 248 667 321 q 627 110 667 168 q 521 20 587 52 q 380 -11 456 -11 m 368 -330 l 345 -308 l 389 -252 q 412 -222 404 -235 q 424 -199 420 -210 q 426 -178 427 -189 l 444 -175 q 431 -195 439 -187 q 414 -202 424 -202 q 382 -187 397 -202 q 368 -149 368 -172 q 382 -114 368 -127 q 414 -100 397 -100 q 450 -117 437 -100 q 463 -160 463 -134 q 454 -202 463 -181 q 435 -241 446 -224 q 416 -269 424 -259 l 368 -330 z "},"Ṡ":{"ha":781,"x_min":88,"x_max":667,"o":"m 380 -11 q 245 17 302 -11 q 148 89 187 45 q 88 178 109 132 l 132 195 q 190 107 151 144 q 280 50 229 71 q 387 30 331 30 q 504 57 450 30 q 591 132 558 83 q 624 248 624 181 q 596 355 624 312 q 524 426 569 397 q 425 478 479 455 q 316 524 370 500 q 217 579 262 547 q 144 657 172 610 q 117 773 117 703 q 149 897 117 844 q 237 981 180 951 q 369 1010 294 1010 q 491 986 439 1010 q 576 925 543 962 q 627 853 610 889 l 589 837 q 546 898 574 867 q 474 949 517 928 q 369 970 430 970 q 216 915 273 970 q 160 776 160 859 q 188 668 160 711 q 260 597 215 626 q 359 547 305 569 q 468 503 414 526 q 567 448 522 479 q 640 369 612 416 q 667 248 667 321 q 627 110 667 168 q 521 20 587 52 q 380 -11 456 -11 m 381 1081 q 339 1098 356 1081 q 323 1139 323 1114 q 339 1181 323 1164 q 381 1198 356 1198 q 423 1181 406 1198 q 439 1139 439 1164 q 423 1098 439 1114 q 381 1081 406 1081 z "},"Ṣ":{"ha":781,"x_min":88,"x_max":667,"o":"m 380 -11 q 245 17 302 -11 q 148 89 187 45 q 88 178 109 132 l 132 195 q 190 107 151 144 q 280 50 229 71 q 387 30 331 30 q 504 57 450 30 q 591 132 558 83 q 624 248 624 181 q 596 355 624 312 q 524 426 569 397 q 425 478 479 455 q 316 524 370 500 q 217 579 262 547 q 144 657 172 610 q 117 773 117 703 q 149 897 117 844 q 237 981 180 951 q 369 1010 294 1010 q 491 986 439 1010 q 576 925 543 962 q 627 853 610 889 l 589 837 q 546 898 574 867 q 474 949 517 928 q 369 970 430 970 q 216 915 273 970 q 160 776 160 859 q 188 668 160 711 q 260 597 215 626 q 359 547 305 569 q 468 503 414 526 q 567 448 522 479 q 640 369 612 416 q 667 248 667 321 q 627 110 667 168 q 521 20 587 52 q 380 -11 456 -11 m 403 -208 q 361 -191 378 -208 q 345 -149 345 -174 q 361 -107 345 -124 q 403 -91 378 -91 q 445 -107 428 -91 q 461 -149 461 -124 q 445 -191 461 -174 q 403 -208 428 -208 z "},"Ṩ":{"ha":781,"x_min":88,"x_max":667,"o":"m 380 -11 q 245 17 302 -11 q 148 89 187 45 q 88 178 109 132 l 132 195 q 190 107 151 144 q 280 50 229 71 q 387 30 331 30 q 504 57 450 30 q 591 132 558 83 q 624 248 624 181 q 596 355 624 312 q 524 426 569 397 q 425 478 479 455 q 316 524 370 500 q 217 579 262 547 q 144 657 172 610 q 117 773 117 703 q 149 897 117 844 q 237 981 180 951 q 369 1010 294 1010 q 491 986 439 1010 q 576 925 543 962 q 627 853 610 889 l 589 837 q 546 898 574 867 q 474 949 517 928 q 369 970 430 970 q 216 915 273 970 q 160 776 160 859 q 188 668 160 711 q 260 597 215 626 q 359 547 305 569 q 468 503 414 526 q 567 448 522 479 q 640 369 612 416 q 667 248 667 321 q 627 110 667 168 q 521 20 587 52 q 380 -11 456 -11 m 401 -208 q 360 -191 376 -208 q 343 -149 343 -174 q 360 -107 343 -124 q 401 -91 376 -91 q 443 -107 427 -91 q 460 -149 460 -124 q 443 -191 460 -174 q 401 -208 427 -208 m 403 1081 q 361 1098 378 1081 q 345 1139 345 1114 q 361 1181 345 1164 q 403 1198 378 1198 q 445 1181 428 1198 q 461 1139 461 1164 q 445 1098 461 1114 q 403 1081 428 1081 z "},"ẞ":{"ha":781,"x_min":114,"x_max":700,"o":"m 414 -11 q 354 -5 385 -11 q 302 11 323 1 l 302 54 q 360 37 327 44 q 418 30 393 30 q 535 65 480 30 q 623 164 589 100 q 656 312 656 227 q 590 497 656 428 q 406 567 523 567 l 381 567 l 381 586 l 521 963 l 524 940 q 442 962 494 954 q 347 970 389 970 q 236 946 275 970 q 181 889 197 923 q 161 822 164 855 q 157 768 157 788 l 157 0 l 114 0 l 114 764 q 116 814 114 783 q 130 878 119 844 q 167 942 141 912 q 239 991 193 972 q 358 1010 285 1010 q 422 1007 387 1010 q 494 994 457 1003 q 566 970 531 985 l 566 959 l 423 583 l 406 605 q 565 571 499 610 q 665 463 631 532 q 700 311 700 395 q 662 147 700 220 q 559 32 624 74 q 414 -11 494 -11 z "},"T":{"ha":781,"x_min":73,"x_max":705,"o":"m 369 0 l 369 971 l 412 971 l 412 0 l 369 0 m 73 959 l 73 1000 l 705 1000 l 705 959 l 73 959 z "},"Ŧ":{"ha":781,"x_min":73,"x_max":705,"o":"m 369 0 l 369 971 l 412 971 l 412 0 l 369 0 m 73 959 l 73 1000 l 705 1000 l 705 959 l 73 959 m 256 481 l 256 519 l 528 519 l 528 481 l 256 481 z "},"Ť":{"ha":781,"x_min":73,"x_max":705,"o":"m 369 0 l 369 971 l 412 971 l 412 0 l 369 0 m 73 959 l 73 1000 l 705 1000 l 705 959 l 73 959 m 227 1221 l 388 1086 l 397 1086 l 555 1221 l 582 1187 l 406 1044 l 380 1044 l 199 1187 l 227 1221 z "},"Ţ":{"ha":781,"x_min":73,"x_max":705,"o":"m 369 0 l 369 971 l 412 971 l 412 0 l 369 0 m 73 959 l 73 1000 l 705 1000 l 705 959 l 73 959 m 298 -292 l 298 -250 q 400 -237 361 -252 q 439 -180 439 -222 q 411 -133 439 -152 q 338 -114 382 -114 l 370 0 l 411 0 l 380 -109 l 369 -80 q 448 -118 421 -89 q 475 -183 475 -146 q 428 -265 475 -238 q 298 -292 382 -292 z "},"Ț":{"ha":781,"x_min":73,"x_max":705,"o":"m 369 0 l 369 971 l 412 971 l 412 0 l 369 0 m 73 959 l 73 1000 l 705 1000 l 705 959 l 73 959 m 355 -330 l 332 -308 l 377 -252 q 400 -222 391 -235 q 412 -199 408 -210 q 414 -178 415 -189 l 431 -175 q 419 -195 427 -187 q 401 -202 412 -202 q 370 -187 385 -202 q 355 -149 355 -172 q 370 -114 355 -127 q 401 -100 385 -100 q 438 -117 425 -100 q 450 -160 450 -134 q 442 -202 450 -181 q 422 -241 433 -224 q 404 -269 412 -259 l 355 -330 z "},"Ṭ":{"ha":781,"x_min":73,"x_max":705,"o":"m 369 0 l 369 971 l 412 971 l 412 0 l 369 0 m 73 959 l 73 1000 l 705 1000 l 705 959 l 73 959 m 391 -208 q 349 -191 366 -208 q 332 -149 332 -174 q 349 -107 332 -124 q 391 -91 366 -91 q 432 -107 416 -91 q 449 -149 449 -124 q 432 -191 449 -174 q 391 -208 416 -208 z "},"Ṯ":{"ha":781,"x_min":73,"x_max":705,"o":"m 369 0 l 369 971 l 412 971 l 412 0 l 369 0 m 73 959 l 73 1000 l 705 1000 l 705 959 l 73 959 m 189 -256 l 189 -217 l 593 -217 l 593 -256 l 189 -256 z "},"U":{"ha":781,"x_min":109,"x_max":673,"o":"m 389 -11 q 239 28 302 -11 q 142 138 176 66 q 109 309 109 210 l 109 1000 l 152 1000 l 152 320 q 215 107 152 185 q 389 30 279 30 q 565 107 501 30 q 629 320 629 185 l 629 1000 l 673 1000 l 673 309 q 638 138 673 210 q 541 28 604 66 q 389 -11 477 -11 z "},"Ú":{"ha":781,"x_min":109,"x_max":673,"o":"m 389 -11 q 239 28 302 -11 q 142 138 176 66 q 109 309 109 210 l 109 1000 l 152 1000 l 152 320 q 215 107 152 185 q 389 30 279 30 q 565 107 501 30 q 629 320 629 185 l 629 1000 l 673 1000 l 673 309 q 638 138 673 210 q 541 28 604 66 q 389 -11 477 -11 m 391 1055 l 362 1089 l 543 1275 l 570 1245 l 391 1055 z "},"Ŭ":{"ha":781,"x_min":109,"x_max":673,"o":"m 389 -11 q 239 28 302 -11 q 142 138 176 66 q 109 309 109 210 l 109 1000 l 152 1000 l 152 320 q 215 107 152 185 q 389 30 279 30 q 565 107 501 30 q 629 320 629 185 l 629 1000 l 673 1000 l 673 309 q 638 138 673 210 q 541 28 604 66 q 389 -11 477 -11 m 391 1055 q 298 1077 339 1055 q 232 1134 256 1098 q 208 1214 208 1170 l 245 1214 q 287 1129 245 1162 q 391 1096 329 1096 q 497 1129 455 1096 q 538 1214 538 1162 l 576 1214 q 553 1134 578 1170 q 486 1077 529 1098 q 391 1055 444 1055 z "},"Û":{"ha":781,"x_min":109,"x_max":673,"o":"m 389 -11 q 239 28 302 -11 q 142 138 176 66 q 109 309 109 210 l 109 1000 l 152 1000 l 152 320 q 215 107 152 185 q 389 30 279 30 q 565 107 501 30 q 629 320 629 185 l 629 1000 l 673 1000 l 673 309 q 638 138 673 210 q 541 28 604 66 q 389 -11 477 -11 m 229 1055 l 202 1089 l 382 1232 l 408 1232 l 585 1089 l 557 1055 l 400 1190 l 391 1190 l 229 1055 z "},"Ȕ":{"ha":781,"x_min":109,"x_max":673,"o":"m 389 -11 q 239 28 302 -11 q 142 138 176 66 q 109 309 109 210 l 109 1000 l 152 1000 l 152 320 q 215 107 152 185 q 389 30 279 30 q 565 107 501 30 q 629 320 629 185 l 629 1000 l 673 1000 l 673 309 q 638 138 673 210 q 541 28 604 66 q 389 -11 477 -11 m 279 1086 l 149 1299 l 190 1322 l 308 1100 l 279 1086 m 463 1086 l 340 1299 l 381 1322 l 496 1100 l 463 1086 z "},"Ü":{"ha":781,"x_min":109,"x_max":673,"o":"m 389 -11 q 239 28 302 -11 q 142 138 176 66 q 109 309 109 210 l 109 1000 l 152 1000 l 152 320 q 215 107 152 185 q 389 30 279 30 q 565 107 501 30 q 629 320 629 185 l 629 1000 l 673 1000 l 673 309 q 638 138 673 210 q 541 28 604 66 q 389 -11 477 -11 m 522 1085 q 482 1102 498 1085 q 465 1142 465 1118 q 482 1182 465 1166 q 522 1199 498 1199 q 563 1182 546 1199 q 579 1142 579 1166 q 563 1102 579 1118 q 522 1085 546 1085 m 264 1085 q 224 1102 241 1085 q 208 1142 208 1118 q 224 1182 208 1166 q 264 1199 241 1199 q 305 1182 288 1199 q 321 1142 321 1166 q 305 1102 321 1118 q 264 1085 288 1085 z "},"Ụ":{"ha":781,"x_min":109,"x_max":673,"o":"m 389 -11 q 239 28 302 -11 q 142 138 176 66 q 109 309 109 210 l 109 1000 l 152 1000 l 152 320 q 215 107 152 185 q 389 30 279 30 q 565 107 501 30 q 629 320 629 185 l 629 1000 l 673 1000 l 673 309 q 638 138 673 210 q 541 28 604 66 q 389 -11 477 -11 m 391 -208 q 349 -191 366 -208 q 332 -149 332 -174 q 349 -107 332 -124 q 391 -91 366 -91 q 432 -107 416 -91 q 449 -149 449 -124 q 432 -191 449 -174 q 391 -208 416 -208 z "},"Ù":{"ha":781,"x_min":109,"x_max":673,"o":"m 389 -11 q 239 28 302 -11 q 142 138 176 66 q 109 309 109 210 l 109 1000 l 152 1000 l 152 320 q 215 107 152 185 q 389 30 279 30 q 565 107 501 30 q 629 320 629 185 l 629 1000 l 673 1000 l 673 309 q 638 138 673 210 q 541 28 604 66 q 389 -11 477 -11 m 391 1055 l 212 1245 l 239 1275 l 419 1089 l 391 1055 z "},"Ủ":{"ha":781,"x_min":109,"x_max":673,"o":"m 389 -11 q 239 28 302 -11 q 142 138 176 66 q 109 309 109 210 l 109 1000 l 152 1000 l 152 320 q 215 107 152 185 q 389 30 279 30 q 565 107 501 30 q 629 320 629 185 l 629 1000 l 673 1000 l 673 309 q 638 138 673 210 q 541 28 604 66 q 389 -11 477 -11 m 406 1097 l 381 1127 q 426 1164 407 1141 q 445 1214 445 1187 q 426 1257 445 1242 q 376 1272 408 1272 q 339 1269 357 1272 q 304 1259 320 1265 l 304 1299 q 341 1309 321 1307 q 374 1312 361 1312 q 453 1285 425 1312 q 480 1217 480 1259 q 460 1148 480 1181 q 406 1097 439 1115 z "},"Ư":{"ha":781,"x_min":109,"x_max":850,"o":"m 389 -11 q 239 28 302 -11 q 142 138 176 66 q 109 309 109 210 l 109 1000 l 152 1000 l 152 320 q 215 107 152 185 q 389 30 279 30 q 565 107 501 30 q 629 320 629 185 l 629 1000 l 673 1000 l 673 309 q 638 138 673 210 q 541 28 604 66 q 389 -11 477 -11 m 651 966 l 651 1000 q 762 1040 718 1001 q 806 1153 806 1080 q 804 1189 806 1171 q 800 1217 802 1208 l 844 1222 q 848 1190 846 1211 q 850 1147 850 1168 q 824 1045 850 1086 q 752 984 797 1004 q 651 966 707 964 z "},"Ứ":{"ha":781,"x_min":109,"x_max":850,"o":"m 389 -11 q 239 28 302 -11 q 142 138 176 66 q 109 309 109 210 l 109 1000 l 152 1000 l 152 320 q 215 107 152 185 q 389 30 279 30 q 565 107 501 30 q 629 320 629 185 l 629 1000 l 673 1000 l 673 309 q 638 138 673 210 q 541 28 604 66 q 389 -11 477 -11 m 651 966 l 651 1000 q 762 1040 718 1001 q 806 1153 806 1080 q 804 1189 806 1171 q 800 1217 802 1208 l 844 1222 q 848 1190 846 1211 q 850 1147 850 1168 q 824 1045 850 1086 q 752 984 797 1004 q 651 966 707 964 m 391 1055 l 362 1089 l 543 1275 l 570 1245 l 391 1055 z "},"Ự":{"ha":781,"x_min":109,"x_max":850,"o":"m 389 -11 q 239 28 302 -11 q 142 138 176 66 q 109 309 109 210 l 109 1000 l 152 1000 l 152 320 q 215 107 152 185 q 389 30 279 30 q 565 107 501 30 q 629 320 629 185 l 629 1000 l 673 1000 l 673 309 q 638 138 673 210 q 541 28 604 66 q 389 -11 477 -11 m 651 966 l 651 1000 q 762 1040 718 1001 q 806 1153 806 1080 q 804 1189 806 1171 q 800 1217 802 1208 l 844 1222 q 848 1190 846 1211 q 850 1147 850 1168 q 824 1045 850 1086 q 752 984 797 1004 q 651 966 707 964 m 391 -208 q 349 -191 366 -208 q 332 -149 332 -174 q 349 -107 332 -124 q 391 -91 366 -91 q 432 -107 416 -91 q 449 -149 449 -124 q 432 -191 449 -174 q 391 -208 416 -208 z "},"Ừ":{"ha":781,"x_min":109,"x_max":850,"o":"m 389 -11 q 239 28 302 -11 q 142 138 176 66 q 109 309 109 210 l 109 1000 l 152 1000 l 152 320 q 215 107 152 185 q 389 30 279 30 q 565 107 501 30 q 629 320 629 185 l 629 1000 l 673 1000 l 673 309 q 638 138 673 210 q 541 28 604 66 q 389 -11 477 -11 m 651 966 l 651 1000 q 762 1040 718 1001 q 806 1153 806 1080 q 804 1189 806 1171 q 800 1217 802 1208 l 844 1222 q 848 1190 846 1211 q 850 1147 850 1168 q 824 1045 850 1086 q 752 984 797 1004 q 651 966 707 964 m 391 1055 l 212 1245 l 239 1275 l 419 1089 l 391 1055 z "},"Ử":{"ha":781,"x_min":109,"x_max":850,"o":"m 389 -11 q 239 28 302 -11 q 142 138 176 66 q 109 309 109 210 l 109 1000 l 152 1000 l 152 320 q 215 107 152 185 q 389 30 279 30 q 565 107 501 30 q 629 320 629 185 l 629 1000 l 673 1000 l 673 309 q 638 138 673 210 q 541 28 604 66 q 389 -11 477 -11 m 651 966 l 651 1000 q 762 1040 718 1001 q 806 1153 806 1080 q 804 1189 806 1171 q 800 1217 802 1208 l 844 1222 q 848 1190 846 1211 q 850 1147 850 1168 q 824 1045 850 1086 q 752 984 797 1004 q 651 966 707 964 m 406 1097 l 381 1127 q 426 1164 407 1141 q 445 1214 445 1187 q 426 1257 445 1242 q 376 1272 408 1272 q 339 1269 357 1272 q 304 1259 320 1265 l 304 1299 q 341 1309 321 1307 q 374 1312 361 1312 q 453 1285 425 1312 q 480 1217 480 1259 q 460 1148 480 1181 q 406 1097 439 1115 z "},"Ữ":{"ha":781,"x_min":109,"x_max":850,"o":"m 389 -11 q 239 28 302 -11 q 142 138 176 66 q 109 309 109 210 l 109 1000 l 152 1000 l 152 320 q 215 107 152 185 q 389 30 279 30 q 565 107 501 30 q 629 320 629 185 l 629 1000 l 673 1000 l 673 309 q 638 138 673 210 q 541 28 604 66 q 389 -11 477 -11 m 651 966 l 651 1000 q 762 1040 718 1001 q 806 1153 806 1080 q 804 1189 806 1171 q 800 1217 802 1208 l 844 1222 q 848 1190 846 1211 q 850 1147 850 1168 q 824 1045 850 1086 q 752 984 797 1004 q 651 966 707 964 m 202 1084 q 234 1178 204 1142 q 308 1214 264 1214 q 361 1200 339 1214 q 400 1168 382 1186 q 434 1136 417 1149 q 472 1122 451 1122 q 519 1149 503 1122 q 536 1214 536 1177 l 575 1214 q 548 1120 576 1157 q 472 1084 519 1084 q 422 1097 444 1084 q 383 1128 401 1110 q 347 1159 365 1145 q 305 1172 328 1172 q 261 1148 279 1172 q 244 1084 244 1124 l 202 1084 z "},"Ű":{"ha":781,"x_min":109,"x_max":673,"o":"m 389 -11 q 239 28 302 -11 q 142 138 176 66 q 109 309 109 210 l 109 1000 l 152 1000 l 152 320 q 215 107 152 185 q 389 30 279 30 q 565 107 501 30 q 629 320 629 185 l 629 1000 l 673 1000 l 673 309 q 638 138 673 210 q 541 28 604 66 q 389 -11 477 -11 m 317 1086 l 286 1100 l 406 1322 l 442 1299 l 317 1086 m 503 1086 l 477 1100 l 591 1322 l 631 1299 l 503 1086 z "},"Ȗ":{"ha":781,"x_min":109,"x_max":673,"o":"m 389 -11 q 239 28 302 -11 q 142 138 176 66 q 109 309 109 210 l 109 1000 l 152 1000 l 152 320 q 215 107 152 185 q 389 30 279 30 q 565 107 501 30 q 629 320 629 185 l 629 1000 l 673 1000 l 673 309 q 638 138 673 210 q 541 28 604 66 q 389 -11 477 -11 m 389 1222 q 485 1201 442 1222 q 552 1143 528 1179 q 575 1063 576 1107 l 537 1063 q 495 1148 537 1116 q 389 1181 454 1181 q 286 1148 328 1181 q 244 1063 244 1116 l 206 1063 q 231 1143 206 1107 q 296 1201 255 1179 q 389 1222 338 1222 z "},"Ū":{"ha":781,"x_min":109,"x_max":673,"o":"m 389 -11 q 239 28 302 -11 q 142 138 176 66 q 109 309 109 210 l 109 1000 l 152 1000 l 152 320 q 215 107 152 185 q 389 30 279 30 q 565 107 501 30 q 629 320 629 185 l 629 1000 l 673 1000 l 673 309 q 638 138 673 210 q 541 28 604 66 q 389 -11 477 -11 m 168 1122 l 168 1164 l 612 1164 l 612 1122 l 168 1122 z "},"Ṻ":{"ha":781,"x_min":109,"x_max":673,"o":"m 389 -11 q 239 28 302 -11 q 142 138 176 66 q 109 309 109 210 l 109 1000 l 152 1000 l 152 320 q 215 107 152 185 q 389 30 279 30 q 565 107 501 30 q 629 320 629 185 l 629 1000 l 673 1000 l 673 309 q 638 138 673 210 q 541 28 604 66 q 389 -11 477 -11 m 168 1122 l 168 1164 l 612 1164 l 612 1122 l 168 1122 m 522 1249 q 482 1266 498 1249 q 465 1306 465 1282 q 482 1347 465 1330 q 522 1363 498 1363 q 563 1347 546 1363 q 579 1306 579 1330 q 563 1266 579 1282 q 522 1249 546 1249 m 264 1249 q 224 1266 241 1249 q 208 1306 208 1282 q 224 1347 208 1330 q 264 1363 241 1363 q 305 1347 288 1363 q 321 1306 321 1330 q 305 1266 321 1282 q 264 1249 288 1249 z "},"Ų":{"ha":781,"x_min":109,"x_max":673,"o":"m 389 -11 q 239 28 302 -11 q 142 138 176 66 q 109 309 109 210 l 109 1000 l 152 1000 l 152 320 q 215 107 152 185 q 389 30 279 30 q 565 107 501 30 q 629 320 629 185 l 629 1000 l 673 1000 l 673 309 q 638 138 673 210 q 541 28 604 66 q 389 -11 477 -11 m 411 -264 q 348 -236 372 -264 q 323 -164 323 -208 q 359 -67 323 -110 q 437 16 396 -25 l 468 0 q 419 -55 445 -29 q 376 -108 394 -81 q 358 -164 358 -134 q 376 -209 358 -193 q 418 -225 395 -225 q 462 -215 441 -225 q 496 -194 482 -204 l 496 -236 q 458 -256 482 -248 q 411 -264 433 -264 z "},"Ů":{"ha":781,"x_min":109,"x_max":673,"o":"m 389 -11 q 239 28 302 -11 q 142 138 176 66 q 109 309 109 210 l 109 1000 l 152 1000 l 152 320 q 215 107 152 185 q 389 30 279 30 q 565 107 501 30 q 629 320 629 185 l 629 1000 l 673 1000 l 673 309 q 638 138 673 210 q 541 28 604 66 q 389 -11 477 -11 m 391 1044 q 329 1061 357 1044 q 284 1107 300 1078 q 267 1172 267 1136 q 284 1239 267 1209 q 329 1285 300 1268 q 391 1302 357 1302 q 453 1285 425 1302 q 498 1239 481 1268 q 514 1172 514 1209 q 498 1107 514 1136 q 453 1061 481 1078 q 391 1044 425 1044 m 391 1086 q 452 1112 429 1086 q 475 1172 475 1137 q 451 1237 475 1212 q 391 1261 427 1261 q 330 1237 355 1261 q 304 1172 304 1212 q 330 1112 304 1137 q 391 1086 355 1086 z "},"Ũ":{"ha":781,"x_min":109,"x_max":673,"o":"m 389 -11 q 239 28 302 -11 q 142 138 176 66 q 109 309 109 210 l 109 1000 l 152 1000 l 152 320 q 215 107 152 185 q 389 30 279 30 q 565 107 501 30 q 629 320 629 185 l 629 1000 l 673 1000 l 673 309 q 638 138 673 210 q 541 28 604 66 q 389 -11 477 -11 m 202 1084 q 234 1178 204 1142 q 308 1214 264 1214 q 361 1200 339 1214 q 400 1168 382 1186 q 434 1136 417 1149 q 472 1122 451 1122 q 519 1149 503 1122 q 536 1214 536 1177 l 575 1214 q 548 1120 576 1157 q 472 1084 519 1084 q 422 1097 444 1084 q 383 1128 401 1110 q 347 1159 365 1145 q 305 1172 328 1172 q 261 1148 279 1172 q 244 1084 244 1124 l 202 1084 z "},"Ṹ":{"ha":781,"x_min":109,"x_max":673,"o":"m 389 -11 q 239 28 302 -11 q 142 138 176 66 q 109 309 109 210 l 109 1000 l 152 1000 l 152 320 q 215 107 152 185 q 389 30 279 30 q 565 107 501 30 q 629 320 629 185 l 629 1000 l 673 1000 l 673 309 q 638 138 673 210 q 541 28 604 66 q 389 -11 477 -11 m 202 1084 q 234 1178 204 1142 q 308 1214 264 1214 q 361 1200 339 1214 q 400 1168 382 1186 q 434 1136 417 1149 q 472 1122 451 1122 q 519 1149 503 1122 q 536 1214 536 1177 l 575 1214 q 548 1120 576 1157 q 472 1084 519 1084 q 422 1097 444 1084 q 383 1128 401 1110 q 347 1159 365 1145 q 305 1172 328 1172 q 261 1148 279 1172 q 244 1084 244 1124 l 202 1084 m 391 1245 l 362 1279 l 543 1465 l 570 1435 l 391 1245 z "},"V":{"ha":781,"x_min":19,"x_max":760,"o":"m 366 0 l 19 1000 l 65 1000 l 270 407 l 388 53 l 392 53 l 511 407 l 713 1000 l 760 1000 l 415 0 l 366 0 z "},"W":{"ha":781,"x_min":43,"x_max":738,"o":"m 178 0 q 121 229 153 110 q 66 470 90 348 q 43 712 43 593 l 43 1000 l 87 1000 l 87 712 q 107 483 87 596 q 154 263 127 369 q 202 62 181 157 l 208 62 l 377 637 l 404 637 l 574 62 l 579 62 q 627 245 600 139 q 674 473 654 352 q 694 713 694 594 l 694 1000 l 738 1000 l 738 712 q 715 472 738 595 q 661 230 692 350 q 604 0 630 111 l 551 0 l 393 536 l 388 536 l 231 0 l 178 0 z "},"Ẃ":{"ha":781,"x_min":43,"x_max":738,"o":"m 178 0 q 121 229 153 110 q 66 470 90 348 q 43 712 43 593 l 43 1000 l 87 1000 l 87 712 q 107 483 87 596 q 154 263 127 369 q 202 62 181 157 l 208 62 l 377 637 l 404 637 l 574 62 l 579 62 q 627 245 600 139 q 674 473 654 352 q 694 713 694 594 l 694 1000 l 738 1000 l 738 712 q 715 472 738 595 q 661 230 692 350 q 604 0 630 111 l 551 0 l 393 536 l 388 536 l 231 0 l 178 0 m 391 1055 l 362 1089 l 543 1275 l 570 1245 l 391 1055 z "},"Ŵ":{"ha":781,"x_min":43,"x_max":738,"o":"m 178 0 q 121 229 153 110 q 66 470 90 348 q 43 712 43 593 l 43 1000 l 87 1000 l 87 712 q 107 483 87 596 q 154 263 127 369 q 202 62 181 157 l 208 62 l 377 637 l 404 637 l 574 62 l 579 62 q 627 245 600 139 q 674 473 654 352 q 694 713 694 594 l 694 1000 l 738 1000 l 738 712 q 715 472 738 595 q 661 230 692 350 q 604 0 630 111 l 551 0 l 393 536 l 388 536 l 231 0 l 178 0 m 229 1055 l 202 1089 l 382 1232 l 408 1232 l 585 1089 l 557 1055 l 400 1190 l 391 1190 l 229 1055 z "},"Ẅ":{"ha":781,"x_min":43,"x_max":738,"o":"m 178 0 q 121 229 153 110 q 66 470 90 348 q 43 712 43 593 l 43 1000 l 87 1000 l 87 712 q 107 483 87 596 q 154 263 127 369 q 202 62 181 157 l 208 62 l 377 637 l 404 637 l 574 62 l 579 62 q 627 245 600 139 q 674 473 654 352 q 694 713 694 594 l 694 1000 l 738 1000 l 738 712 q 715 472 738 595 q 661 230 692 350 q 604 0 630 111 l 551 0 l 393 536 l 388 536 l 231 0 l 178 0 m 522 1085 q 482 1102 498 1085 q 465 1142 465 1118 q 482 1182 465 1166 q 522 1199 498 1199 q 563 1182 546 1199 q 579 1142 579 1166 q 563 1102 579 1118 q 522 1085 546 1085 m 264 1085 q 224 1102 241 1085 q 208 1142 208 1118 q 224 1182 208 1166 q 264 1199 241 1199 q 305 1182 288 1199 q 321 1142 321 1166 q 305 1102 321 1118 q 264 1085 288 1085 z "},"Ẁ":{"ha":781,"x_min":43,"x_max":738,"o":"m 178 0 q 121 229 153 110 q 66 470 90 348 q 43 712 43 593 l 43 1000 l 87 1000 l 87 712 q 107 483 87 596 q 154 263 127 369 q 202 62 181 157 l 208 62 l 377 637 l 404 637 l 574 62 l 579 62 q 627 245 600 139 q 674 473 654 352 q 694 713 694 594 l 694 1000 l 738 1000 l 738 712 q 715 472 738 595 q 661 230 692 350 q 604 0 630 111 l 551 0 l 393 536 l 388 536 l 231 0 l 178 0 m 391 1055 l 212 1245 l 239 1275 l 419 1089 l 391 1055 z "},"X":{"ha":781,"x_min":60,"x_max":720,"o":"m 669 0 l 392 468 l 385 468 l 362 495 l 362 500 l 60 1000 l 109 1000 l 388 532 l 395 532 l 418 503 l 418 498 l 720 0 l 669 0 m 60 0 l 362 498 l 362 503 l 385 532 l 392 532 l 671 1000 l 720 1000 l 418 500 l 418 495 l 395 468 l 388 468 l 111 0 l 60 0 z "},"Y":{"ha":781,"x_min":45,"x_max":734,"o":"m 368 0 l 368 461 l 45 1000 l 94 1000 l 266 707 l 387 507 l 392 507 l 513 707 l 685 1000 l 734 1000 l 411 461 l 411 0 l 368 0 z "},"Ý":{"ha":781,"x_min":45,"x_max":734,"o":"m 368 0 l 368 461 l 45 1000 l 94 1000 l 266 707 l 387 507 l 392 507 l 513 707 l 685 1000 l 734 1000 l 411 461 l 411 0 l 368 0 m 389 1055 l 361 1089 l 541 1275 l 568 1245 l 389 1055 z "},"Ŷ":{"ha":781,"x_min":45,"x_max":734,"o":"m 368 0 l 368 461 l 45 1000 l 94 1000 l 266 707 l 387 507 l 392 507 l 513 707 l 685 1000 l 734 1000 l 411 461 l 411 0 l 368 0 m 228 1055 l 201 1089 l 381 1232 l 407 1232 l 583 1089 l 556 1055 l 399 1190 l 389 1190 l 228 1055 z "},"Ÿ":{"ha":781,"x_min":45,"x_max":734,"o":"m 368 0 l 368 461 l 45 1000 l 94 1000 l 266 707 l 387 507 l 392 507 l 513 707 l 685 1000 l 734 1000 l 411 461 l 411 0 l 368 0 m 521 1085 q 480 1102 497 1085 q 464 1142 464 1118 q 480 1182 464 1166 q 521 1199 497 1199 q 561 1182 545 1199 q 578 1142 578 1166 q 561 1102 578 1118 q 521 1085 545 1085 m 263 1085 q 223 1102 239 1085 q 206 1142 206 1118 q 223 1182 206 1166 q 263 1199 239 1199 q 303 1182 287 1199 q 320 1142 320 1166 q 303 1102 320 1118 q 263 1085 287 1085 z "},"Ẏ":{"ha":781,"x_min":45,"x_max":734,"o":"m 368 0 l 368 461 l 45 1000 l 94 1000 l 266 707 l 387 507 l 392 507 l 513 707 l 685 1000 l 734 1000 l 411 461 l 411 0 l 368 0 m 389 1081 q 348 1098 364 1081 q 331 1139 331 1114 q 348 1181 331 1164 q 389 1198 364 1198 q 431 1181 414 1198 q 448 1139 448 1164 q 431 1098 448 1114 q 389 1081 414 1081 z "},"Ỵ":{"ha":781,"x_min":45,"x_max":734,"o":"m 368 0 l 368 461 l 45 1000 l 94 1000 l 266 707 l 387 507 l 392 507 l 513 707 l 685 1000 l 734 1000 l 411 461 l 411 0 l 368 0 m 388 -208 q 346 -191 363 -208 q 330 -149 330 -174 q 346 -107 330 -124 q 388 -91 363 -91 q 430 -107 413 -91 q 446 -149 446 -124 q 430 -191 446 -174 q 388 -208 413 -208 z "},"Ỳ":{"ha":781,"x_min":45,"x_max":734,"o":"m 368 0 l 368 461 l 45 1000 l 94 1000 l 266 707 l 387 507 l 392 507 l 513 707 l 685 1000 l 734 1000 l 411 461 l 411 0 l 368 0 m 389 1055 l 210 1245 l 237 1275 l 418 1089 l 389 1055 z "},"Ỷ":{"ha":781,"x_min":45,"x_max":734,"o":"m 368 0 l 368 461 l 45 1000 l 94 1000 l 266 707 l 387 507 l 392 507 l 513 707 l 685 1000 l 734 1000 l 411 461 l 411 0 l 368 0 m 404 1097 l 380 1127 q 425 1164 406 1141 q 444 1214 444 1187 q 425 1257 444 1242 q 374 1272 406 1272 q 337 1269 356 1272 q 302 1259 319 1265 l 302 1299 q 340 1309 320 1307 q 373 1312 360 1312 q 451 1285 424 1312 q 479 1217 479 1259 q 458 1148 479 1181 q 404 1097 438 1115 z "},"Ȳ":{"ha":781,"x_min":45,"x_max":734,"o":"m 368 0 l 368 461 l 45 1000 l 94 1000 l 266 707 l 387 507 l 392 507 l 513 707 l 685 1000 l 734 1000 l 411 461 l 411 0 l 368 0 m 167 1122 l 167 1164 l 610 1164 l 610 1122 l 167 1122 z "},"Ỹ":{"ha":781,"x_min":45,"x_max":734,"o":"m 368 0 l 368 461 l 45 1000 l 94 1000 l 266 707 l 387 507 l 392 507 l 513 707 l 685 1000 l 734 1000 l 411 461 l 411 0 l 368 0 m 201 1084 q 233 1178 203 1142 q 307 1214 263 1214 q 359 1200 338 1214 q 398 1168 381 1186 q 433 1136 416 1149 q 471 1122 450 1122 q 518 1149 501 1122 q 534 1214 534 1177 l 574 1214 q 546 1120 575 1157 q 471 1084 517 1084 q 421 1097 442 1084 q 381 1128 399 1110 q 345 1159 363 1145 q 304 1172 327 1172 q 260 1148 277 1172 q 243 1084 243 1124 l 201 1084 z "},"Z":{"ha":781,"x_min":92,"x_max":686,"o":"m 92 0 l 92 24 l 613 956 l 613 959 l 125 959 l 125 1000 l 673 1000 l 673 975 l 153 43 l 153 41 l 686 41 l 686 0 l 92 0 z "},"Ź":{"ha":781,"x_min":92,"x_max":686,"o":"m 92 0 l 92 24 l 613 956 l 613 959 l 125 959 l 125 1000 l 673 1000 l 673 975 l 153 43 l 153 41 l 686 41 l 686 0 l 92 0 m 404 1055 l 376 1089 l 556 1275 l 583 1245 l 404 1055 z "},"Ž":{"ha":781,"x_min":92,"x_max":686,"o":"m 92 0 l 92 24 l 613 956 l 613 959 l 125 959 l 125 1000 l 673 1000 l 673 975 l 153 43 l 153 41 l 686 41 l 686 0 l 92 0 m 240 1221 l 401 1086 l 411 1086 l 568 1221 l 595 1187 l 419 1044 l 393 1044 l 213 1187 l 240 1221 z "},"Ż":{"ha":781,"x_min":92,"x_max":686,"o":"m 92 0 l 92 24 l 613 956 l 613 959 l 125 959 l 125 1000 l 673 1000 l 673 975 l 153 43 l 153 41 l 686 41 l 686 0 l 92 0 m 404 1081 q 362 1098 379 1081 q 346 1139 346 1114 q 362 1181 346 1164 q 404 1198 379 1198 q 446 1181 429 1198 q 463 1139 463 1164 q 446 1098 463 1114 q 404 1081 429 1081 z "},"Ẓ":{"ha":781,"x_min":92,"x_max":686,"o":"m 92 0 l 92 24 l 613 956 l 613 959 l 125 959 l 125 1000 l 673 1000 l 673 975 l 153 43 l 153 41 l 686 41 l 686 0 l 92 0 m 408 -208 q 367 -191 383 -208 q 350 -149 350 -174 q 367 -107 350 -124 q 408 -91 383 -91 q 450 -107 433 -91 q 467 -149 467 -124 q 450 -191 467 -174 q 408 -208 433 -208 z "},"a":{"ha":781,"x_min":98,"x_max":684,"o":"m 327 -11 q 211 16 262 -11 q 128 89 159 43 q 98 194 98 135 q 139 314 98 263 q 259 393 180 365 q 454 420 339 420 l 593 420 l 593 382 l 453 382 q 279 359 349 382 q 174 293 210 335 q 138 194 138 250 q 164 110 138 147 q 232 50 189 72 q 327 27 275 27 q 445 58 388 27 q 539 138 503 89 q 576 244 576 188 l 576 374 l 576 381 l 576 469 q 568 556 576 517 q 538 624 559 595 q 479 668 517 652 q 381 684 441 684 q 310 673 351 684 q 230 646 269 663 q 163 609 190 629 l 148 646 q 218 685 176 667 q 304 712 260 702 q 384 722 349 722 q 529 687 479 722 q 598 594 580 652 q 617 464 617 536 l 617 157 q 634 74 617 106 q 678 28 652 42 l 684 26 l 669 -11 l 652 -3 q 600 48 616 16 q 576 127 584 81 l 582 122 l 566 122 l 576 127 q 477 31 542 72 q 327 -11 412 -11 z "},"á":{"ha":781,"x_min":98,"x_max":684,"o":"m 327 -11 q 211 16 262 -11 q 128 89 159 43 q 98 194 98 135 q 139 314 98 263 q 259 393 180 365 q 454 420 339 420 l 593 420 l 593 382 l 453 382 q 279 359 349 382 q 174 293 210 335 q 138 194 138 250 q 164 110 138 147 q 232 50 189 72 q 327 27 275 27 q 445 58 388 27 q 539 138 503 89 q 576 244 576 188 l 576 374 l 576 381 l 576 469 q 568 556 576 517 q 538 624 559 595 q 479 668 517 652 q 381 684 441 684 q 310 673 351 684 q 230 646 269 663 q 163 609 190 629 l 148 646 q 218 685 176 667 q 304 712 260 702 q 384 722 349 722 q 529 687 479 722 q 598 594 580 652 q 617 464 617 536 l 617 157 q 634 74 617 106 q 678 28 652 42 l 684 26 l 669 -11 l 652 -3 q 600 48 616 16 q 576 127 584 81 l 582 122 l 566 122 l 576 127 q 477 31 542 72 q 327 -11 412 -11 m 378 808 l 347 833 l 511 1046 l 541 1023 l 378 808 z "},"ă":{"ha":781,"x_min":98,"x_max":684,"o":"m 327 -11 q 211 16 262 -11 q 128 89 159 43 q 98 194 98 135 q 139 314 98 263 q 259 393 180 365 q 454 420 339 420 l 593 420 l 593 382 l 453 382 q 279 359 349 382 q 174 293 210 335 q 138 194 138 250 q 164 110 138 147 q 232 50 189 72 q 327 27 275 27 q 445 58 388 27 q 539 138 503 89 q 576 244 576 188 l 576 374 l 576 381 l 576 469 q 568 556 576 517 q 538 624 559 595 q 479 668 517 652 q 381 684 441 684 q 310 673 351 684 q 230 646 269 663 q 163 609 190 629 l 148 646 q 218 685 176 667 q 304 712 260 702 q 384 722 349 722 q 529 687 479 722 q 598 594 580 652 q 617 464 617 536 l 617 157 q 634 74 617 106 q 678 28 652 42 l 684 26 l 669 -11 l 652 -3 q 600 48 616 16 q 576 127 584 81 l 582 122 l 566 122 l 576 127 q 477 31 542 72 q 327 -11 412 -11 m 387 830 q 293 855 335 830 q 226 923 251 880 q 201 1020 201 966 l 239 1020 q 282 913 239 956 q 387 869 325 869 q 492 913 449 869 q 534 1020 534 956 l 572 1020 q 547 923 572 966 q 480 855 522 880 q 387 830 438 830 z "},"ắ":{"ha":781,"x_min":98,"x_max":684,"o":"m 327 -11 q 211 16 262 -11 q 128 89 159 43 q 98 194 98 135 q 139 314 98 263 q 259 393 180 365 q 454 420 339 420 l 593 420 l 593 382 l 453 382 q 279 359 349 382 q 174 293 210 335 q 138 194 138 250 q 164 110 138 147 q 232 50 189 72 q 327 27 275 27 q 445 58 388 27 q 539 138 503 89 q 576 244 576 188 l 576 374 l 576 381 l 576 469 q 568 556 576 517 q 538 624 559 595 q 479 668 517 652 q 381 684 441 684 q 310 673 351 684 q 230 646 269 663 q 163 609 190 629 l 148 646 q 218 685 176 667 q 304 712 260 702 q 384 722 349 722 q 529 687 479 722 q 598 594 580 652 q 617 464 617 536 l 617 157 q 634 74 617 106 q 678 28 652 42 l 684 26 l 669 -11 l 652 -3 q 600 48 616 16 q 576 127 584 81 l 582 122 l 566 122 l 576 127 q 477 31 542 72 q 327 -11 412 -11 m 365 936 l 339 966 l 519 1154 l 547 1124 l 365 936 m 385 830 q 290 852 332 830 q 223 912 248 874 q 199 1000 199 951 l 240 1000 q 281 905 240 943 q 385 868 322 868 q 488 905 448 868 q 528 1000 528 943 l 568 1000 q 545 912 568 951 q 479 852 521 874 q 385 830 438 830 z "},"ặ":{"ha":781,"x_min":98,"x_max":684,"o":"m 327 -11 q 211 16 262 -11 q 128 89 159 43 q 98 194 98 135 q 139 314 98 263 q 259 393 180 365 q 454 420 339 420 l 593 420 l 593 382 l 453 382 q 279 359 349 382 q 174 293 210 335 q 138 194 138 250 q 164 110 138 147 q 232 50 189 72 q 327 27 275 27 q 445 58 388 27 q 539 138 503 89 q 576 244 576 188 l 576 374 l 576 381 l 576 469 q 568 556 576 517 q 538 624 559 595 q 479 668 517 652 q 381 684 441 684 q 310 673 351 684 q 230 646 269 663 q 163 609 190 629 l 148 646 q 218 685 176 667 q 304 712 260 702 q 384 722 349 722 q 529 687 479 722 q 598 594 580 652 q 617 464 617 536 l 617 157 q 634 74 617 106 q 678 28 652 42 l 684 26 l 669 -11 l 652 -3 q 600 48 616 16 q 576 127 584 81 l 582 122 l 566 122 l 576 127 q 477 31 542 72 q 327 -11 412 -11 m 373 -208 q 331 -191 348 -208 q 315 -149 315 -174 q 331 -107 315 -124 q 373 -91 348 -91 q 415 -107 398 -91 q 431 -149 431 -124 q 415 -191 431 -174 q 373 -208 398 -208 m 387 830 q 293 855 335 830 q 226 923 251 880 q 201 1020 201 966 l 239 1020 q 282 913 239 956 q 387 869 325 869 q 492 913 449 869 q 534 1020 534 956 l 572 1020 q 547 923 572 966 q 480 855 522 880 q 387 830 438 830 z "},"ằ":{"ha":781,"x_min":98,"x_max":684,"o":"m 327 -11 q 211 16 262 -11 q 128 89 159 43 q 98 194 98 135 q 139 314 98 263 q 259 393 180 365 q 454 420 339 420 l 593 420 l 593 382 l 453 382 q 279 359 349 382 q 174 293 210 335 q 138 194 138 250 q 164 110 138 147 q 232 50 189 72 q 327 27 275 27 q 445 58 388 27 q 539 138 503 89 q 576 244 576 188 l 576 374 l 576 381 l 576 469 q 568 556 576 517 q 538 624 559 595 q 479 668 517 652 q 381 684 441 684 q 310 673 351 684 q 230 646 269 663 q 163 609 190 629 l 148 646 q 218 685 176 667 q 304 712 260 702 q 384 722 349 722 q 529 687 479 722 q 598 594 580 652 q 617 464 617 536 l 617 157 q 634 74 617 106 q 678 28 652 42 l 684 26 l 669 -11 l 652 -3 q 600 48 616 16 q 576 127 584 81 l 582 122 l 566 122 l 576 127 q 477 31 542 72 q 327 -11 412 -11 m 403 936 l 221 1124 l 248 1154 l 429 966 l 403 936 m 382 830 q 288 852 330 830 q 223 912 247 874 q 199 1000 199 951 l 240 1000 q 280 905 240 943 q 382 868 321 868 q 487 905 446 868 q 528 1000 528 943 l 568 1000 q 544 912 568 951 q 478 852 520 874 q 382 830 437 830 z "},"ẳ":{"ha":781,"x_min":98,"x_max":684,"o":"m 327 -11 q 211 16 262 -11 q 128 89 159 43 q 98 194 98 135 q 139 314 98 263 q 259 393 180 365 q 454 420 339 420 l 593 420 l 593 382 l 453 382 q 279 359 349 382 q 174 293 210 335 q 138 194 138 250 q 164 110 138 147 q 232 50 189 72 q 327 27 275 27 q 445 58 388 27 q 539 138 503 89 q 576 244 576 188 l 576 374 l 576 381 l 576 469 q 568 556 576 517 q 538 624 559 595 q 479 668 517 652 q 381 684 441 684 q 310 673 351 684 q 230 646 269 663 q 163 609 190 629 l 148 646 q 218 685 176 667 q 304 712 260 702 q 384 722 349 722 q 529 687 479 722 q 598 594 580 652 q 617 464 617 536 l 617 157 q 634 74 617 106 q 678 28 652 42 l 684 26 l 669 -11 l 652 -3 q 600 48 616 16 q 576 127 584 81 l 582 122 l 566 122 l 576 127 q 477 31 542 72 q 327 -11 412 -11 m 382 830 q 288 852 330 830 q 223 912 247 874 q 199 1000 199 951 l 240 1000 q 280 905 240 943 q 382 868 321 868 q 487 905 446 868 q 528 1000 528 943 l 568 1000 q 544 912 568 951 q 478 852 520 874 q 382 830 437 830 m 397 941 l 373 971 q 418 1008 399 985 q 437 1058 437 1031 q 418 1101 437 1086 q 368 1116 399 1116 q 331 1113 349 1116 q 296 1103 312 1109 l 296 1143 q 333 1153 313 1151 q 366 1156 353 1156 q 445 1129 417 1156 q 472 1061 472 1103 q 452 992 472 1025 q 397 941 431 959 z "},"ẵ":{"ha":781,"x_min":98,"x_max":684,"o":"m 327 -11 q 211 16 262 -11 q 128 89 159 43 q 98 194 98 135 q 139 314 98 263 q 259 393 180 365 q 454 420 339 420 l 593 420 l 593 382 l 453 382 q 279 359 349 382 q 174 293 210 335 q 138 194 138 250 q 164 110 138 147 q 232 50 189 72 q 327 27 275 27 q 445 58 388 27 q 539 138 503 89 q 576 244 576 188 l 576 374 l 576 381 l 576 469 q 568 556 576 517 q 538 624 559 595 q 479 668 517 652 q 381 684 441 684 q 310 673 351 684 q 230 646 269 663 q 163 609 190 629 l 148 646 q 218 685 176 667 q 304 712 260 702 q 384 722 349 722 q 529 687 479 722 q 598 594 580 652 q 617 464 617 536 l 617 157 q 634 74 617 106 q 678 28 652 42 l 684 26 l 669 -11 l 652 -3 q 600 48 616 16 q 576 127 584 81 l 582 122 l 566 122 l 576 127 q 477 31 542 72 q 327 -11 412 -11 m 198 1044 q 228 1133 198 1103 q 304 1162 257 1162 q 356 1151 334 1162 q 394 1124 377 1139 q 427 1097 410 1108 q 465 1085 444 1085 q 512 1105 495 1085 q 529 1162 529 1125 l 570 1162 q 557 1099 571 1125 q 519 1058 544 1072 q 464 1044 495 1044 q 416 1057 437 1044 q 377 1084 395 1069 q 341 1112 359 1100 q 301 1124 323 1124 q 256 1105 273 1124 q 239 1044 239 1086 l 198 1044 m 382 830 q 288 852 330 830 q 223 912 247 874 q 199 1000 199 951 l 240 1000 q 280 905 240 943 q 382 868 321 868 q 487 905 446 868 q 528 1000 528 943 l 568 1000 q 544 912 568 951 q 478 852 520 874 q 382 830 437 830 z "},"ǎ":{"ha":781,"x_min":98,"x_max":684,"o":"m 327 -11 q 211 16 262 -11 q 128 89 159 43 q 98 194 98 135 q 139 314 98 263 q 259 393 180 365 q 454 420 339 420 l 593 420 l 593 382 l 453 382 q 279 359 349 382 q 174 293 210 335 q 138 194 138 250 q 164 110 138 147 q 232 50 189 72 q 327 27 275 27 q 445 58 388 27 q 539 138 503 89 q 576 244 576 188 l 576 374 l 576 381 l 576 469 q 568 556 576 517 q 538 624 559 595 q 479 668 517 652 q 381 684 441 684 q 310 673 351 684 q 230 646 269 663 q 163 609 190 629 l 148 646 q 218 685 176 667 q 304 712 260 702 q 384 722 349 722 q 529 687 479 722 q 598 594 580 652 q 617 464 617 536 l 617 157 q 634 74 617 106 q 678 28 652 42 l 684 26 l 669 -11 l 652 -3 q 600 48 616 16 q 576 127 584 81 l 582 122 l 566 122 l 576 127 q 477 31 542 72 q 327 -11 412 -11 m 231 1028 l 380 867 l 385 867 l 536 1028 l 563 1000 l 393 822 l 373 822 l 203 1000 l 231 1028 z "},"â":{"ha":781,"x_min":98,"x_max":684,"o":"m 327 -11 q 211 16 262 -11 q 128 89 159 43 q 98 194 98 135 q 139 314 98 263 q 259 393 180 365 q 454 420 339 420 l 593 420 l 593 382 l 453 382 q 279 359 349 382 q 174 293 210 335 q 138 194 138 250 q 164 110 138 147 q 232 50 189 72 q 327 27 275 27 q 445 58 388 27 q 539 138 503 89 q 576 244 576 188 l 576 374 l 576 381 l 576 469 q 568 556 576 517 q 538 624 559 595 q 479 668 517 652 q 381 684 441 684 q 310 673 351 684 q 230 646 269 663 q 163 609 190 629 l 148 646 q 218 685 176 667 q 304 712 260 702 q 384 722 349 722 q 529 687 479 722 q 598 594 580 652 q 617 464 617 536 l 617 157 q 634 74 617 106 q 678 28 652 42 l 684 26 l 669 -11 l 652 -3 q 600 48 616 16 q 576 127 584 81 l 582 122 l 566 122 l 576 127 q 477 31 542 72 q 327 -11 412 -11 m 232 822 l 205 850 l 374 1028 l 395 1028 l 564 850 l 537 822 l 387 983 l 381 983 l 232 822 z "},"ấ":{"ha":781,"x_min":98,"x_max":713,"o":"m 327 -11 q 211 16 262 -11 q 128 89 159 43 q 98 194 98 135 q 139 314 98 263 q 259 393 180 365 q 454 420 339 420 l 593 420 l 593 382 l 453 382 q 279 359 349 382 q 174 293 210 335 q 138 194 138 250 q 164 110 138 147 q 232 50 189 72 q 327 27 275 27 q 445 58 388 27 q 539 138 503 89 q 576 244 576 188 l 576 374 l 576 381 l 576 469 q 568 556 576 517 q 538 624 559 595 q 479 668 517 652 q 381 684 441 684 q 310 673 351 684 q 230 646 269 663 q 163 609 190 629 l 148 646 q 218 685 176 667 q 304 712 260 702 q 384 722 349 722 q 529 687 479 722 q 598 594 580 652 q 617 464 617 536 l 617 157 q 634 74 617 106 q 678 28 652 42 l 684 26 l 669 -11 l 652 -3 q 600 48 616 16 q 576 127 584 81 l 582 122 l 566 122 l 576 127 q 477 31 542 72 q 327 -11 412 -11 m 544 949 l 515 981 l 681 1154 l 713 1122 l 544 949 m 217 822 l 190 853 l 370 1000 l 396 1000 l 572 853 l 545 822 l 388 952 l 378 952 l 217 822 z "},"ậ":{"ha":781,"x_min":98,"x_max":684,"o":"m 327 -11 q 211 16 262 -11 q 128 89 159 43 q 98 194 98 135 q 139 314 98 263 q 259 393 180 365 q 454 420 339 420 l 593 420 l 593 382 l 453 382 q 279 359 349 382 q 174 293 210 335 q 138 194 138 250 q 164 110 138 147 q 232 50 189 72 q 327 27 275 27 q 445 58 388 27 q 539 138 503 89 q 576 244 576 188 l 576 374 l 576 381 l 576 469 q 568 556 576 517 q 538 624 559 595 q 479 668 517 652 q 381 684 441 684 q 310 673 351 684 q 230 646 269 663 q 163 609 190 629 l 148 646 q 218 685 176 667 q 304 712 260 702 q 384 722 349 722 q 529 687 479 722 q 598 594 580 652 q 617 464 617 536 l 617 157 q 634 74 617 106 q 678 28 652 42 l 684 26 l 669 -11 l 652 -3 q 600 48 616 16 q 576 127 584 81 l 582 122 l 566 122 l 576 127 q 477 31 542 72 q 327 -11 412 -11 m 373 -208 q 331 -191 348 -208 q 315 -149 315 -174 q 331 -107 315 -124 q 373 -91 348 -91 q 415 -107 398 -91 q 431 -149 431 -124 q 415 -191 431 -174 q 373 -208 398 -208 m 232 822 l 205 850 l 374 1028 l 395 1028 l 564 850 l 537 822 l 387 983 l 381 983 l 232 822 z "},"ầ":{"ha":781,"x_min":54,"x_max":684,"o":"m 327 -11 q 211 16 262 -11 q 128 89 159 43 q 98 194 98 135 q 139 314 98 263 q 259 393 180 365 q 454 420 339 420 l 593 420 l 593 382 l 453 382 q 279 359 349 382 q 174 293 210 335 q 138 194 138 250 q 164 110 138 147 q 232 50 189 72 q 327 27 275 27 q 445 58 388 27 q 539 138 503 89 q 576 244 576 188 l 576 374 l 576 381 l 576 469 q 568 556 576 517 q 538 624 559 595 q 479 668 517 652 q 381 684 441 684 q 310 673 351 684 q 230 646 269 663 q 163 609 190 629 l 148 646 q 218 685 176 667 q 304 712 260 702 q 384 722 349 722 q 529 687 479 722 q 598 594 580 652 q 617 464 617 536 l 617 157 q 634 74 617 106 q 678 28 652 42 l 684 26 l 669 -11 l 652 -3 q 600 48 616 16 q 576 127 584 81 l 582 122 l 566 122 l 576 127 q 477 31 542 72 q 327 -11 412 -11 m 224 949 l 54 1122 l 87 1154 l 252 981 l 224 949 m 551 822 l 389 952 l 380 952 l 222 822 l 195 853 l 372 1000 l 397 1000 l 578 853 l 551 822 z "},"ẩ":{"ha":781,"x_min":98,"x_max":684,"o":"m 327 -11 q 211 16 262 -11 q 128 89 159 43 q 98 194 98 135 q 139 314 98 263 q 259 393 180 365 q 454 420 339 420 l 593 420 l 593 382 l 453 382 q 279 359 349 382 q 174 293 210 335 q 138 194 138 250 q 164 110 138 147 q 232 50 189 72 q 327 27 275 27 q 445 58 388 27 q 539 138 503 89 q 576 244 576 188 l 576 374 l 576 381 l 576 469 q 568 556 576 517 q 538 624 559 595 q 479 668 517 652 q 381 684 441 684 q 310 673 351 684 q 230 646 269 663 q 163 609 190 629 l 148 646 q 218 685 176 667 q 304 712 260 702 q 384 722 349 722 q 529 687 479 722 q 598 594 580 652 q 617 464 617 536 l 617 157 q 634 74 617 106 q 678 28 652 42 l 684 26 l 669 -11 l 652 -3 q 600 48 616 16 q 576 127 584 81 l 582 122 l 566 122 l 576 127 q 477 31 542 72 q 327 -11 412 -11 m 533 944 l 503 970 q 538 1013 522 988 q 555 1061 555 1038 q 536 1103 555 1087 q 487 1119 518 1119 q 451 1115 472 1119 q 415 1105 430 1112 l 415 1143 q 450 1153 430 1149 q 488 1157 469 1157 q 566 1132 536 1157 q 595 1063 595 1107 q 586 1020 595 1042 q 562 977 576 997 q 533 944 547 957 m 220 822 l 193 853 l 373 1000 l 399 1000 l 575 853 l 548 822 l 391 952 l 381 952 l 220 822 z "},"ẫ":{"ha":781,"x_min":98,"x_max":684,"o":"m 327 -11 q 211 16 262 -11 q 128 89 159 43 q 98 194 98 135 q 139 314 98 263 q 259 393 180 365 q 454 420 339 420 l 593 420 l 593 382 l 453 382 q 279 359 349 382 q 174 293 210 335 q 138 194 138 250 q 164 110 138 147 q 232 50 189 72 q 327 27 275 27 q 445 58 388 27 q 539 138 503 89 q 576 244 576 188 l 576 374 l 576 381 l 576 469 q 568 556 576 517 q 538 624 559 595 q 479 668 517 652 q 381 684 441 684 q 310 673 351 684 q 230 646 269 663 q 163 609 190 629 l 148 646 q 218 685 176 667 q 304 712 260 702 q 384 722 349 722 q 529 687 479 722 q 598 594 580 652 q 617 464 617 536 l 617 157 q 634 74 617 106 q 678 28 652 42 l 684 26 l 669 -11 l 652 -3 q 600 48 616 16 q 576 127 584 81 l 582 122 l 566 122 l 576 127 q 477 31 542 72 q 327 -11 412 -11 m 198 1044 q 228 1133 198 1103 q 304 1162 257 1162 q 356 1151 334 1162 q 394 1124 377 1139 q 427 1097 410 1108 q 465 1085 444 1085 q 512 1105 495 1085 q 529 1162 529 1125 l 570 1162 q 557 1098 571 1124 q 519 1058 543 1072 q 464 1044 494 1044 q 416 1057 437 1044 q 377 1084 395 1069 q 340 1112 359 1100 q 300 1124 322 1124 q 257 1105 275 1124 q 239 1044 239 1086 l 198 1044 m 220 822 l 193 853 l 373 1000 l 399 1000 l 575 853 l 548 822 l 391 952 l 381 952 l 220 822 z "},"ȁ":{"ha":781,"x_min":98,"x_max":684,"o":"m 327 -11 q 211 16 262 -11 q 128 89 159 43 q 98 194 98 135 q 139 314 98 263 q 259 393 180 365 q 454 420 339 420 l 593 420 l 593 382 l 453 382 q 279 359 349 382 q 174 293 210 335 q 138 194 138 250 q 164 110 138 147 q 232 50 189 72 q 327 27 275 27 q 445 58 388 27 q 539 138 503 89 q 576 244 576 188 l 576 374 l 576 381 l 576 469 q 568 556 576 517 q 538 624 559 595 q 479 668 517 652 q 381 684 441 684 q 310 673 351 684 q 230 646 269 663 q 163 609 190 629 l 148 646 q 218 685 176 667 q 304 712 260 702 q 384 722 349 722 q 529 687 479 722 q 598 594 580 652 q 617 464 617 536 l 617 157 q 634 74 617 106 q 678 28 652 42 l 684 26 l 669 -11 l 652 -3 q 600 48 616 16 q 576 127 584 81 l 582 122 l 566 122 l 576 127 q 477 31 542 72 q 327 -11 412 -11 m 488 808 l 335 1050 l 373 1076 l 514 822 l 488 808 m 313 808 l 160 1050 l 195 1076 l 339 822 l 313 808 z "},"ä":{"ha":781,"x_min":98,"x_max":684,"o":"m 327 -11 q 211 16 262 -11 q 128 89 159 43 q 98 194 98 135 q 139 314 98 263 q 259 393 180 365 q 454 420 339 420 l 593 420 l 593 382 l 453 382 q 279 359 349 382 q 174 293 210 335 q 138 194 138 250 q 164 110 138 147 q 232 50 189 72 q 327 27 275 27 q 445 58 388 27 q 539 138 503 89 q 576 244 576 188 l 576 374 l 576 381 l 576 469 q 568 556 576 517 q 538 624 559 595 q 479 668 517 652 q 381 684 441 684 q 310 673 351 684 q 230 646 269 663 q 163 609 190 629 l 148 646 q 218 685 176 667 q 304 712 260 702 q 384 722 349 722 q 529 687 479 722 q 598 594 580 652 q 617 464 617 536 l 617 157 q 634 74 617 106 q 678 28 652 42 l 684 26 l 669 -11 l 652 -3 q 600 48 616 16 q 576 127 584 81 l 582 122 l 566 122 l 576 127 q 477 31 542 72 q 327 -11 412 -11 m 496 853 q 455 870 471 853 q 438 911 438 887 q 455 954 438 937 q 496 970 471 970 q 538 954 522 970 q 555 911 555 937 q 538 870 555 887 q 496 853 522 853 m 274 853 q 233 870 250 853 q 216 911 216 887 q 233 954 216 937 q 274 970 250 970 q 316 954 300 970 q 332 911 332 937 q 316 870 332 887 q 274 853 300 853 z "},"ȧ":{"ha":781,"x_min":98,"x_max":684,"o":"m 327 -11 q 211 16 262 -11 q 128 89 159 43 q 98 194 98 135 q 139 314 98 263 q 259 393 180 365 q 454 420 339 420 l 593 420 l 593 382 l 453 382 q 279 359 349 382 q 174 293 210 335 q 138 194 138 250 q 164 110 138 147 q 232 50 189 72 q 327 27 275 27 q 445 58 388 27 q 539 138 503 89 q 576 244 576 188 l 576 374 l 576 381 l 576 469 q 568 556 576 517 q 538 624 559 595 q 479 668 517 652 q 381 684 441 684 q 310 673 351 684 q 230 646 269 663 q 163 609 190 629 l 148 646 q 218 685 176 667 q 304 712 260 702 q 384 722 349 722 q 529 687 479 722 q 598 594 580 652 q 617 464 617 536 l 617 157 q 634 74 617 106 q 678 28 652 42 l 684 26 l 669 -11 l 652 -3 q 600 48 616 16 q 576 127 584 81 l 582 122 l 566 122 l 576 127 q 477 31 542 72 q 327 -11 412 -11 m 384 853 q 342 870 359 853 q 326 911 326 886 q 342 953 326 937 q 384 970 359 970 q 426 953 409 970 q 442 911 442 937 q 426 870 442 886 q 384 853 409 853 z "},"ạ":{"ha":781,"x_min":98,"x_max":684,"o":"m 327 -11 q 211 16 262 -11 q 128 89 159 43 q 98 194 98 135 q 139 314 98 263 q 259 393 180 365 q 454 420 339 420 l 593 420 l 593 382 l 453 382 q 279 359 349 382 q 174 293 210 335 q 138 194 138 250 q 164 110 138 147 q 232 50 189 72 q 327 27 275 27 q 445 58 388 27 q 539 138 503 89 q 576 244 576 188 l 576 374 l 576 381 l 576 469 q 568 556 576 517 q 538 624 559 595 q 479 668 517 652 q 381 684 441 684 q 310 673 351 684 q 230 646 269 663 q 163 609 190 629 l 148 646 q 218 685 176 667 q 304 712 260 702 q 384 722 349 722 q 529 687 479 722 q 598 594 580 652 q 617 464 617 536 l 617 157 q 634 74 617 106 q 678 28 652 42 l 684 26 l 669 -11 l 652 -3 q 600 48 616 16 q 576 127 584 81 l 582 122 l 566 122 l 576 127 q 477 31 542 72 q 327 -11 412 -11 m 373 -208 q 331 -191 348 -208 q 315 -149 315 -174 q 331 -107 315 -124 q 373 -91 348 -91 q 415 -107 398 -91 q 431 -149 431 -124 q 415 -191 431 -174 q 373 -208 398 -208 z "},"à":{"ha":781,"x_min":98,"x_max":684,"o":"m 327 -11 q 211 16 262 -11 q 128 89 159 43 q 98 194 98 135 q 139 314 98 263 q 259 393 180 365 q 454 420 339 420 l 593 420 l 593 382 l 453 382 q 279 359 349 382 q 174 293 210 335 q 138 194 138 250 q 164 110 138 147 q 232 50 189 72 q 327 27 275 27 q 445 58 388 27 q 539 138 503 89 q 576 244 576 188 l 576 374 l 576 381 l 576 469 q 568 556 576 517 q 538 624 559 595 q 479 668 517 652 q 381 684 441 684 q 310 673 351 684 q 230 646 269 663 q 163 609 190 629 l 148 646 q 218 685 176 667 q 304 712 260 702 q 384 722 349 722 q 529 687 479 722 q 598 594 580 652 q 617 464 617 536 l 617 157 q 634 74 617 106 q 678 28 652 42 l 684 26 l 669 -11 l 652 -3 q 600 48 616 16 q 576 127 584 81 l 582 122 l 566 122 l 576 127 q 477 31 542 72 q 327 -11 412 -11 m 389 808 l 227 1023 l 256 1046 l 420 833 l 389 808 z "},"ả":{"ha":781,"x_min":98,"x_max":684,"o":"m 327 -11 q 211 16 262 -11 q 128 89 159 43 q 98 194 98 135 q 139 314 98 263 q 259 393 180 365 q 454 420 339 420 l 593 420 l 593 382 l 453 382 q 279 359 349 382 q 174 293 210 335 q 138 194 138 250 q 164 110 138 147 q 232 50 189 72 q 327 27 275 27 q 445 58 388 27 q 539 138 503 89 q 576 244 576 188 l 576 374 l 576 381 l 576 469 q 568 556 576 517 q 538 624 559 595 q 479 668 517 652 q 381 684 441 684 q 310 673 351 684 q 230 646 269 663 q 163 609 190 629 l 148 646 q 218 685 176 667 q 304 712 260 702 q 384 722 349 722 q 529 687 479 722 q 598 594 580 652 q 617 464 617 536 l 617 157 q 634 74 617 106 q 678 28 652 42 l 684 26 l 669 -11 l 652 -3 q 600 48 616 16 q 576 127 584 81 l 582 122 l 566 122 l 576 127 q 477 31 542 72 q 327 -11 412 -11 m 399 808 l 374 838 q 419 876 400 852 q 438 925 438 899 q 419 968 438 953 q 369 983 401 983 q 332 980 351 983 q 297 970 313 976 l 297 1010 q 335 1020 315 1018 q 368 1023 355 1023 q 446 997 418 1023 q 473 928 473 970 q 453 859 473 892 q 399 808 433 826 z "},"ȃ":{"ha":781,"x_min":98,"x_max":684,"o":"m 327 -11 q 211 16 262 -11 q 128 89 159 43 q 98 194 98 135 q 139 314 98 263 q 259 393 180 365 q 454 420 339 420 l 593 420 l 593 382 l 453 382 q 279 359 349 382 q 174 293 210 335 q 138 194 138 250 q 164 110 138 147 q 232 50 189 72 q 327 27 275 27 q 445 58 388 27 q 539 138 503 89 q 576 244 576 188 l 576 374 l 576 381 l 576 469 q 568 556 576 517 q 538 624 559 595 q 479 668 517 652 q 381 684 441 684 q 310 673 351 684 q 230 646 269 663 q 163 609 190 629 l 148 646 q 218 685 176 667 q 304 712 260 702 q 384 722 349 722 q 529 687 479 722 q 598 594 580 652 q 617 464 617 536 l 617 157 q 634 74 617 106 q 678 28 652 42 l 684 26 l 669 -11 l 652 -3 q 600 48 616 16 q 576 127 584 81 l 582 122 l 566 122 l 576 127 q 477 31 542 72 q 327 -11 412 -11 m 384 1025 q 477 1000 435 1025 q 545 932 519 975 q 570 836 570 889 l 532 836 q 489 943 532 900 q 384 986 446 986 q 279 943 322 986 q 236 836 236 900 l 198 836 q 223 932 198 889 q 290 1000 248 975 q 384 1025 332 1025 z "},"ā":{"ha":781,"x_min":98,"x_max":684,"o":"m 327 -11 q 211 16 262 -11 q 128 89 159 43 q 98 194 98 135 q 139 314 98 263 q 259 393 180 365 q 454 420 339 420 l 593 420 l 593 382 l 453 382 q 279 359 349 382 q 174 293 210 335 q 138 194 138 250 q 164 110 138 147 q 232 50 189 72 q 327 27 275 27 q 445 58 388 27 q 539 138 503 89 q 576 244 576 188 l 576 374 l 576 381 l 576 469 q 568 556 576 517 q 538 624 559 595 q 479 668 517 652 q 381 684 441 684 q 310 673 351 684 q 230 646 269 663 q 163 609 190 629 l 148 646 q 218 685 176 667 q 304 712 260 702 q 384 722 349 722 q 529 687 479 722 q 598 594 580 652 q 617 464 617 536 l 617 157 q 634 74 617 106 q 678 28 652 42 l 684 26 l 669 -11 l 652 -3 q 600 48 616 16 q 576 127 584 81 l 582 122 l 566 122 l 576 127 q 477 31 542 72 q 327 -11 412 -11 m 180 894 l 180 933 l 585 933 l 585 894 l 180 894 z "},"ą":{"ha":781,"x_min":98,"x_max":688,"o":"m 621 -264 q 552 -235 572 -264 q 533 -175 533 -206 q 550 -109 533 -140 q 592 -47 567 -78 q 640 16 616 -17 l 669 -11 q 600 -95 631 -54 q 568 -175 568 -135 q 583 -212 568 -198 q 620 -225 597 -225 q 649 -221 633 -225 q 688 -203 665 -218 l 688 -244 q 648 -261 669 -258 q 621 -264 627 -264 m 327 -11 q 211 16 262 -11 q 128 89 159 43 q 98 194 98 135 q 139 314 98 263 q 259 393 180 365 q 454 420 339 420 l 593 420 l 593 382 l 453 382 q 279 359 349 382 q 174 293 210 335 q 138 194 138 250 q 164 110 138 147 q 232 50 189 72 q 327 27 275 27 q 445 58 388 27 q 539 138 503 89 q 576 244 576 188 l 576 374 l 576 381 l 576 469 q 568 556 576 517 q 538 624 559 595 q 479 668 517 652 q 381 684 441 684 q 310 673 351 684 q 230 646 269 663 q 163 609 190 629 l 148 646 q 218 685 176 667 q 304 712 260 702 q 384 722 349 722 q 529 687 479 722 q 598 594 580 652 q 617 464 617 536 l 617 157 q 634 74 617 106 q 678 28 652 42 l 684 26 l 669 -11 l 652 -3 q 600 48 616 16 q 576 127 584 81 l 582 122 l 566 122 l 576 127 q 477 31 542 72 q 327 -11 412 -11 z "},"å":{"ha":781,"x_min":98,"x_max":684,"o":"m 327 -11 q 211 16 262 -11 q 128 89 159 43 q 98 194 98 135 q 139 314 98 263 q 259 393 180 365 q 454 420 339 420 l 593 420 l 593 382 l 453 382 q 279 359 349 382 q 174 293 210 335 q 138 194 138 250 q 164 110 138 147 q 232 50 189 72 q 327 27 275 27 q 445 58 388 27 q 539 138 503 89 q 576 244 576 188 l 576 374 l 576 381 l 576 469 q 568 556 576 517 q 538 624 559 595 q 479 668 517 652 q 381 684 441 684 q 310 673 351 684 q 230 646 269 663 q 163 609 190 629 l 148 646 q 218 685 176 667 q 304 712 260 702 q 384 722 349 722 q 529 687 479 722 q 598 594 580 652 q 617 464 617 536 l 617 157 q 634 74 617 106 q 678 28 652 42 l 684 26 l 669 -11 l 652 -3 q 600 48 616 16 q 576 127 584 81 l 582 122 l 566 122 l 576 127 q 477 31 542 72 q 327 -11 412 -11 m 384 811 q 297 847 333 811 q 262 933 262 882 q 297 1020 262 984 q 384 1055 333 1055 q 470 1020 435 1055 q 506 933 506 984 q 470 847 506 882 q 384 811 435 811 m 384 849 q 444 874 420 849 q 468 933 468 899 q 444 993 468 969 q 384 1017 420 1017 q 325 993 349 1017 q 300 933 300 969 q 325 874 300 899 q 384 849 349 849 z "},"ǻ":{"ha":781,"x_min":98,"x_max":684,"o":"m 384 811 q 297 847 333 811 q 262 933 262 882 q 297 1020 262 984 q 384 1055 333 1055 q 470 1020 435 1055 q 506 933 506 984 q 470 847 506 882 q 384 811 435 811 m 384 849 q 444 874 420 849 q 468 933 468 899 q 444 993 468 969 q 384 1017 420 1017 q 325 993 349 1017 q 300 933 300 969 q 325 874 300 899 q 384 849 349 849 m 437 1082 l 408 1116 l 589 1302 l 616 1272 l 437 1082 m 327 -11 q 211 16 262 -11 q 128 89 159 43 q 98 194 98 135 q 139 314 98 263 q 259 393 180 365 q 454 420 339 420 l 593 420 l 593 382 l 453 382 q 279 359 349 382 q 174 293 210 335 q 138 194 138 250 q 164 110 138 147 q 232 50 189 72 q 327 27 275 27 q 445 58 388 27 q 539 138 503 89 q 576 244 576 188 l 576 374 l 576 381 l 576 469 q 568 556 576 517 q 538 624 559 595 q 479 668 517 652 q 381 684 441 684 q 310 673 351 684 q 230 646 269 663 q 163 609 190 629 l 148 646 q 218 685 176 667 q 304 712 260 702 q 384 722 349 722 q 529 687 479 722 q 598 594 580 652 q 617 464 617 536 l 617 157 q 634 74 617 106 q 678 28 652 42 l 684 26 l 669 -11 l 652 -3 q 600 48 616 16 q 576 127 584 81 l 582 122 l 566 122 l 576 127 q 477 31 542 72 q 327 -11 412 -11 z "},"ã":{"ha":781,"x_min":98,"x_max":684,"o":"m 327 -11 q 211 16 262 -11 q 128 89 159 43 q 98 194 98 135 q 139 314 98 263 q 259 393 180 365 q 454 420 339 420 l 593 420 l 593 382 l 453 382 q 279 359 349 382 q 174 293 210 335 q 138 194 138 250 q 164 110 138 147 q 232 50 189 72 q 327 27 275 27 q 445 58 388 27 q 539 138 503 89 q 576 244 576 188 l 576 374 l 576 381 l 576 469 q 568 556 576 517 q 538 624 559 595 q 479 668 517 652 q 381 684 441 684 q 310 673 351 684 q 230 646 269 663 q 163 609 190 629 l 148 646 q 218 685 176 667 q 304 712 260 702 q 384 722 349 722 q 529 687 479 722 q 598 594 580 652 q 617 464 617 536 l 617 157 q 634 74 617 106 q 678 28 652 42 l 684 26 l 669 -11 l 652 -3 q 600 48 616 16 q 576 127 584 81 l 582 122 l 566 122 l 576 127 q 477 31 542 72 q 327 -11 412 -11 m 199 842 q 229 936 199 899 q 305 972 258 972 q 356 959 335 972 q 394 928 377 945 q 427 897 410 910 q 465 883 444 883 q 513 909 496 883 q 530 972 530 935 l 571 972 q 543 882 571 921 q 465 842 514 842 q 417 856 438 842 q 379 888 397 869 q 343 920 361 906 q 302 933 325 933 q 257 909 274 933 q 240 842 240 884 l 199 842 z "},"æ":{"ha":781,"x_min":27,"x_max":757,"o":"m 197 -11 q 113 14 152 -11 q 51 82 75 39 q 27 183 27 126 q 94 331 27 276 q 279 387 161 387 l 362 387 l 362 349 l 278 349 q 122 303 176 349 q 68 183 68 258 q 107 71 68 115 q 199 27 146 27 q 310 95 268 27 q 353 270 353 162 l 353 471 q 335 583 353 535 q 287 657 317 631 q 217 684 256 684 q 142 669 188 684 q 62 628 97 654 l 45 662 q 135 706 85 690 q 222 722 186 722 q 336 668 292 722 q 388 529 380 614 l 377 529 q 446 668 395 614 q 562 722 496 722 q 663 681 619 722 q 732 568 707 640 q 757 404 757 496 q 756 376 757 387 q 754 349 755 365 l 385 349 l 384 387 l 716 387 q 673 601 716 519 q 557 684 630 684 q 470 643 507 684 q 412 528 433 602 q 392 358 392 455 q 413 186 392 260 q 472 69 433 111 q 566 27 511 27 q 653 51 610 27 q 719 102 696 75 l 735 64 q 690 28 717 45 q 631 0 663 12 q 567 -11 599 -11 q 440 47 492 -11 q 374 199 389 106 l 382 199 q 349 86 375 134 q 282 14 322 39 q 197 -11 243 -11 z "},"ǽ":{"ha":781,"x_min":27,"x_max":757,"o":"m 197 -11 q 113 14 152 -11 q 51 82 75 39 q 27 183 27 126 q 94 331 27 276 q 279 387 161 387 l 362 387 l 362 349 l 278 349 q 122 303 176 349 q 68 183 68 258 q 107 71 68 115 q 199 27 146 27 q 310 95 268 27 q 353 270 353 162 l 353 471 q 335 583 353 535 q 287 657 317 631 q 217 684 256 684 q 142 669 188 684 q 62 628 97 654 l 45 662 q 135 706 85 690 q 222 722 186 722 q 336 668 292 722 q 388 529 380 614 l 377 529 q 446 668 395 614 q 562 722 496 722 q 663 681 619 722 q 732 568 707 640 q 757 404 757 496 q 756 376 757 387 q 754 349 755 365 l 385 349 l 384 387 l 716 387 q 673 601 716 519 q 557 684 630 684 q 470 643 507 684 q 412 528 433 602 q 392 358 392 455 q 413 186 392 260 q 472 69 433 111 q 566 27 511 27 q 653 51 610 27 q 719 102 696 75 l 735 64 q 690 28 717 45 q 631 0 663 12 q 567 -11 599 -11 q 440 47 492 -11 q 374 199 389 106 l 382 199 q 349 86 375 134 q 282 14 322 39 q 197 -11 243 -11 m 363 808 l 332 833 l 496 1046 l 526 1023 l 363 808 z "},"b":{"ha":781,"x_min":136,"x_max":694,"o":"m 136 0 l 136 1044 l 176 1044 l 176 566 l 190 566 l 170 494 l 170 212 l 195 152 l 176 152 l 176 0 l 136 0 m 415 -11 q 270 35 332 -11 q 174 163 208 81 q 140 358 140 246 q 174 550 140 468 q 270 676 208 631 q 415 722 332 722 q 562 676 499 722 q 660 549 625 631 q 694 355 694 467 q 660 162 694 244 q 562 34 625 79 q 415 -11 499 -11 m 416 26 q 541 67 488 26 q 624 182 595 108 q 654 355 654 256 q 624 529 654 455 q 541 644 594 604 q 415 685 487 685 q 291 644 344 685 q 208 529 237 604 q 178 355 178 455 q 208 182 178 256 q 291 67 237 108 q 416 26 345 26 z "},"c":{"ha":781,"x_min":106,"x_max":667,"o":"m 434 -8 q 268 38 342 -8 q 150 167 193 85 q 106 358 106 250 q 150 548 106 466 q 269 676 193 630 q 438 722 344 722 q 556 701 498 722 q 663 639 614 681 l 644 601 q 559 660 612 635 q 439 684 506 684 q 289 643 355 684 q 184 528 222 602 q 146 358 146 455 q 185 186 146 260 q 289 71 223 113 q 438 30 355 30 q 560 56 505 30 q 648 122 615 81 l 667 83 q 566 18 627 44 q 434 -8 505 -8 z "},"ć":{"ha":781,"x_min":106,"x_max":667,"o":"m 434 -8 q 268 38 342 -8 q 150 167 193 85 q 106 358 106 250 q 150 548 106 466 q 269 676 193 630 q 438 722 344 722 q 556 701 498 722 q 663 639 614 681 l 644 601 q 559 660 612 635 q 439 684 506 684 q 289 643 355 684 q 184 528 222 602 q 146 358 146 455 q 185 186 146 260 q 289 71 223 113 q 438 30 355 30 q 560 56 505 30 q 648 122 615 81 l 667 83 q 566 18 627 44 q 434 -8 505 -8 m 442 808 l 411 833 l 575 1046 l 605 1023 l 442 808 z "},"č":{"ha":781,"x_min":106,"x_max":667,"o":"m 434 -8 q 268 38 342 -8 q 150 167 193 85 q 106 358 106 250 q 150 548 106 466 q 269 676 193 630 q 438 722 344 722 q 556 701 498 722 q 663 639 614 681 l 644 601 q 559 660 612 635 q 439 684 506 684 q 289 643 355 684 q 184 528 222 602 q 146 358 146 455 q 185 186 146 260 q 289 71 223 113 q 438 30 355 30 q 560 56 505 30 q 648 122 615 81 l 667 83 q 566 18 627 44 q 434 -8 505 -8 m 294 1028 l 444 867 l 449 867 l 600 1028 l 627 1000 l 457 822 l 437 822 l 267 1000 l 294 1028 z "},"ç":{"ha":781,"x_min":106,"x_max":667,"o":"m 434 -8 q 268 38 342 -8 q 150 167 193 85 q 106 358 106 250 q 150 548 106 466 q 269 676 193 630 q 438 722 344 722 q 556 701 498 722 q 663 639 614 681 l 644 601 q 559 660 612 635 q 439 684 506 684 q 289 643 355 684 q 184 528 222 602 q 146 358 146 455 q 185 186 146 260 q 289 71 223 113 q 438 30 355 30 q 560 56 505 30 q 648 122 615 81 l 667 83 q 566 18 627 44 q 434 -8 505 -8 m 365 -292 l 365 -250 q 467 -237 428 -252 q 506 -180 506 -222 q 477 -133 506 -152 q 404 -114 449 -114 l 437 0 l 477 0 l 446 -109 l 435 -80 q 514 -118 488 -89 q 541 -183 541 -146 q 495 -265 541 -238 q 365 -292 448 -292 z "},"ḉ":{"ha":781,"x_min":106,"x_max":667,"o":"m 434 -8 q 268 38 342 -8 q 150 167 193 85 q 106 358 106 250 q 150 548 106 466 q 269 676 193 630 q 438 722 344 722 q 556 701 498 722 q 663 639 614 681 l 644 601 q 559 660 612 635 q 439 684 506 684 q 289 643 355 684 q 184 528 222 602 q 146 358 146 455 q 185 186 146 260 q 289 71 223 113 q 438 30 355 30 q 560 56 505 30 q 648 122 615 81 l 667 83 q 566 18 627 44 q 434 -8 505 -8 m 365 -292 l 365 -250 q 467 -237 428 -252 q 506 -180 506 -222 q 477 -133 506 -152 q 404 -114 449 -114 l 437 0 l 477 0 l 446 -109 l 435 -80 q 514 -118 488 -89 q 541 -183 541 -146 q 495 -265 541 -238 q 365 -292 448 -292 m 442 808 l 411 833 l 575 1046 l 605 1023 l 442 808 z "},"ĉ":{"ha":781,"x_min":106,"x_max":667,"o":"m 434 -8 q 268 38 342 -8 q 150 167 193 85 q 106 358 106 250 q 150 548 106 466 q 269 676 193 630 q 438 722 344 722 q 556 701 498 722 q 663 639 614 681 l 644 601 q 559 660 612 635 q 439 684 506 684 q 289 643 355 684 q 184 528 222 602 q 146 358 146 455 q 185 186 146 260 q 289 71 223 113 q 438 30 355 30 q 560 56 505 30 q 648 122 615 81 l 667 83 q 566 18 627 44 q 434 -8 505 -8 m 296 822 l 269 850 l 438 1028 l 458 1028 l 628 850 l 601 822 l 450 983 l 445 983 l 296 822 z "},"ċ":{"ha":781,"x_min":106,"x_max":667,"o":"m 434 -8 q 268 38 342 -8 q 150 167 193 85 q 106 358 106 250 q 150 548 106 466 q 269 676 193 630 q 438 722 344 722 q 556 701 498 722 q 663 639 614 681 l 644 601 q 559 660 612 635 q 439 684 506 684 q 289 643 355 684 q 184 528 222 602 q 146 358 146 455 q 185 186 146 260 q 289 71 223 113 q 438 30 355 30 q 560 56 505 30 q 648 122 615 81 l 667 83 q 566 18 627 44 q 434 -8 505 -8 m 448 853 q 406 870 422 853 q 389 911 389 886 q 406 953 389 937 q 448 970 422 970 q 489 953 473 970 q 506 911 506 937 q 489 870 506 886 q 448 853 473 853 z "},"d":{"ha":781,"x_min":87,"x_max":703,"o":"m 684 -11 q 628 60 648 13 q 606 159 608 107 l 612 151 l 593 151 l 612 199 l 612 513 l 589 566 l 604 566 l 604 1044 l 646 1044 l 646 157 q 662 75 646 110 q 703 26 678 39 l 684 -11 m 366 -11 q 219 34 282 -11 q 122 162 157 79 q 87 355 87 244 q 122 549 87 467 q 219 676 157 631 q 366 722 282 722 q 511 676 449 722 q 607 550 573 631 q 642 358 642 468 q 607 163 642 246 q 511 35 573 81 q 366 -11 449 -11 m 365 26 q 490 67 437 26 q 574 182 544 108 q 604 355 604 256 q 574 529 604 455 q 491 644 545 604 q 366 685 437 685 q 241 644 294 685 q 157 529 187 604 q 127 355 127 455 q 157 182 127 256 q 240 67 187 108 q 365 26 294 26 z "},"ď":{"ha":781,"x_min":60,"x_max":716,"o":"m 327 -11 q 186 35 246 -11 q 93 162 126 80 q 60 355 60 245 q 93 548 60 466 q 186 676 126 631 q 327 722 246 722 q 465 676 406 722 q 556 550 524 631 q 589 358 589 468 q 556 163 589 246 q 465 35 524 81 q 327 -11 406 -11 m 326 26 q 445 67 394 26 q 524 182 496 108 q 552 355 552 256 q 524 529 552 454 q 445 644 496 603 q 327 685 395 685 q 208 644 259 685 q 129 529 157 604 q 100 355 100 455 q 129 182 100 256 q 208 67 157 108 q 326 26 258 26 m 647 -11 q 582 60 608 13 q 555 159 556 107 l 560 151 l 541 151 l 560 199 l 560 513 l 538 566 l 552 566 l 552 1044 l 594 1044 l 594 157 q 615 75 594 111 q 666 26 637 39 l 647 -11 m 678 769 l 680 1044 l 716 1044 l 711 769 l 678 769 z "},"đ":{"ha":781,"x_min":87,"x_max":766,"o":"m 684 -11 q 628 60 648 13 q 606 159 608 107 l 612 151 l 593 151 l 612 199 l 612 513 l 589 566 l 604 566 l 604 1044 l 646 1044 l 646 157 q 662 75 646 110 q 703 26 678 39 l 684 -11 m 366 -11 q 219 34 282 -11 q 122 162 157 79 q 87 355 87 244 q 122 549 87 467 q 219 676 157 631 q 366 722 282 722 q 511 676 449 722 q 607 550 573 631 q 642 358 642 468 q 607 163 642 246 q 511 35 573 81 q 366 -11 449 -11 m 365 26 q 490 67 437 26 q 574 182 544 108 q 604 355 604 256 q 574 529 604 455 q 491 644 545 604 q 366 685 437 685 q 241 644 294 685 q 157 529 187 604 q 127 355 127 455 q 157 182 127 256 q 240 67 187 108 q 365 26 294 26 m 495 837 l 495 875 l 766 875 l 766 837 l 495 837 z "},"ḍ":{"ha":781,"x_min":87,"x_max":703,"o":"m 684 -11 q 628 60 648 13 q 606 159 608 107 l 612 151 l 593 151 l 612 199 l 612 513 l 589 566 l 604 566 l 604 1044 l 646 1044 l 646 157 q 662 75 646 110 q 703 26 678 39 l 684 -11 m 366 -11 q 219 34 282 -11 q 122 162 157 79 q 87 355 87 244 q 122 549 87 467 q 219 676 157 631 q 366 722 282 722 q 511 676 449 722 q 607 550 573 631 q 642 358 642 468 q 607 163 642 246 q 511 35 573 81 q 366 -11 449 -11 m 365 26 q 490 67 437 26 q 574 182 544 108 q 604 355 604 256 q 574 529 604 455 q 491 644 545 604 q 366 685 437 685 q 241 644 294 685 q 157 529 187 604 q 127 355 127 455 q 157 182 127 256 q 240 67 187 108 q 365 26 294 26 m 389 -208 q 348 -191 364 -208 q 331 -149 331 -174 q 348 -107 331 -124 q 389 -91 364 -91 q 431 -107 414 -91 q 448 -149 448 -124 q 431 -191 448 -174 q 389 -208 414 -208 z "},"ḏ":{"ha":781,"x_min":87,"x_max":703,"o":"m 684 -11 q 628 60 648 13 q 606 159 608 107 l 612 151 l 593 151 l 612 199 l 612 513 l 589 566 l 604 566 l 604 1044 l 646 1044 l 646 157 q 662 75 646 110 q 703 26 678 39 l 684 -11 m 366 -11 q 219 34 282 -11 q 122 162 157 79 q 87 355 87 244 q 122 549 87 467 q 219 676 157 631 q 366 722 282 722 q 511 676 449 722 q 607 550 573 631 q 642 358 642 468 q 607 163 642 246 q 511 35 573 81 q 366 -11 449 -11 m 365 26 q 490 67 437 26 q 574 182 544 108 q 604 355 604 256 q 574 529 604 455 q 491 644 545 604 q 366 685 437 685 q 241 644 294 685 q 157 529 187 604 q 127 355 127 455 q 157 182 127 256 q 240 67 187 108 q 365 26 294 26 m 187 -256 l 187 -217 l 591 -217 l 591 -256 l 187 -256 z "},"ǆ":{"ha":781,"x_min":41,"x_max":743,"o":"m 201 -11 q 82 85 123 -11 q 41 355 41 182 q 82 626 41 530 q 201 722 123 722 q 316 627 277 722 q 354 357 354 532 q 316 85 354 182 q 201 -11 277 -11 m 205 27 q 294 113 264 27 q 324 355 324 198 q 294 599 324 514 q 205 684 264 684 q 112 598 146 684 q 79 355 79 513 q 112 113 79 199 q 205 27 145 27 m 382 -11 q 340 44 355 13 q 326 141 326 75 l 332 110 l 313 110 l 330 199 l 330 513 l 312 610 l 323 610 l 323 1044 l 361 1044 l 361 130 q 373 58 361 79 q 400 26 386 38 l 382 -11 m 438 0 l 438 20 l 692 670 l 692 673 l 449 673 l 449 711 l 736 711 l 736 688 l 484 41 l 484 38 l 743 38 l 743 0 l 438 0 m 586 857 l 450 1000 l 475 1025 l 594 899 l 598 899 l 716 1025 l 743 1000 l 606 857 l 586 857 z "},"ð":{"ha":781,"x_min":83,"x_max":696,"o":"m 393 -11 q 236 36 307 -11 q 124 162 165 82 q 83 342 83 242 q 124 520 83 440 q 236 647 165 600 q 396 694 307 694 q 498 677 448 694 q 591 625 549 660 q 656 540 633 591 l 633 566 l 654 566 l 644 555 q 569 737 617 658 q 460 873 521 816 q 336 967 400 930 q 213 1023 272 1004 l 227 1057 q 397 974 313 1029 q 548 837 481 919 q 656 647 616 755 q 696 404 696 538 q 658 183 696 276 q 552 40 620 90 q 393 -11 484 -11 m 393 27 q 531 75 471 27 q 623 200 590 122 q 656 370 656 279 q 618 536 656 473 q 521 628 580 600 q 401 656 463 656 q 259 616 322 656 q 160 504 197 575 q 123 343 123 433 q 162 177 123 248 q 262 66 201 106 q 393 27 324 27 m 222 795 l 205 827 l 589 1054 l 601 1025 l 222 795 z "},"e":{"ha":781,"x_min":90,"x_max":692,"o":"m 411 -11 q 242 36 314 -11 q 130 165 170 82 q 90 357 90 248 q 129 547 90 465 q 239 675 169 629 q 403 722 310 722 q 555 680 490 722 q 656 561 620 637 q 692 382 692 485 q 692 366 692 380 q 690 343 692 353 l 122 343 l 122 381 l 650 381 q 622 539 652 471 q 535 645 592 607 q 403 684 479 684 q 261 642 322 684 q 165 525 199 600 q 130 354 130 451 q 164 183 130 257 q 260 68 198 110 q 404 27 321 27 q 523 51 467 27 q 625 118 578 75 l 642 79 q 536 12 594 35 q 411 -11 477 -11 z "},"é":{"ha":781,"x_min":90,"x_max":692,"o":"m 411 -11 q 242 36 314 -11 q 130 165 170 82 q 90 357 90 248 q 129 547 90 465 q 239 675 169 629 q 403 722 310 722 q 555 680 490 722 q 656 561 620 637 q 692 382 692 485 q 692 366 692 380 q 690 343 692 353 l 122 343 l 122 381 l 650 381 q 622 539 652 471 q 535 645 592 607 q 403 684 479 684 q 261 642 322 684 q 165 525 199 600 q 130 354 130 451 q 164 183 130 257 q 260 68 198 110 q 404 27 321 27 q 523 51 467 27 q 625 118 578 75 l 642 79 q 536 12 594 35 q 411 -11 477 -11 m 397 808 l 366 833 l 530 1046 l 560 1023 l 397 808 z "},"ĕ":{"ha":781,"x_min":90,"x_max":692,"o":"m 411 -11 q 242 36 314 -11 q 130 165 170 82 q 90 357 90 248 q 129 547 90 465 q 239 675 169 629 q 403 722 310 722 q 555 680 490 722 q 656 561 620 637 q 692 382 692 485 q 692 366 692 380 q 690 343 692 353 l 122 343 l 122 381 l 650 381 q 622 539 652 471 q 535 645 592 607 q 403 684 479 684 q 261 642 322 684 q 165 525 199 600 q 130 354 130 451 q 164 183 130 257 q 260 68 198 110 q 404 27 321 27 q 523 51 467 27 q 625 118 578 75 l 642 79 q 536 12 594 35 q 411 -11 477 -11 m 406 830 q 312 855 354 830 q 245 923 270 880 q 220 1020 220 966 l 258 1020 q 301 913 258 956 q 406 869 344 869 q 511 913 468 869 q 553 1020 553 956 l 591 1020 q 566 923 591 966 q 499 855 541 880 q 406 830 457 830 z "},"ě":{"ha":781,"x_min":90,"x_max":692,"o":"m 411 -11 q 242 36 314 -11 q 130 165 170 82 q 90 357 90 248 q 129 547 90 465 q 239 675 169 629 q 403 722 310 722 q 555 680 490 722 q 656 561 620 637 q 692 382 692 485 q 692 366 692 380 q 690 343 692 353 l 122 343 l 122 381 l 650 381 q 622 539 652 471 q 535 645 592 607 q 403 684 479 684 q 261 642 322 684 q 165 525 199 600 q 130 354 130 451 q 164 183 130 257 q 260 68 198 110 q 404 27 321 27 q 523 51 467 27 q 625 118 578 75 l 642 79 q 536 12 594 35 q 411 -11 477 -11 m 250 1028 l 399 867 l 404 867 l 555 1028 l 582 1000 l 412 822 l 392 822 l 222 1000 l 250 1028 z "},"ḝ":{"ha":781,"x_min":90,"x_max":692,"o":"m 411 -11 q 242 36 314 -11 q 130 165 170 82 q 90 357 90 248 q 129 547 90 465 q 239 675 169 629 q 403 722 310 722 q 555 680 490 722 q 656 561 620 637 q 692 382 692 485 q 692 366 692 380 q 690 343 692 353 l 122 343 l 122 381 l 650 381 q 622 539 652 471 q 535 645 592 607 q 403 684 479 684 q 261 642 322 684 q 165 525 199 600 q 130 354 130 451 q 164 183 130 257 q 260 68 198 110 q 404 27 321 27 q 523 51 467 27 q 625 118 578 75 l 642 79 q 536 12 594 35 q 411 -11 477 -11 m 308 -292 l 308 -250 q 410 -237 371 -252 q 449 -180 449 -222 q 420 -133 449 -152 q 347 -114 392 -114 l 380 0 l 420 0 l 389 -109 l 378 -80 q 457 -118 431 -89 q 484 -183 484 -146 q 438 -265 484 -238 q 308 -292 391 -292 m 406 830 q 312 855 354 830 q 245 923 270 880 q 220 1020 220 966 l 258 1020 q 301 913 258 956 q 406 869 344 869 q 511 913 468 869 q 553 1020 553 956 l 591 1020 q 566 923 591 966 q 499 855 541 880 q 406 830 457 830 z "},"ê":{"ha":781,"x_min":90,"x_max":692,"o":"m 411 -11 q 242 36 314 -11 q 130 165 170 82 q 90 357 90 248 q 129 547 90 465 q 239 675 169 629 q 403 722 310 722 q 555 680 490 722 q 656 561 620 637 q 692 382 692 485 q 692 366 692 380 q 690 343 692 353 l 122 343 l 122 381 l 650 381 q 622 539 652 471 q 535 645 592 607 q 403 684 479 684 q 261 642 322 684 q 165 525 199 600 q 130 354 130 451 q 164 183 130 257 q 260 68 198 110 q 404 27 321 27 q 523 51 467 27 q 625 118 578 75 l 642 79 q 536 12 594 35 q 411 -11 477 -11 m 251 822 l 224 850 l 393 1028 l 414 1028 l 583 850 l 556 822 l 406 983 l 400 983 l 251 822 z "},"ế":{"ha":781,"x_min":90,"x_max":732,"o":"m 411 -11 q 242 36 314 -11 q 130 165 170 82 q 90 357 90 248 q 129 547 90 465 q 239 675 169 629 q 403 722 310 722 q 555 680 490 722 q 656 561 620 637 q 692 382 692 485 q 692 366 692 380 q 690 343 692 353 l 122 343 l 122 381 l 650 381 q 622 539 652 471 q 535 645 592 607 q 403 684 479 684 q 261 642 322 684 q 165 525 199 600 q 130 354 130 451 q 164 183 130 257 q 260 68 198 110 q 404 27 321 27 q 523 51 467 27 q 625 118 578 75 l 642 79 q 536 12 594 35 q 411 -11 477 -11 m 563 949 l 534 981 l 700 1154 l 732 1122 l 563 949 m 236 822 l 209 853 l 389 1000 l 415 1000 l 591 853 l 564 822 l 407 952 l 397 952 l 236 822 z "},"ệ":{"ha":781,"x_min":90,"x_max":692,"o":"m 411 -11 q 242 36 314 -11 q 130 165 170 82 q 90 357 90 248 q 129 547 90 465 q 239 675 169 629 q 403 722 310 722 q 555 680 490 722 q 656 561 620 637 q 692 382 692 485 q 692 366 692 380 q 690 343 692 353 l 122 343 l 122 381 l 650 381 q 622 539 652 471 q 535 645 592 607 q 403 684 479 684 q 261 642 322 684 q 165 525 199 600 q 130 354 130 451 q 164 183 130 257 q 260 68 198 110 q 404 27 321 27 q 523 51 467 27 q 625 118 578 75 l 642 79 q 536 12 594 35 q 411 -11 477 -11 m 399 -208 q 357 -191 374 -208 q 340 -149 340 -174 q 357 -107 340 -124 q 399 -91 374 -91 q 440 -107 424 -91 q 457 -149 457 -124 q 440 -191 457 -174 q 399 -208 424 -208 m 251 822 l 224 850 l 393 1028 l 414 1028 l 583 850 l 556 822 l 406 983 l 400 983 l 251 822 z "},"ề":{"ha":781,"x_min":73,"x_max":692,"o":"m 411 -11 q 242 36 314 -11 q 130 165 170 82 q 90 357 90 248 q 129 547 90 465 q 239 675 169 629 q 403 722 310 722 q 555 680 490 722 q 656 561 620 637 q 692 382 692 485 q 692 366 692 380 q 690 343 692 353 l 122 343 l 122 381 l 650 381 q 622 539 652 471 q 535 645 592 607 q 403 684 479 684 q 261 642 322 684 q 165 525 199 600 q 130 354 130 451 q 164 183 130 257 q 260 68 198 110 q 404 27 321 27 q 523 51 467 27 q 625 118 578 75 l 642 79 q 536 12 594 35 q 411 -11 477 -11 m 243 949 l 73 1122 l 106 1154 l 271 981 l 243 949 m 570 822 l 408 952 l 399 952 l 241 822 l 214 853 l 391 1000 l 416 1000 l 597 853 l 570 822 z "},"ể":{"ha":781,"x_min":90,"x_max":692,"o":"m 411 -11 q 242 36 314 -11 q 130 165 170 82 q 90 357 90 248 q 129 547 90 465 q 239 675 169 629 q 403 722 310 722 q 555 680 490 722 q 656 561 620 637 q 692 382 692 485 q 692 366 692 380 q 690 343 692 353 l 122 343 l 122 381 l 650 381 q 622 539 652 471 q 535 645 592 607 q 403 684 479 684 q 261 642 322 684 q 165 525 199 600 q 130 354 130 451 q 164 183 130 257 q 260 68 198 110 q 404 27 321 27 q 523 51 467 27 q 625 118 578 75 l 642 79 q 536 12 594 35 q 411 -11 477 -11 m 552 944 l 522 970 q 557 1013 541 988 q 574 1061 574 1038 q 555 1103 574 1087 q 506 1119 537 1119 q 470 1115 491 1119 q 434 1105 449 1112 l 434 1143 q 469 1153 449 1149 q 507 1157 488 1157 q 585 1132 555 1157 q 614 1063 614 1107 q 605 1020 614 1042 q 581 977 595 997 q 552 944 566 957 m 239 822 l 212 853 l 392 1000 l 418 1000 l 594 853 l 567 822 l 410 952 l 400 952 l 239 822 z "},"ễ":{"ha":781,"x_min":90,"x_max":692,"o":"m 411 -11 q 242 36 314 -11 q 130 165 170 82 q 90 357 90 248 q 129 547 90 465 q 239 675 169 629 q 403 722 310 722 q 555 680 490 722 q 656 561 620 637 q 692 382 692 485 q 692 366 692 380 q 690 343 692 353 l 122 343 l 122 381 l 650 381 q 622 539 652 471 q 535 645 592 607 q 403 684 479 684 q 261 642 322 684 q 165 525 199 600 q 130 354 130 451 q 164 183 130 257 q 260 68 198 110 q 404 27 321 27 q 523 51 467 27 q 625 118 578 75 l 642 79 q 536 12 594 35 q 411 -11 477 -11 m 217 1044 q 247 1133 217 1103 q 323 1162 276 1162 q 375 1151 353 1162 q 413 1124 396 1139 q 446 1097 429 1108 q 484 1085 463 1085 q 531 1105 514 1085 q 548 1162 548 1125 l 589 1162 q 576 1098 590 1124 q 538 1058 562 1072 q 483 1044 513 1044 q 435 1057 456 1044 q 396 1084 414 1069 q 359 1112 378 1100 q 319 1124 341 1124 q 276 1105 294 1124 q 258 1044 258 1086 l 217 1044 m 239 822 l 212 853 l 392 1000 l 418 1000 l 594 853 l 567 822 l 410 952 l 400 952 l 239 822 z "},"ȅ":{"ha":781,"x_min":90,"x_max":692,"o":"m 411 -11 q 242 36 314 -11 q 130 165 170 82 q 90 357 90 248 q 129 547 90 465 q 239 675 169 629 q 403 722 310 722 q 555 680 490 722 q 656 561 620 637 q 692 382 692 485 q 692 366 692 380 q 690 343 692 353 l 122 343 l 122 381 l 650 381 q 622 539 652 471 q 535 645 592 607 q 403 684 479 684 q 261 642 322 684 q 165 525 199 600 q 130 354 130 451 q 164 183 130 257 q 260 68 198 110 q 404 27 321 27 q 523 51 467 27 q 625 118 578 75 l 642 79 q 536 12 594 35 q 411 -11 477 -11 m 507 808 l 354 1050 l 392 1076 l 533 822 l 507 808 m 332 808 l 179 1050 l 214 1076 l 358 822 l 332 808 z "},"ë":{"ha":781,"x_min":90,"x_max":692,"o":"m 411 -11 q 242 36 314 -11 q 130 165 170 82 q 90 357 90 248 q 129 547 90 465 q 239 675 169 629 q 403 722 310 722 q 555 680 490 722 q 656 561 620 637 q 692 382 692 485 q 692 366 692 380 q 690 343 692 353 l 122 343 l 122 381 l 650 381 q 622 539 652 471 q 535 645 592 607 q 403 684 479 684 q 261 642 322 684 q 165 525 199 600 q 130 354 130 451 q 164 183 130 257 q 260 68 198 110 q 404 27 321 27 q 523 51 467 27 q 625 118 578 75 l 642 79 q 536 12 594 35 q 411 -11 477 -11 m 515 853 q 474 870 490 853 q 457 911 457 887 q 474 954 457 937 q 515 970 490 970 q 557 954 541 970 q 574 911 574 937 q 557 870 574 887 q 515 853 541 853 m 293 853 q 252 870 269 853 q 235 911 235 887 q 252 954 235 937 q 293 970 269 970 q 335 954 319 970 q 351 911 351 937 q 335 870 351 887 q 293 853 319 853 z "},"ė":{"ha":781,"x_min":90,"x_max":692,"o":"m 411 -11 q 242 36 314 -11 q 130 165 170 82 q 90 357 90 248 q 129 547 90 465 q 239 675 169 629 q 403 722 310 722 q 555 680 490 722 q 656 561 620 637 q 692 382 692 485 q 692 366 692 380 q 690 343 692 353 l 122 343 l 122 381 l 650 381 q 622 539 652 471 q 535 645 592 607 q 403 684 479 684 q 261 642 322 684 q 165 525 199 600 q 130 354 130 451 q 164 183 130 257 q 260 68 198 110 q 404 27 321 27 q 523 51 467 27 q 625 118 578 75 l 642 79 q 536 12 594 35 q 411 -11 477 -11 m 403 853 q 361 870 378 853 q 345 911 345 886 q 361 953 345 937 q 403 970 378 970 q 445 953 428 970 q 461 911 461 937 q 445 870 461 886 q 403 853 428 853 z "},"ẹ":{"ha":781,"x_min":90,"x_max":692,"o":"m 411 -11 q 242 36 314 -11 q 130 165 170 82 q 90 357 90 248 q 129 547 90 465 q 239 675 169 629 q 403 722 310 722 q 555 680 490 722 q 656 561 620 637 q 692 382 692 485 q 692 366 692 380 q 690 343 692 353 l 122 343 l 122 381 l 650 381 q 622 539 652 471 q 535 645 592 607 q 403 684 479 684 q 261 642 322 684 q 165 525 199 600 q 130 354 130 451 q 164 183 130 257 q 260 68 198 110 q 404 27 321 27 q 523 51 467 27 q 625 118 578 75 l 642 79 q 536 12 594 35 q 411 -11 477 -11 m 399 -208 q 357 -191 374 -208 q 340 -149 340 -174 q 357 -107 340 -124 q 399 -91 374 -91 q 440 -107 424 -91 q 457 -149 457 -124 q 440 -191 457 -174 q 399 -208 424 -208 z "},"è":{"ha":781,"x_min":90,"x_max":692,"o":"m 411 -11 q 242 36 314 -11 q 130 165 170 82 q 90 357 90 248 q 129 547 90 465 q 239 675 169 629 q 403 722 310 722 q 555 680 490 722 q 656 561 620 637 q 692 382 692 485 q 692 366 692 380 q 690 343 692 353 l 122 343 l 122 381 l 650 381 q 622 539 652 471 q 535 645 592 607 q 403 684 479 684 q 261 642 322 684 q 165 525 199 600 q 130 354 130 451 q 164 183 130 257 q 260 68 198 110 q 404 27 321 27 q 523 51 467 27 q 625 118 578 75 l 642 79 q 536 12 594 35 q 411 -11 477 -11 m 408 808 l 245 1023 l 275 1046 l 439 833 l 408 808 z "},"ẻ":{"ha":781,"x_min":90,"x_max":692,"o":"m 411 -11 q 242 36 314 -11 q 130 165 170 82 q 90 357 90 248 q 129 547 90 465 q 239 675 169 629 q 403 722 310 722 q 555 680 490 722 q 656 561 620 637 q 692 382 692 485 q 692 366 692 380 q 690 343 692 353 l 122 343 l 122 381 l 650 381 q 622 539 652 471 q 535 645 592 607 q 403 684 479 684 q 261 642 322 684 q 165 525 199 600 q 130 354 130 451 q 164 183 130 257 q 260 68 198 110 q 404 27 321 27 q 523 51 467 27 q 625 118 578 75 l 642 79 q 536 12 594 35 q 411 -11 477 -11 m 418 808 l 393 838 q 438 876 419 852 q 457 925 457 899 q 438 968 457 953 q 388 983 420 983 q 351 980 370 983 q 316 970 332 976 l 316 1010 q 354 1020 334 1018 q 387 1023 374 1023 q 465 997 437 1023 q 492 928 492 970 q 472 859 492 892 q 418 808 452 826 z "},"ȇ":{"ha":781,"x_min":90,"x_max":692,"o":"m 411 -11 q 242 36 314 -11 q 130 165 170 82 q 90 357 90 248 q 129 547 90 465 q 239 675 169 629 q 403 722 310 722 q 555 680 490 722 q 656 561 620 637 q 692 382 692 485 q 692 366 692 380 q 690 343 692 353 l 122 343 l 122 381 l 650 381 q 622 539 652 471 q 535 645 592 607 q 403 684 479 684 q 261 642 322 684 q 165 525 199 600 q 130 354 130 451 q 164 183 130 257 q 260 68 198 110 q 404 27 321 27 q 523 51 467 27 q 625 118 578 75 l 642 79 q 536 12 594 35 q 411 -11 477 -11 m 403 1025 q 496 1000 454 1025 q 564 932 538 975 q 589 836 589 889 l 551 836 q 508 943 551 900 q 403 986 465 986 q 298 943 341 986 q 255 836 255 900 l 217 836 q 242 932 217 889 q 309 1000 267 975 q 403 1025 351 1025 z "},"ē":{"ha":781,"x_min":90,"x_max":692,"o":"m 411 -11 q 242 36 314 -11 q 130 165 170 82 q 90 357 90 248 q 129 547 90 465 q 239 675 169 629 q 403 722 310 722 q 555 680 490 722 q 656 561 620 637 q 692 382 692 485 q 692 366 692 380 q 690 343 692 353 l 122 343 l 122 381 l 650 381 q 622 539 652 471 q 535 645 592 607 q 403 684 479 684 q 261 642 322 684 q 165 525 199 600 q 130 354 130 451 q 164 183 130 257 q 260 68 198 110 q 404 27 321 27 q 523 51 467 27 q 625 118 578 75 l 642 79 q 536 12 594 35 q 411 -11 477 -11 m 199 894 l 199 933 l 604 933 l 604 894 l 199 894 z "},"ḗ":{"ha":781,"x_min":90,"x_max":692,"o":"m 411 -11 q 242 36 314 -11 q 130 165 170 82 q 90 357 90 248 q 129 547 90 465 q 239 675 169 629 q 403 722 310 722 q 555 680 490 722 q 656 561 620 637 q 692 382 692 485 q 692 366 692 380 q 690 343 692 353 l 122 343 l 122 381 l 650 381 q 622 539 652 471 q 535 645 592 607 q 403 684 479 684 q 261 642 322 684 q 165 525 199 600 q 130 354 130 451 q 164 183 130 257 q 260 68 198 110 q 404 27 321 27 q 523 51 467 27 q 625 118 578 75 l 642 79 q 536 12 594 35 q 411 -11 477 -11 m 199 894 l 199 933 l 604 933 l 604 894 l 199 894 m 397 1015 l 366 1039 l 530 1252 l 560 1229 l 397 1015 z "},"ḕ":{"ha":781,"x_min":90,"x_max":692,"o":"m 411 -11 q 242 36 314 -11 q 130 165 170 82 q 90 357 90 248 q 129 547 90 465 q 239 675 169 629 q 403 722 310 722 q 555 680 490 722 q 656 561 620 637 q 692 382 692 485 q 692 366 692 380 q 690 343 692 353 l 122 343 l 122 381 l 650 381 q 622 539 652 471 q 535 645 592 607 q 403 684 479 684 q 261 642 322 684 q 165 525 199 600 q 130 354 130 451 q 164 183 130 257 q 260 68 198 110 q 404 27 321 27 q 523 51 467 27 q 625 118 578 75 l 642 79 q 536 12 594 35 q 411 -11 477 -11 m 199 894 l 199 933 l 604 933 l 604 894 l 199 894 m 408 1015 l 245 1229 l 275 1252 l 439 1039 l 408 1015 z "},"ę":{"ha":781,"x_min":90,"x_max":692,"o":"m 411 -11 q 242 36 314 -11 q 130 165 170 82 q 90 357 90 248 q 129 547 90 465 q 239 675 169 629 q 403 722 310 722 q 555 680 490 722 q 656 561 620 637 q 692 382 692 485 q 692 366 692 380 q 690 343 692 353 l 122 343 l 122 381 l 650 381 q 622 539 652 471 q 535 645 592 607 q 403 684 479 684 q 261 642 322 684 q 165 525 199 600 q 130 354 130 451 q 164 183 130 257 q 260 68 198 110 q 404 27 321 27 q 523 51 467 27 q 625 118 578 75 l 642 79 q 536 12 594 35 q 411 -11 477 -11 m 585 -186 q 521 -157 546 -186 q 496 -85 496 -129 q 533 11 496 -31 q 610 95 570 54 l 642 79 q 593 23 618 50 q 550 -29 568 -3 q 532 -85 532 -56 q 550 -131 532 -115 q 591 -146 568 -146 q 635 -136 615 -146 q 670 -115 656 -125 l 670 -157 q 631 -178 656 -170 q 585 -186 607 -186 z "},"ẽ":{"ha":781,"x_min":90,"x_max":692,"o":"m 411 -11 q 242 36 314 -11 q 130 165 170 82 q 90 357 90 248 q 129 547 90 465 q 239 675 169 629 q 403 722 310 722 q 555 680 490 722 q 656 561 620 637 q 692 382 692 485 q 692 366 692 380 q 690 343 692 353 l 122 343 l 122 381 l 650 381 q 622 539 652 471 q 535 645 592 607 q 403 684 479 684 q 261 642 322 684 q 165 525 199 600 q 130 354 130 451 q 164 183 130 257 q 260 68 198 110 q 404 27 321 27 q 523 51 467 27 q 625 118 578 75 l 642 79 q 536 12 594 35 q 411 -11 477 -11 m 218 842 q 248 936 218 899 q 324 972 277 972 q 375 959 354 972 q 413 928 396 945 q 446 897 429 910 q 484 883 463 883 q 532 909 515 883 q 549 972 549 935 l 590 972 q 562 882 590 921 q 484 842 533 842 q 436 856 457 842 q 398 888 416 869 q 362 920 380 906 q 321 933 344 933 q 276 909 293 933 q 259 842 259 884 l 218 842 z "},"ə":{"ha":781,"x_min":85,"x_max":688,"o":"m 376 -11 q 225 32 290 -11 q 122 148 159 74 q 85 316 85 222 q 86 341 85 328 q 87 368 86 353 l 655 368 l 655 330 l 127 330 q 155 176 125 244 q 242 67 185 107 q 374 27 298 27 q 510 67 448 27 q 610 180 572 106 q 647 358 647 254 q 613 528 647 454 q 517 642 578 601 q 373 684 455 684 q 289 672 328 684 q 217 640 250 661 q 155 593 183 619 l 137 631 q 237 694 177 667 q 369 722 298 722 q 534 675 462 722 q 647 546 606 629 q 688 355 688 463 q 648 168 688 251 q 538 37 608 85 q 376 -11 468 -11 z "},"f":{"ha":781,"x_min":106,"x_max":708,"o":"m 296 0 l 296 804 q 327 945 296 890 q 411 1028 358 1001 q 529 1055 464 1055 q 626 1040 581 1055 q 708 1001 671 1025 l 690 966 q 612 1004 656 990 q 525 1017 568 1017 q 390 966 443 1017 q 336 812 336 914 l 336 0 l 296 0 m 106 673 l 106 711 l 685 711 l 685 673 l 106 673 z "},"g":{"ha":781,"x_min":95,"x_max":651,"o":"m 377 -296 q 261 -274 323 -296 q 163 -221 199 -252 l 179 -180 q 270 -238 218 -218 q 376 -258 323 -258 q 494 -228 440 -258 q 579 -139 547 -197 q 612 3 612 -81 l 612 152 l 605 152 l 613 191 l 613 524 l 605 566 l 610 566 l 610 711 l 651 711 l 651 5 q 625 -135 651 -77 q 557 -228 599 -193 q 468 -279 515 -263 q 377 -296 420 -296 m 376 -11 q 262 15 314 -11 q 173 88 211 40 q 115 204 136 136 q 95 358 95 272 q 130 551 95 469 q 228 677 165 633 q 377 722 292 722 q 512 683 450 722 q 612 563 574 644 q 650 358 650 483 q 611 151 650 233 q 511 29 573 69 q 376 -11 448 -11 m 374 27 q 498 71 444 27 q 583 191 552 115 q 613 365 613 267 q 583 533 613 462 q 498 644 552 605 q 374 684 444 684 q 248 643 302 684 q 165 529 195 602 q 136 358 136 456 q 167 183 136 258 q 253 68 199 109 q 374 27 307 27 z "},"ǵ":{"ha":781,"x_min":95,"x_max":651,"o":"m 377 -296 q 261 -274 323 -296 q 163 -221 199 -252 l 179 -180 q 270 -238 218 -218 q 376 -258 323 -258 q 494 -228 440 -258 q 579 -139 547 -197 q 612 3 612 -81 l 612 152 l 605 152 l 613 191 l 613 524 l 605 566 l 610 566 l 610 711 l 651 711 l 651 5 q 625 -135 651 -77 q 557 -228 599 -193 q 468 -279 515 -263 q 377 -296 420 -296 m 376 -11 q 262 15 314 -11 q 173 88 211 40 q 115 204 136 136 q 95 358 95 272 q 130 551 95 469 q 228 677 165 633 q 377 722 292 722 q 512 683 450 722 q 612 563 574 644 q 650 358 650 483 q 611 151 650 233 q 511 29 573 69 q 376 -11 448 -11 m 374 27 q 498 71 444 27 q 583 191 552 115 q 613 365 613 267 q 583 533 613 462 q 498 644 552 605 q 374 684 444 684 q 248 643 302 684 q 165 529 195 602 q 136 358 136 456 q 167 183 136 258 q 253 68 199 109 q 374 27 307 27 m 380 808 l 349 833 l 513 1046 l 543 1023 l 380 808 z "},"ğ":{"ha":781,"x_min":95,"x_max":651,"o":"m 377 -296 q 261 -274 323 -296 q 163 -221 199 -252 l 179 -180 q 270 -238 218 -218 q 376 -258 323 -258 q 494 -228 440 -258 q 579 -139 547 -197 q 612 3 612 -81 l 612 152 l 605 152 l 613 191 l 613 524 l 605 566 l 610 566 l 610 711 l 651 711 l 651 5 q 625 -135 651 -77 q 557 -228 599 -193 q 468 -279 515 -263 q 377 -296 420 -296 m 376 -11 q 262 15 314 -11 q 173 88 211 40 q 115 204 136 136 q 95 358 95 272 q 130 551 95 469 q 228 677 165 633 q 377 722 292 722 q 512 683 450 722 q 612 563 574 644 q 650 358 650 483 q 611 151 650 233 q 511 29 573 69 q 376 -11 448 -11 m 374 27 q 498 71 444 27 q 583 191 552 115 q 613 365 613 267 q 583 533 613 462 q 498 644 552 605 q 374 684 444 684 q 248 643 302 684 q 165 529 195 602 q 136 358 136 456 q 167 183 136 258 q 253 68 199 109 q 374 27 307 27 m 388 830 q 294 855 336 830 q 227 923 252 880 q 202 1020 202 966 l 240 1020 q 283 913 240 956 q 388 869 326 869 q 493 913 450 869 q 536 1020 536 956 l 574 1020 q 549 923 574 966 q 481 855 524 880 q 388 830 439 830 z "},"ǧ":{"ha":781,"x_min":95,"x_max":651,"o":"m 377 -296 q 261 -274 323 -296 q 163 -221 199 -252 l 179 -180 q 270 -238 218 -218 q 376 -258 323 -258 q 494 -228 440 -258 q 579 -139 547 -197 q 612 3 612 -81 l 612 152 l 605 152 l 613 191 l 613 524 l 605 566 l 610 566 l 610 711 l 651 711 l 651 5 q 625 -135 651 -77 q 557 -228 599 -193 q 468 -279 515 -263 q 377 -296 420 -296 m 376 -11 q 262 15 314 -11 q 173 88 211 40 q 115 204 136 136 q 95 358 95 272 q 130 551 95 469 q 228 677 165 633 q 377 722 292 722 q 512 683 450 722 q 612 563 574 644 q 650 358 650 483 q 611 151 650 233 q 511 29 573 69 q 376 -11 448 -11 m 374 27 q 498 71 444 27 q 583 191 552 115 q 613 365 613 267 q 583 533 613 462 q 498 644 552 605 q 374 684 444 684 q 248 643 302 684 q 165 529 195 602 q 136 358 136 456 q 167 183 136 258 q 253 68 199 109 q 374 27 307 27 m 232 1028 l 381 867 l 387 867 l 537 1028 l 564 1000 l 395 822 l 374 822 l 205 1000 l 232 1028 z "},"ĝ":{"ha":781,"x_min":95,"x_max":651,"o":"m 377 -296 q 261 -274 323 -296 q 163 -221 199 -252 l 179 -180 q 270 -238 218 -218 q 376 -258 323 -258 q 494 -228 440 -258 q 579 -139 547 -197 q 612 3 612 -81 l 612 152 l 605 152 l 613 191 l 613 524 l 605 566 l 610 566 l 610 711 l 651 711 l 651 5 q 625 -135 651 -77 q 557 -228 599 -193 q 468 -279 515 -263 q 377 -296 420 -296 m 376 -11 q 262 15 314 -11 q 173 88 211 40 q 115 204 136 136 q 95 358 95 272 q 130 551 95 469 q 228 677 165 633 q 377 722 292 722 q 512 683 450 722 q 612 563 574 644 q 650 358 650 483 q 611 151 650 233 q 511 29 573 69 q 376 -11 448 -11 m 374 27 q 498 71 444 27 q 583 191 552 115 q 613 365 613 267 q 583 533 613 462 q 498 644 552 605 q 374 684 444 684 q 248 643 302 684 q 165 529 195 602 q 136 358 136 456 q 167 183 136 258 q 253 68 199 109 q 374 27 307 27 m 233 822 l 206 850 l 376 1028 l 396 1028 l 566 850 l 538 822 l 388 983 l 382 983 l 233 822 z "},"ģ":{"ha":781,"x_min":95,"x_max":651,"o":"m 377 -296 q 261 -274 323 -296 q 163 -221 199 -252 l 179 -180 q 270 -238 218 -218 q 376 -258 323 -258 q 494 -228 440 -258 q 579 -139 547 -197 q 612 3 612 -81 l 612 152 l 605 152 l 613 191 l 613 524 l 605 566 l 610 566 l 610 711 l 651 711 l 651 5 q 625 -135 651 -77 q 557 -228 599 -193 q 468 -279 515 -263 q 377 -296 420 -296 m 376 -11 q 262 15 314 -11 q 173 88 211 40 q 115 204 136 136 q 95 358 95 272 q 130 551 95 469 q 228 677 165 633 q 377 722 292 722 q 512 683 450 722 q 612 563 574 644 q 650 358 650 483 q 611 151 650 233 q 511 29 573 69 q 376 -11 448 -11 m 374 27 q 498 71 444 27 q 583 191 552 115 q 613 365 613 267 q 583 533 613 462 q 498 644 552 605 q 374 684 444 684 q 248 643 302 684 q 165 529 195 602 q 136 358 136 456 q 167 183 136 258 q 253 68 199 109 q 374 27 307 27 m 422 1035 l 445 1013 l 400 958 q 377 927 386 940 q 366 904 369 915 q 363 883 362 894 l 346 880 q 358 900 351 892 q 376 907 366 907 q 407 893 392 907 q 422 854 422 878 q 407 820 422 833 q 376 806 392 806 q 340 823 353 806 q 327 865 327 840 q 335 908 327 886 q 355 947 344 929 q 373 974 366 964 l 422 1035 z "},"ġ":{"ha":781,"x_min":95,"x_max":651,"o":"m 377 -296 q 261 -274 323 -296 q 163 -221 199 -252 l 179 -180 q 270 -238 218 -218 q 376 -258 323 -258 q 494 -228 440 -258 q 579 -139 547 -197 q 612 3 612 -81 l 612 152 l 605 152 l 613 191 l 613 524 l 605 566 l 610 566 l 610 711 l 651 711 l 651 5 q 625 -135 651 -77 q 557 -228 599 -193 q 468 -279 515 -263 q 377 -296 420 -296 m 376 -11 q 262 15 314 -11 q 173 88 211 40 q 115 204 136 136 q 95 358 95 272 q 130 551 95 469 q 228 677 165 633 q 377 722 292 722 q 512 683 450 722 q 612 563 574 644 q 650 358 650 483 q 611 151 650 233 q 511 29 573 69 q 376 -11 448 -11 m 374 27 q 498 71 444 27 q 583 191 552 115 q 613 365 613 267 q 583 533 613 462 q 498 644 552 605 q 374 684 444 684 q 248 643 302 684 q 165 529 195 602 q 136 358 136 456 q 167 183 136 258 q 253 68 199 109 q 374 27 307 27 m 385 853 q 343 870 360 853 q 327 911 327 886 q 343 953 327 937 q 385 970 360 970 q 427 953 410 970 q 444 911 444 937 q 427 870 444 886 q 385 853 410 853 z "},"ḡ":{"ha":781,"x_min":95,"x_max":651,"o":"m 377 -296 q 261 -274 323 -296 q 163 -221 199 -252 l 179 -180 q 270 -238 218 -218 q 376 -258 323 -258 q 494 -228 440 -258 q 579 -139 547 -197 q 612 3 612 -81 l 612 152 l 605 152 l 613 191 l 613 524 l 605 566 l 610 566 l 610 711 l 651 711 l 651 5 q 625 -135 651 -77 q 557 -228 599 -193 q 468 -279 515 -263 q 377 -296 420 -296 m 376 -11 q 262 15 314 -11 q 173 88 211 40 q 115 204 136 136 q 95 358 95 272 q 130 551 95 469 q 228 677 165 633 q 377 722 292 722 q 512 683 450 722 q 612 563 574 644 q 650 358 650 483 q 611 151 650 233 q 511 29 573 69 q 376 -11 448 -11 m 374 27 q 498 71 444 27 q 583 191 552 115 q 613 365 613 267 q 583 533 613 462 q 498 644 552 605 q 374 684 444 684 q 248 643 302 684 q 165 529 195 602 q 136 358 136 456 q 167 183 136 258 q 253 68 199 109 q 374 27 307 27 m 182 894 l 182 933 l 586 933 l 586 894 l 182 894 z "},"h":{"ha":781,"x_min":136,"x_max":648,"o":"m 136 0 l 136 1044 l 176 1044 l 176 594 l 197 594 l 167 564 q 212 644 179 608 q 295 701 245 680 q 407 722 345 722 q 534 689 479 722 q 618 597 588 656 q 648 458 648 538 l 648 0 l 608 0 l 608 456 q 553 623 608 563 q 401 684 498 684 q 286 654 337 684 q 206 573 235 625 q 176 453 176 522 l 176 0 l 136 0 z "},"ħ":{"ha":781,"x_min":22,"x_max":648,"o":"m 136 0 l 136 1044 l 176 1044 l 176 594 l 197 594 l 167 564 q 212 644 179 608 q 295 701 245 680 q 407 722 345 722 q 534 689 479 722 q 618 597 588 656 q 648 458 648 538 l 648 0 l 608 0 l 608 456 q 553 623 608 563 q 401 684 498 684 q 286 654 337 684 q 206 573 235 625 q 176 453 176 522 l 176 0 l 136 0 m 22 837 l 22 875 l 293 875 l 293 837 l 22 837 z "},"ḫ":{"ha":781,"x_min":136,"x_max":648,"o":"m 136 0 l 136 1044 l 176 1044 l 176 594 l 197 594 l 167 564 q 212 644 179 608 q 295 701 245 680 q 407 722 345 722 q 534 689 479 722 q 618 597 588 656 q 648 458 648 538 l 648 0 l 608 0 l 608 456 q 553 623 608 563 q 401 684 498 684 q 286 654 337 684 q 206 573 235 625 q 176 453 176 522 l 176 0 l 136 0 m 392 -270 q 298 -245 340 -270 q 231 -177 256 -220 q 206 -80 206 -134 l 244 -80 q 287 -187 244 -144 q 392 -231 330 -231 q 497 -187 454 -231 q 540 -80 540 -144 l 578 -80 q 553 -177 578 -134 q 486 -245 528 -220 q 392 -270 444 -270 z "},"ĥ":{"ha":781,"x_min":-33,"x_max":648,"o":"m 136 0 l 136 1044 l 176 1044 l 176 594 l 197 594 l 167 564 q 212 644 179 608 q 295 701 245 680 q 407 722 345 722 q 534 689 479 722 q 618 597 588 656 q 648 458 648 538 l 648 0 l 608 0 l 608 456 q 553 623 608 563 q 401 684 498 684 q 286 654 337 684 q 206 573 235 625 q 176 453 176 522 l 176 0 l 136 0 m -5 1055 l -33 1089 l 148 1232 l 174 1232 l 350 1089 l 323 1055 l 165 1190 l 156 1190 l -5 1055 z "},"ḥ":{"ha":781,"x_min":136,"x_max":648,"o":"m 136 0 l 136 1044 l 176 1044 l 176 594 l 197 594 l 167 564 q 212 644 179 608 q 295 701 245 680 q 407 722 345 722 q 534 689 479 722 q 618 597 588 656 q 648 458 648 538 l 648 0 l 608 0 l 608 456 q 553 623 608 563 q 401 684 498 684 q 286 654 337 684 q 206 573 235 625 q 176 453 176 522 l 176 0 l 136 0 m 392 -208 q 350 -191 367 -208 q 334 -149 334 -174 q 350 -107 334 -124 q 392 -91 367 -91 q 434 -107 417 -91 q 450 -149 450 -124 q 434 -191 450 -174 q 392 -208 417 -208 z "},"i":{"ha":781,"x_min":144,"x_max":487,"o":"m 410 0 l 410 711 l 450 711 l 450 0 l 410 0 m 144 673 l 144 711 l 450 711 l 450 673 l 144 673 m 429 853 q 387 870 404 853 q 370 911 370 886 q 387 953 370 937 q 429 970 404 970 q 470 953 454 970 q 487 911 487 937 q 470 870 487 886 q 429 853 454 853 z "},"ı":{"ha":781,"x_min":144,"x_max":450,"o":"m 410 0 l 410 711 l 450 711 l 450 0 l 410 0 m 144 673 l 144 711 l 450 711 l 450 673 l 144 673 z "},"í":{"ha":781,"x_min":144,"x_max":586,"o":"m 410 0 l 410 711 l 450 711 l 450 0 l 410 0 m 144 673 l 144 711 l 450 711 l 450 673 l 144 673 m 423 808 l 392 833 l 556 1046 l 586 1023 l 423 808 z "},"ĭ":{"ha":781,"x_min":144,"x_max":617,"o":"m 410 0 l 410 711 l 450 711 l 450 0 l 410 0 m 144 673 l 144 711 l 450 711 l 450 673 l 144 673 m 431 830 q 338 855 380 830 q 271 923 296 880 q 245 1020 245 966 l 283 1020 q 327 913 283 956 q 431 869 370 869 q 536 913 494 869 q 579 1020 579 956 l 617 1020 q 592 923 617 966 q 525 855 567 880 q 431 830 483 830 z "},"ǐ":{"ha":781,"x_min":144,"x_max":608,"o":"m 410 0 l 410 711 l 450 711 l 450 0 l 410 0 m 144 673 l 144 711 l 450 711 l 450 673 l 144 673 m 275 1028 l 425 867 l 430 867 l 581 1028 l 608 1000 l 438 822 l 418 822 l 248 1000 l 275 1028 z "},"î":{"ha":781,"x_min":144,"x_max":609,"o":"m 410 0 l 410 711 l 450 711 l 450 0 l 410 0 m 144 673 l 144 711 l 450 711 l 450 673 l 144 673 m 277 822 l 250 850 l 419 1028 l 439 1028 l 609 850 l 582 822 l 431 983 l 426 983 l 277 822 z "},"ȉ":{"ha":781,"x_min":144,"x_max":559,"o":"m 410 0 l 410 711 l 450 711 l 450 0 l 410 0 m 144 673 l 144 711 l 450 711 l 450 673 l 144 673 m 533 808 l 380 1050 l 418 1076 l 559 822 l 533 808 m 358 808 l 205 1050 l 240 1076 l 384 822 l 358 808 z "},"ï":{"ha":781,"x_min":144,"x_max":600,"o":"m 410 0 l 410 711 l 450 711 l 450 0 l 410 0 m 144 673 l 144 711 l 450 711 l 450 673 l 144 673 m 541 853 q 499 870 516 853 q 483 911 483 887 q 499 954 483 937 q 541 970 516 970 q 583 954 567 970 q 600 911 600 937 q 583 870 600 887 q 541 853 567 853 m 319 853 q 277 870 294 853 q 260 911 260 887 q 277 954 260 937 q 319 970 294 970 q 361 954 345 970 q 377 911 377 937 q 361 870 377 887 q 319 853 345 853 z "},"ḯ":{"ha":781,"x_min":144,"x_max":600,"o":"m 410 0 l 410 711 l 450 711 l 450 0 l 410 0 m 144 673 l 144 711 l 450 711 l 450 673 l 144 673 m 541 853 q 499 870 516 853 q 483 911 483 887 q 499 954 483 937 q 541 970 516 970 q 583 954 567 970 q 600 911 600 937 q 583 870 600 887 q 541 853 567 853 m 319 853 q 277 870 294 853 q 260 911 260 887 q 277 954 260 937 q 319 970 294 970 q 361 954 345 970 q 377 911 377 937 q 361 870 377 887 q 319 853 345 853 m 423 1012 l 392 1036 l 556 1249 l 586 1226 l 423 1012 z "},"ị":{"ha":781,"x_min":144,"x_max":507,"o":"m 410 0 l 410 711 l 450 711 l 450 0 l 410 0 m 144 673 l 144 711 l 450 711 l 450 673 l 144 673 m 429 853 q 387 870 404 853 q 370 911 370 886 q 387 953 370 937 q 429 970 404 970 q 470 953 454 970 q 487 911 487 937 q 470 870 487 886 q 429 853 454 853 m 449 -208 q 407 -191 424 -208 q 391 -149 391 -174 q 407 -107 391 -124 q 449 -91 424 -91 q 491 -107 474 -91 q 507 -149 507 -124 q 491 -191 507 -174 q 449 -208 474 -208 z "},"ì":{"ha":781,"x_min":144,"x_max":465,"o":"m 410 0 l 410 711 l 450 711 l 450 0 l 410 0 m 144 673 l 144 711 l 450 711 l 450 673 l 144 673 m 434 808 l 271 1023 l 301 1046 l 465 833 l 434 808 z "},"ỉ":{"ha":781,"x_min":144,"x_max":518,"o":"m 410 0 l 410 711 l 450 711 l 450 0 l 410 0 m 144 673 l 144 711 l 450 711 l 450 673 l 144 673 m 444 808 l 419 838 q 464 876 445 852 q 483 925 483 899 q 464 968 483 953 q 414 983 446 983 q 377 980 395 983 q 342 970 358 976 l 342 1010 q 379 1020 359 1018 q 412 1023 399 1023 q 491 997 463 1023 q 518 928 518 970 q 498 859 518 892 q 444 808 477 826 z "},"ȋ":{"ha":781,"x_min":144,"x_max":614,"o":"m 410 0 l 410 711 l 450 711 l 450 0 l 410 0 m 144 673 l 144 711 l 450 711 l 450 673 l 144 673 m 429 1025 q 522 1000 480 1025 q 589 932 564 975 q 614 836 614 889 l 576 836 q 534 943 576 900 q 429 986 491 986 q 324 943 367 986 q 281 836 281 900 l 243 836 q 268 932 243 889 q 335 1000 293 975 q 429 1025 377 1025 z "},"ī":{"ha":781,"x_min":144,"x_max":629,"o":"m 410 0 l 410 711 l 450 711 l 450 0 l 410 0 m 144 673 l 144 711 l 450 711 l 450 673 l 144 673 m 225 894 l 225 933 l 629 933 l 629 894 l 225 894 z "},"į":{"ha":781,"x_min":144,"x_max":487,"o":"m 410 0 l 410 711 l 450 711 l 450 0 l 410 0 m 144 673 l 144 711 l 450 711 l 450 673 l 144 673 m 429 853 q 387 870 404 853 q 370 911 370 886 q 387 953 370 937 q 429 970 404 970 q 470 953 454 970 q 487 911 487 937 q 470 870 487 886 q 429 853 454 853 m 393 -264 q 330 -236 355 -264 q 305 -164 305 -208 q 342 -67 305 -110 q 419 16 378 -25 l 450 0 q 402 -55 427 -29 q 358 -108 376 -81 q 340 -164 340 -134 q 359 -209 340 -193 q 400 -225 377 -225 q 444 -215 424 -225 q 479 -194 465 -204 l 479 -236 q 440 -256 465 -248 q 393 -264 416 -264 z "},"ĩ":{"ha":781,"x_min":144,"x_max":616,"o":"m 410 0 l 410 711 l 450 711 l 450 0 l 410 0 m 144 673 l 144 711 l 450 711 l 450 673 l 144 673 m 244 842 q 274 936 244 899 q 350 972 303 972 q 401 959 380 972 q 438 928 422 945 q 472 897 455 910 q 510 883 489 883 q 558 909 541 883 q 575 972 575 935 l 616 972 q 587 882 616 921 q 510 842 559 842 q 462 856 483 842 q 424 888 441 869 q 388 920 406 906 q 347 933 370 933 q 302 909 319 933 q 285 842 285 884 l 244 842 z "},"j":{"ha":781,"x_min":84,"x_max":555,"o":"m 279 -296 q 179 -283 227 -296 q 84 -244 132 -271 l 99 -206 q 190 -244 143 -231 q 285 -258 237 -258 q 392 -234 349 -258 q 455 -170 434 -211 q 476 -75 476 -128 l 476 711 l 517 711 l 517 -66 q 514 -108 517 -81 q 502 -168 512 -136 q 466 -229 491 -199 q 396 -277 441 -258 q 279 -296 351 -296 m 191 673 l 191 711 l 517 711 l 517 673 l 191 673 m 496 853 q 455 870 471 853 q 438 911 438 886 q 455 953 438 937 q 496 970 471 970 q 538 953 522 970 q 555 911 555 937 q 538 870 555 886 q 496 853 522 853 z "},"ȷ":{"ha":781,"x_min":84,"x_max":517,"o":"m 279 -296 q 179 -283 227 -296 q 84 -244 132 -271 l 99 -206 q 190 -244 143 -231 q 285 -258 237 -258 q 392 -234 349 -258 q 455 -170 434 -211 q 476 -75 476 -128 l 476 711 l 517 711 l 517 -66 q 514 -108 517 -81 q 502 -168 512 -136 q 466 -229 491 -199 q 396 -277 441 -258 q 279 -296 351 -296 m 191 673 l 191 711 l 517 711 l 517 673 l 191 673 z "},"ĵ":{"ha":781,"x_min":84,"x_max":677,"o":"m 279 -296 q 179 -283 227 -296 q 84 -244 132 -271 l 99 -206 q 190 -244 143 -231 q 285 -258 237 -258 q 392 -234 349 -258 q 455 -170 434 -211 q 476 -75 476 -128 l 476 711 l 517 711 l 517 -66 q 514 -108 517 -81 q 502 -168 512 -136 q 466 -229 491 -199 q 396 -277 441 -258 q 279 -296 351 -296 m 191 673 l 191 711 l 517 711 l 517 673 l 191 673 m 345 822 l 317 850 l 487 1028 l 507 1028 l 677 850 l 650 822 l 499 983 l 494 983 l 345 822 z "},"k":{"ha":781,"x_min":157,"x_max":709,"o":"m 157 0 l 157 1044 l 198 1044 l 198 384 l 263 384 l 225 366 l 618 711 l 680 711 l 269 350 l 269 374 l 709 0 l 648 0 l 225 358 l 263 342 l 198 342 l 198 0 l 157 0 z "},"ķ":{"ha":781,"x_min":157,"x_max":709,"o":"m 157 0 l 157 1044 l 198 1044 l 198 384 l 263 384 l 225 366 l 618 711 l 680 711 l 269 350 l 269 374 l 709 0 l 648 0 l 225 358 l 263 342 l 198 342 l 198 0 l 157 0 m 382 -330 l 359 -308 l 404 -252 q 427 -222 418 -235 q 439 -199 435 -210 q 441 -178 442 -189 l 458 -175 q 446 -195 454 -187 q 429 -202 439 -202 q 397 -187 412 -202 q 382 -149 382 -172 q 397 -114 382 -127 q 429 -100 412 -100 q 465 -117 452 -100 q 477 -160 477 -134 q 469 -202 477 -181 q 450 -241 460 -224 q 431 -269 439 -259 l 382 -330 z "},"ĸ":{"ha":781,"x_min":157,"x_max":709,"o":"m 157 0 l 157 711 l 198 711 l 198 384 l 262 384 l 224 366 l 618 711 l 680 711 l 267 350 l 267 374 l 709 0 l 648 0 l 224 358 l 262 342 l 198 342 l 198 0 l 157 0 z "},"l":{"ha":781,"x_min":298,"x_max":713,"o":"m 526 -8 q 411 16 463 -8 q 329 90 359 39 q 298 221 298 140 l 298 1044 l 339 1044 l 339 217 q 390 78 339 125 q 521 30 441 30 q 612 44 565 30 q 697 81 660 59 l 713 45 q 622 6 669 20 q 526 -8 575 -8 z "},"ĺ":{"ha":781,"x_min":282,"x_max":713,"o":"m 526 -8 q 411 16 463 -8 q 329 90 359 39 q 298 221 298 140 l 298 1044 l 339 1044 l 339 217 q 390 78 339 125 q 521 30 441 30 q 612 44 565 30 q 697 81 660 59 l 713 45 q 622 6 669 20 q 526 -8 575 -8 m 313 1142 l 282 1166 l 446 1379 l 476 1356 l 313 1142 z "},"ľ":{"ha":781,"x_min":298,"x_max":713,"o":"m 526 -8 q 411 16 463 -8 q 329 90 359 39 q 298 221 298 140 l 298 1044 l 339 1044 l 339 217 q 390 78 339 125 q 521 30 441 30 q 612 44 565 30 q 697 81 660 59 l 713 45 q 622 6 669 20 q 526 -8 575 -8 m 506 769 l 507 1044 l 544 1044 l 538 769 l 506 769 z "},"ļ":{"ha":781,"x_min":298,"x_max":713,"o":"m 526 -8 q 411 16 463 -8 q 329 90 359 39 q 298 221 298 140 l 298 1044 l 339 1044 l 339 217 q 390 78 339 125 q 521 30 441 30 q 612 44 565 30 q 697 81 660 59 l 713 45 q 622 6 669 20 q 526 -8 575 -8 m 461 -330 l 438 -308 l 483 -252 q 506 -222 497 -235 q 517 -199 514 -210 q 519 -178 521 -189 l 537 -175 q 525 -195 532 -187 q 507 -202 517 -202 q 476 -187 491 -202 q 461 -149 461 -172 q 476 -114 461 -127 q 507 -100 491 -100 q 544 -117 531 -100 q 556 -160 556 -134 q 548 -202 556 -181 q 528 -241 539 -224 q 510 -269 517 -259 l 461 -330 z "},"ŀ":{"ha":781,"x_min":298,"x_max":806,"o":"m 526 -8 q 411 16 463 -8 q 329 90 359 39 q 298 221 298 140 l 298 1044 l 339 1044 l 339 217 q 390 78 339 125 q 521 30 441 30 q 612 44 565 30 q 697 81 660 59 l 713 45 q 622 6 669 20 q 526 -8 575 -8 m 739 457 q 692 476 712 457 q 673 524 673 495 q 692 571 673 551 q 739 590 711 590 q 787 571 768 590 q 806 524 806 551 q 786 476 806 495 q 739 457 767 457 z "},"ḷ":{"ha":781,"x_min":298,"x_max":713,"o":"m 526 -8 q 411 16 463 -8 q 329 90 359 39 q 298 221 298 140 l 298 1044 l 339 1044 l 339 217 q 390 78 339 125 q 521 30 441 30 q 612 44 565 30 q 697 81 660 59 l 713 45 q 622 6 669 20 q 526 -8 575 -8 m 496 -208 q 455 -191 471 -208 q 438 -149 438 -174 q 455 -107 438 -124 q 496 -91 471 -91 q 538 -107 522 -91 q 555 -149 555 -124 q 538 -191 555 -174 q 496 -208 522 -208 z "},"ḹ":{"ha":781,"x_min":115,"x_max":713,"o":"m 526 -8 q 411 16 463 -8 q 329 90 359 39 q 298 221 298 140 l 298 1044 l 339 1044 l 339 217 q 390 78 339 125 q 521 30 441 30 q 612 44 565 30 q 697 81 660 59 l 713 45 q 622 6 669 20 q 526 -8 575 -8 m 496 -208 q 455 -191 471 -208 q 438 -149 438 -174 q 455 -107 438 -124 q 496 -91 471 -91 q 538 -107 522 -91 q 555 -149 555 -124 q 538 -191 555 -174 q 496 -208 522 -208 m 115 1227 l 115 1267 l 519 1267 l 519 1227 l 115 1227 z "},"ǉ":{"ha":781,"x_min":170,"x_max":692,"o":"m 506 -296 q 429 -281 469 -296 q 362 -245 388 -267 l 378 -206 q 441 -243 405 -229 q 507 -258 477 -258 q 585 -223 553 -258 q 616 -115 616 -189 l 616 711 l 656 711 l 656 -111 q 612 -250 656 -205 q 506 -296 567 -296 m 327 -11 q 213 40 257 -11 q 170 191 170 92 l 170 1044 l 212 1044 l 212 187 q 242 72 212 117 q 326 27 272 27 q 380 38 351 27 q 430 68 410 49 l 446 31 q 386 -1 418 8 q 327 -11 355 -11 m 438 673 l 438 711 l 656 711 l 656 673 l 438 673 m 635 853 q 594 870 610 853 q 578 911 578 886 q 594 954 578 937 q 635 970 610 970 q 675 954 659 970 q 692 911 692 937 q 675 870 692 886 q 635 853 659 853 z "},"ḻ":{"ha":781,"x_min":294,"x_max":713,"o":"m 526 -8 q 411 16 463 -8 q 329 90 359 39 q 298 221 298 140 l 298 1044 l 339 1044 l 339 217 q 390 78 339 125 q 521 30 441 30 q 612 44 565 30 q 697 81 660 59 l 713 45 q 622 6 669 20 q 526 -8 575 -8 m 294 -256 l 294 -217 l 699 -217 l 699 -256 l 294 -256 z "},"ł":{"ha":781,"x_min":184,"x_max":713,"o":"m 199 411 l 184 446 l 315 522 l 332 528 l 445 597 l 460 562 l 332 484 l 315 479 l 199 411 m 526 -8 q 411 16 463 -8 q 329 90 359 39 q 298 221 298 140 l 298 1044 l 339 1044 l 339 217 q 390 78 339 125 q 521 30 441 30 q 612 44 565 30 q 697 81 660 59 l 713 45 q 622 6 669 20 q 526 -8 575 -8 z "},"m":{"ha":781,"x_min":76,"x_max":703,"o":"m 76 0 l 76 711 l 117 711 l 117 628 l 127 628 l 109 601 q 163 690 124 658 q 252 722 201 722 q 347 685 309 722 q 395 595 385 648 l 376 623 l 404 623 l 381 595 q 436 684 391 646 q 544 722 481 722 q 608 708 579 722 q 659 669 637 694 q 691 607 680 643 q 703 526 703 571 l 703 0 l 662 0 l 662 526 q 629 641 662 597 q 538 684 595 684 q 446 641 483 684 q 410 526 410 597 l 410 0 l 369 0 l 369 526 q 336 641 369 597 q 251 684 303 684 q 153 634 189 684 q 117 506 117 585 l 117 0 l 76 0 z "},"ṃ":{"ha":781,"x_min":76,"x_max":703,"o":"m 76 0 l 76 711 l 117 711 l 117 628 l 127 628 l 109 601 q 163 690 124 658 q 252 722 201 722 q 347 685 309 722 q 395 595 385 648 l 376 623 l 404 623 l 381 595 q 436 684 391 646 q 544 722 481 722 q 608 708 579 722 q 659 669 637 694 q 691 607 680 643 q 703 526 703 571 l 703 0 l 662 0 l 662 526 q 629 641 662 597 q 538 684 595 684 q 446 641 483 684 q 410 526 410 597 l 410 0 l 369 0 l 369 526 q 336 641 369 597 q 251 684 303 684 q 153 634 189 684 q 117 506 117 585 l 117 0 l 76 0 m 389 -208 q 348 -191 364 -208 q 331 -149 331 -174 q 348 -107 331 -124 q 389 -91 364 -91 q 431 -107 414 -91 q 448 -149 448 -124 q 431 -191 448 -174 q 389 -208 414 -208 z "},"n":{"ha":781,"x_min":136,"x_max":648,"o":"m 136 0 l 136 711 l 176 711 l 176 594 l 197 594 l 167 564 q 251 676 185 631 q 407 722 317 722 q 583 650 517 722 q 648 458 648 578 l 648 0 l 608 0 l 608 456 q 552 623 608 563 q 401 684 497 684 q 286 654 337 684 q 206 573 235 625 q 176 453 176 522 l 176 0 l 136 0 z "},"ń":{"ha":781,"x_min":136,"x_max":648,"o":"m 136 0 l 136 711 l 176 711 l 176 594 l 197 594 l 167 564 q 251 676 185 631 q 407 722 317 722 q 583 650 517 722 q 648 458 648 578 l 648 0 l 608 0 l 608 456 q 552 623 608 563 q 401 684 497 684 q 286 654 337 684 q 206 573 235 625 q 176 453 176 522 l 176 0 l 136 0 m 404 808 l 373 833 l 537 1046 l 567 1023 l 404 808 z "}}}
